%TF.GenerationSoftware,KiCad,Pcbnew,10.0.0*%
%TF.CreationDate,2026-06-27T14:34:16-07:00*%
%TF.ProjectId,LM5116,4c4d3531-3136-42e6-9b69-6361645f7063,rev?*%
%TF.SameCoordinates,Original*%
%TF.FileFunction,Soldermask,Top*%
%TF.FilePolarity,Negative*%
%FSLAX46Y46*%
G04 Gerber Fmt 4.6, Leading zero omitted, Abs format (unit mm)*
G04 Created by KiCad (PCBNEW 10.0.0) date 2026-06-27 14:34:16*
%MOMM*%
%LPD*%
G01*
G04 APERTURE LIST*
G04 Aperture macros list*
%AMRoundRect*
0 Rectangle with rounded corners*
0 $1 Rounding radius*
0 $2 $3 $4 $5 $6 $7 $8 $9 X,Y pos of 4 corners*
0 Add a 4 corners polygon primitive as box body*
4,1,4,$2,$3,$4,$5,$6,$7,$8,$9,$2,$3,0*
0 Add four circle primitives for the rounded corners*
1,1,$1+$1,$2,$3*
1,1,$1+$1,$4,$5*
1,1,$1+$1,$6,$7*
1,1,$1+$1,$8,$9*
0 Add four rect primitives between the rounded corners*
20,1,$1+$1,$2,$3,$4,$5,0*
20,1,$1+$1,$4,$5,$6,$7,0*
20,1,$1+$1,$6,$7,$8,$9,0*
20,1,$1+$1,$8,$9,$2,$3,0*%
G04 Aperture macros list end*
%ADD10RoundRect,0.237500X0.250000X0.237500X-0.250000X0.237500X-0.250000X-0.237500X0.250000X-0.237500X0*%
%ADD11RoundRect,0.160000X0.197500X0.160000X-0.197500X0.160000X-0.197500X-0.160000X0.197500X-0.160000X0*%
%ADD12RoundRect,0.160000X-0.197500X-0.160000X0.197500X-0.160000X0.197500X0.160000X-0.197500X0.160000X0*%
%ADD13RoundRect,0.237500X-0.300000X-0.237500X0.300000X-0.237500X0.300000X0.237500X-0.300000X0.237500X0*%
%ADD14RoundRect,0.237500X0.237500X-0.287500X0.237500X0.287500X-0.237500X0.287500X-0.237500X-0.287500X0*%
%ADD15RoundRect,0.237500X-0.250000X-0.237500X0.250000X-0.237500X0.250000X0.237500X-0.250000X0.237500X0*%
%ADD16RoundRect,0.102000X0.365000X-0.605000X0.365000X0.605000X-0.365000X0.605000X-0.365000X-0.605000X0*%
%ADD17RoundRect,0.160000X0.160000X-0.197500X0.160000X0.197500X-0.160000X0.197500X-0.160000X-0.197500X0*%
%ADD18RoundRect,0.237500X0.237500X-0.300000X0.237500X0.300000X-0.237500X0.300000X-0.237500X-0.300000X0*%
%ADD19RoundRect,0.200000X0.200000X-0.750000X0.200000X0.750000X-0.200000X0.750000X-0.200000X-0.750000X0*%
%ADD20RoundRect,0.155000X0.155000X-0.212500X0.155000X0.212500X-0.155000X0.212500X-0.155000X-0.212500X0*%
%ADD21RoundRect,0.160000X-0.160000X0.197500X-0.160000X-0.197500X0.160000X-0.197500X0.160000X0.197500X0*%
%ADD22RoundRect,0.100000X-0.100000X0.217500X-0.100000X-0.217500X0.100000X-0.217500X0.100000X0.217500X0*%
%ADD23RoundRect,0.237500X0.237500X-0.250000X0.237500X0.250000X-0.237500X0.250000X-0.237500X-0.250000X0*%
%ADD24RoundRect,0.237500X-0.237500X0.300000X-0.237500X-0.300000X0.237500X-0.300000X0.237500X0.300000X0*%
%ADD25RoundRect,0.102000X-0.365000X0.605000X-0.365000X-0.605000X0.365000X-0.605000X0.365000X0.605000X0*%
%ADD26RoundRect,0.200000X-0.750000X-0.200000X0.750000X-0.200000X0.750000X0.200000X-0.750000X0.200000X0*%
%ADD27RoundRect,0.250000X-0.450000X0.350000X-0.450000X-0.350000X0.450000X-0.350000X0.450000X0.350000X0*%
%ADD28RoundRect,0.102000X-0.605000X-0.365000X0.605000X-0.365000X0.605000X0.365000X-0.605000X0.365000X0*%
%ADD29RoundRect,0.155000X-0.212500X-0.155000X0.212500X-0.155000X0.212500X0.155000X-0.212500X0.155000X0*%
%ADD30RoundRect,0.198500X0.508500X0.198500X-0.508500X0.198500X-0.508500X-0.198500X0.508500X-0.198500X0*%
%ADD31RoundRect,0.100000X0.217500X0.100000X-0.217500X0.100000X-0.217500X-0.100000X0.217500X-0.100000X0*%
%ADD32RoundRect,0.100000X0.100000X-0.217500X0.100000X0.217500X-0.100000X0.217500X-0.100000X-0.217500X0*%
%ADD33R,1.727200X0.406400*%
%ADD34R,3.149600X4.343400*%
%ADD35C,1.524000*%
%ADD36RoundRect,0.102000X0.937500X-0.937500X0.937500X0.937500X-0.937500X0.937500X-0.937500X-0.937500X0*%
%ADD37C,2.079000*%
%ADD38RoundRect,0.102000X1.387500X1.387500X-1.387500X1.387500X-1.387500X-1.387500X1.387500X-1.387500X0*%
%ADD39C,2.979000*%
%ADD40C,6.204000*%
%ADD41RoundRect,0.102000X-3.000000X-3.000000X3.000000X-3.000000X3.000000X3.000000X-3.000000X3.000000X0*%
G04 APERTURE END LIST*
D10*
%TO.C,R9*%
X134262500Y-83185000D03*
X132437500Y-83185000D03*
%TD*%
D11*
%TO.C,R3*%
X134582500Y-73660000D03*
X133387500Y-73660000D03*
%TD*%
D12*
%TO.C,R1*%
X141642500Y-72390000D03*
X142837500Y-72390000D03*
%TD*%
D13*
%TO.C,C1*%
X151574999Y-76125001D03*
X153299999Y-76125001D03*
%TD*%
%TO.C,C6*%
X138202500Y-72390000D03*
X139927500Y-72390000D03*
%TD*%
D14*
%TO.C,D4*%
X170815000Y-112635000D03*
X170815000Y-110885000D03*
%TD*%
D15*
%TO.C,R10*%
X134342500Y-81280000D03*
X136167500Y-81280000D03*
%TD*%
D16*
%TO.C,D1*%
X139065000Y-65630000D03*
X139065000Y-68990000D03*
%TD*%
D13*
%TO.C,C16*%
X138005000Y-113855000D03*
X139730000Y-113855000D03*
%TD*%
D12*
%TO.C,R20*%
X128307500Y-96520000D03*
X129502500Y-96520000D03*
%TD*%
D17*
%TO.C,R21*%
X127000000Y-92037500D03*
X127000000Y-90842500D03*
%TD*%
D11*
%TO.C,R7*%
X172682500Y-114300000D03*
X171487500Y-114300000D03*
%TD*%
D18*
%TO.C,C7*%
X135890000Y-73887500D03*
X135890000Y-72162500D03*
%TD*%
D19*
%TO.C,Q5*%
X127320000Y-88495000D03*
X129220000Y-88495000D03*
X128270000Y-85495000D03*
%TD*%
D13*
%TO.C,C10*%
X147764999Y-76125001D03*
X149489999Y-76125001D03*
%TD*%
%TO.C,C15*%
X125532500Y-113855000D03*
X127257500Y-113855000D03*
%TD*%
D20*
%TO.C,C20*%
X135890000Y-83752500D03*
X135890000Y-82617500D03*
%TD*%
D12*
%TO.C,R19*%
X127037500Y-94615000D03*
X128232500Y-94615000D03*
%TD*%
%TO.C,R2*%
X133387500Y-72390000D03*
X134582500Y-72390000D03*
%TD*%
D21*
%TO.C,R22*%
X132607500Y-95692500D03*
X132607500Y-96887500D03*
%TD*%
D18*
%TO.C,C9*%
X147357499Y-73812501D03*
X147357499Y-72087501D03*
%TD*%
D22*
%TO.C,C3*%
X135255000Y-77697500D03*
X135255000Y-78512500D03*
%TD*%
D23*
%TO.C,R6*%
X173990000Y-112672500D03*
X173990000Y-110847500D03*
%TD*%
D24*
%TO.C,C2*%
X133985000Y-77877500D03*
X133985000Y-79602500D03*
%TD*%
D25*
%TO.C,D3*%
X149262499Y-73995001D03*
X149262499Y-70635001D03*
%TD*%
D26*
%TO.C,U3*%
X135255000Y-95250000D03*
X135255000Y-97150000D03*
X138255000Y-96200000D03*
%TD*%
D27*
%TO.C,R5*%
X132080000Y-75835000D03*
X132080000Y-77835000D03*
%TD*%
D28*
%TO.C,D2*%
X135665000Y-69215000D03*
X132305000Y-69215000D03*
%TD*%
D29*
%TO.C,C18*%
X162560000Y-114300000D03*
X163695000Y-114300000D03*
%TD*%
D21*
%TO.C,R4*%
X130175000Y-74332500D03*
X130175000Y-75527500D03*
%TD*%
D15*
%TO.C,R8*%
X132437500Y-85120000D03*
X134262500Y-85120000D03*
%TD*%
D30*
%TO.C,U2*%
X132065000Y-93025000D03*
X132065000Y-92075000D03*
X132065000Y-91125000D03*
X129555000Y-91125000D03*
X129555000Y-93025000D03*
%TD*%
D31*
%TO.C,C21*%
X143690000Y-71120000D03*
X142875000Y-71120000D03*
%TD*%
D32*
%TO.C,C19*%
X132715000Y-81687500D03*
X132715000Y-80872500D03*
%TD*%
D11*
%TO.C,R13*%
X146049999Y-72950001D03*
X144854999Y-72950001D03*
%TD*%
D13*
%TO.C,C17*%
X152807500Y-113855000D03*
X154532500Y-113855000D03*
%TD*%
D22*
%TO.C,C8*%
X135255000Y-75792500D03*
X135255000Y-76607500D03*
%TD*%
D33*
%TO.C,U1*%
X138391299Y-74219999D03*
X138391299Y-74870000D03*
X138391299Y-75519998D03*
X138391299Y-76170000D03*
X138391299Y-76819998D03*
X138391299Y-77469997D03*
X138391299Y-78119998D03*
X138391299Y-78769997D03*
X138391299Y-79419998D03*
X138391299Y-80069997D03*
X144182499Y-80069999D03*
X144182499Y-79420001D03*
X144182499Y-78770000D03*
X144182499Y-78120001D03*
X144182499Y-77470000D03*
X144182499Y-76820001D03*
X144182499Y-76170000D03*
X144182499Y-75520001D03*
X144182499Y-74870000D03*
X144182499Y-74220001D03*
D34*
X141286899Y-77144999D03*
%TD*%
D35*
%TO.C,J4*%
X163830000Y-125730000D03*
%TD*%
%TO.C,J5*%
X159385000Y-125730000D03*
%TD*%
D36*
%TO.C,J19*%
X150495000Y-122152500D03*
D37*
X150495000Y-119612500D03*
X150495000Y-117072500D03*
%TD*%
D38*
%TO.C,S1*%
X124847500Y-71755000D03*
D39*
X124847500Y-76455000D03*
X124847500Y-81155000D03*
%TD*%
D36*
%TO.C,J24*%
X127635000Y-122152500D03*
D37*
X127635000Y-119612500D03*
X127635000Y-117072500D03*
%TD*%
D36*
%TO.C,J14*%
X172720000Y-122152500D03*
D37*
X172720000Y-119612500D03*
X172720000Y-117072500D03*
%TD*%
D35*
%TO.C,J2*%
X172694600Y-125730000D03*
%TD*%
D36*
%TO.C,J22*%
X137160000Y-122152500D03*
D37*
X137160000Y-119612500D03*
X137160000Y-117072500D03*
%TD*%
D35*
%TO.C,J7*%
X150495000Y-125730000D03*
%TD*%
D36*
%TO.C,J25*%
X123190000Y-121962500D03*
D37*
X123190000Y-119422500D03*
X123190000Y-116882500D03*
%TD*%
D35*
%TO.C,J10*%
X132715000Y-125730000D03*
%TD*%
D36*
%TO.C,J21*%
X141605000Y-122152500D03*
D37*
X141605000Y-119612500D03*
X141605000Y-117072500D03*
%TD*%
D35*
%TO.C,J11*%
X137160000Y-125730000D03*
%TD*%
%TO.C,J9*%
X127635000Y-125730000D03*
%TD*%
D36*
%TO.C,J17*%
X159385000Y-122152500D03*
D37*
X159385000Y-119612500D03*
X159385000Y-117072500D03*
%TD*%
D36*
%TO.C,J15*%
X168275000Y-122152500D03*
D37*
X168275000Y-119612500D03*
X168275000Y-117072500D03*
%TD*%
D35*
%TO.C,J3*%
X168275000Y-125730000D03*
%TD*%
%TO.C,J13*%
X146050000Y-125730000D03*
%TD*%
D36*
%TO.C,J20*%
X146050000Y-122152500D03*
D37*
X146050000Y-119612500D03*
X146050000Y-117072500D03*
%TD*%
D35*
%TO.C,J8*%
X123190000Y-125730000D03*
%TD*%
%TO.C,J6*%
X154940000Y-125730000D03*
%TD*%
D36*
%TO.C,J23*%
X132715000Y-122152500D03*
D37*
X132715000Y-119612500D03*
X132715000Y-117072500D03*
%TD*%
D35*
%TO.C,J12*%
X141605000Y-125730000D03*
%TD*%
D40*
%TO.C,J1*%
X157905000Y-48895000D03*
D41*
X150705000Y-48895000D03*
%TD*%
D36*
%TO.C,J18*%
X154940000Y-122152500D03*
D37*
X154940000Y-119612500D03*
X154940000Y-117072500D03*
%TD*%
D36*
%TO.C,J16*%
X163830000Y-122152500D03*
D37*
X163830000Y-119612500D03*
X163830000Y-117072500D03*
%TD*%
M02*
