%TF.GenerationSoftware,KiCad,Pcbnew,10.0.0*%
%TF.CreationDate,2026-06-27T14:34:16-07:00*%
%TF.ProjectId,LM5116,4c4d3531-3136-42e6-9b69-6361645f7063,rev?*%
%TF.SameCoordinates,Original*%
%TF.FileFunction,Copper,L3,Inr*%
%TF.FilePolarity,Positive*%
%FSLAX46Y46*%
G04 Gerber Fmt 4.6, Leading zero omitted, Abs format (unit mm)*
G04 Created by KiCad (PCBNEW 10.0.0) date 2026-06-27 14:34:16*
%MOMM*%
%LPD*%
G01*
G04 APERTURE LIST*
%TA.AperFunction,ComponentPad*%
%ADD10C,1.524000*%
%TD*%
%TA.AperFunction,ComponentPad*%
%ADD11R,1.875000X1.875000*%
%TD*%
%TA.AperFunction,ComponentPad*%
%ADD12C,1.875000*%
%TD*%
%TA.AperFunction,ComponentPad*%
%ADD13R,2.775000X2.775000*%
%TD*%
%TA.AperFunction,ComponentPad*%
%ADD14C,2.775000*%
%TD*%
%TA.AperFunction,ComponentPad*%
%ADD15C,6.000000*%
%TD*%
%TA.AperFunction,ComponentPad*%
%ADD16R,6.000000X6.000000*%
%TD*%
%TA.AperFunction,ViaPad*%
%ADD17C,0.600000*%
%TD*%
%TA.AperFunction,ViaPad*%
%ADD18C,1.000000*%
%TD*%
G04 APERTURE END LIST*
D10*
%TO.N,/3*%
%TO.C,J4*%
X163830000Y-125730000D03*
%TD*%
%TO.N,/4*%
%TO.C,J5*%
X159385000Y-125730000D03*
%TD*%
D11*
%TO.N,/6*%
%TO.C,J19*%
X150495000Y-122152500D03*
D12*
%TO.N,/VOUT*%
X150495000Y-119612500D03*
%TO.N,GNDPWR*%
X150495000Y-117072500D03*
%TD*%
D13*
%TO.N,/EN*%
%TO.C,S1*%
X124847500Y-71755000D03*
D14*
%TO.N,Net-(R4-Pad2)*%
X124847500Y-76455000D03*
%TO.N,unconnected-(S1-Pad3)*%
X124847500Y-81155000D03*
%TD*%
D11*
%TO.N,/8*%
%TO.C,J24*%
X127635000Y-122152500D03*
D12*
%TO.N,/VOUT*%
X127635000Y-119612500D03*
%TO.N,GNDPWR*%
X127635000Y-117072500D03*
%TD*%
D11*
%TO.N,/1*%
%TO.C,J14*%
X172720000Y-122152500D03*
D12*
%TO.N,/VOUT*%
X172720000Y-119612500D03*
%TO.N,GNDPWR*%
X172720000Y-117072500D03*
%TD*%
D10*
%TO.N,/1*%
%TO.C,J2*%
X172694600Y-125730000D03*
%TD*%
D11*
%TO.N,/10*%
%TO.C,J22*%
X137160000Y-122152500D03*
D12*
%TO.N,/VOUT*%
X137160000Y-119612500D03*
%TO.N,GNDPWR*%
X137160000Y-117072500D03*
%TD*%
D10*
%TO.N,/6*%
%TO.C,J7*%
X150495000Y-125730000D03*
%TD*%
D11*
%TO.N,/7*%
%TO.C,J25*%
X123190000Y-121962500D03*
D12*
%TO.N,/VOUT*%
X123190000Y-119422500D03*
%TO.N,GNDPWR*%
X123190000Y-116882500D03*
%TD*%
D10*
%TO.N,/9*%
%TO.C,J10*%
X132715000Y-125730000D03*
%TD*%
D11*
%TO.N,/11*%
%TO.C,J21*%
X141605000Y-122152500D03*
D12*
%TO.N,/VOUT*%
X141605000Y-119612500D03*
%TO.N,GNDPWR*%
X141605000Y-117072500D03*
%TD*%
D10*
%TO.N,/10*%
%TO.C,J11*%
X137160000Y-125730000D03*
%TD*%
%TO.N,/8*%
%TO.C,J9*%
X127635000Y-125730000D03*
%TD*%
D11*
%TO.N,/4*%
%TO.C,J17*%
X159385000Y-122152500D03*
D12*
%TO.N,/VOUT*%
X159385000Y-119612500D03*
%TO.N,GNDPWR*%
X159385000Y-117072500D03*
%TD*%
D11*
%TO.N,/2*%
%TO.C,J15*%
X168275000Y-122152500D03*
D12*
%TO.N,/VOUT*%
X168275000Y-119612500D03*
%TO.N,GNDPWR*%
X168275000Y-117072500D03*
%TD*%
D10*
%TO.N,/2*%
%TO.C,J3*%
X168275000Y-125730000D03*
%TD*%
%TO.N,/12*%
%TO.C,J13*%
X146050000Y-125730000D03*
%TD*%
D11*
%TO.N,/12*%
%TO.C,J20*%
X146050000Y-122152500D03*
D12*
%TO.N,/VOUT*%
X146050000Y-119612500D03*
%TO.N,GNDPWR*%
X146050000Y-117072500D03*
%TD*%
D10*
%TO.N,/7*%
%TO.C,J8*%
X123190000Y-125730000D03*
%TD*%
%TO.N,/5*%
%TO.C,J6*%
X154940000Y-125730000D03*
%TD*%
D11*
%TO.N,/9*%
%TO.C,J23*%
X132715000Y-122152500D03*
D12*
%TO.N,/VOUT*%
X132715000Y-119612500D03*
%TO.N,GNDPWR*%
X132715000Y-117072500D03*
%TD*%
D10*
%TO.N,/11*%
%TO.C,J12*%
X141605000Y-125730000D03*
%TD*%
D15*
%TO.N,Net-(J1-NEG)*%
%TO.C,J1*%
X157905000Y-48895000D03*
D16*
%TO.N,Net-(J1-POS)*%
X150705000Y-48895000D03*
%TD*%
D11*
%TO.N,/5*%
%TO.C,J18*%
X154940000Y-122152500D03*
D12*
%TO.N,/VOUT*%
X154940000Y-119612500D03*
%TO.N,GNDPWR*%
X154940000Y-117072500D03*
%TD*%
D11*
%TO.N,/3*%
%TO.C,J16*%
X163830000Y-122152500D03*
D12*
%TO.N,/VOUT*%
X163830000Y-119612500D03*
%TO.N,GNDPWR*%
X163830000Y-117072500D03*
%TD*%
D17*
%TO.N,GND*%
X132486400Y-74269600D03*
%TO.N,GNDPWR*%
X141210699Y-74372401D03*
X141900000Y-84652400D03*
D18*
X154830000Y-97445000D03*
D17*
X164795200Y-113690400D03*
X141020800Y-69443600D03*
X168275000Y-115400000D03*
X128727200Y-113334800D03*
X162400000Y-61150000D03*
X141900000Y-84002400D03*
X163830000Y-115323800D03*
X140093099Y-74422000D03*
D18*
X154035000Y-100220000D03*
X129900000Y-98950000D03*
D17*
X164450000Y-61850000D03*
D18*
X129900000Y-99700000D03*
X137520000Y-100610000D03*
D17*
X163750000Y-61850000D03*
X150495000Y-115400000D03*
X142494000Y-74422000D03*
X167950000Y-61200000D03*
X139100000Y-83244000D03*
X167950000Y-59250000D03*
X172364400Y-115323800D03*
X141900000Y-83352400D03*
D18*
X155780000Y-91945000D03*
X154830000Y-91945000D03*
D17*
X139100000Y-85344000D03*
X141900000Y-85344000D03*
X141200000Y-85344000D03*
X166550000Y-61850000D03*
X136804400Y-115374600D03*
D18*
X155830000Y-97445000D03*
D17*
X140500000Y-85344000D03*
X139100000Y-83894000D03*
X172364400Y-112928400D03*
X162398000Y-61800000D03*
X133858000Y-92100400D03*
X165150000Y-61850000D03*
D18*
X125300000Y-99700000D03*
X154035000Y-101070000D03*
X149235000Y-101070000D03*
D17*
X139100000Y-84594000D03*
X141071600Y-113487200D03*
D18*
X125300000Y-98900000D03*
D17*
X167950000Y-61850000D03*
X141312299Y-79858801D03*
X139800000Y-85344000D03*
X140296299Y-79808001D03*
X167250000Y-61850000D03*
X154940000Y-115323800D03*
X162400000Y-60500000D03*
X132715000Y-115735000D03*
X162400000Y-59200000D03*
X162400000Y-59850000D03*
X167950000Y-59900000D03*
X121107200Y-116898600D03*
X155854400Y-113639600D03*
X167950000Y-60550000D03*
D18*
X141970000Y-101460000D03*
D17*
X139100000Y-82594000D03*
X127635000Y-115552400D03*
X146050000Y-115425400D03*
X141579600Y-71424800D03*
D18*
X137520000Y-101460000D03*
X149235000Y-100220000D03*
D17*
X141900000Y-82702400D03*
X165850000Y-61850000D03*
D18*
X141970000Y-100610000D03*
D17*
X163050000Y-61850000D03*
X141605000Y-115603200D03*
X141986000Y-80772000D03*
X159385000Y-115501600D03*
%TO.N,/VOUT*%
X133299200Y-84378800D03*
%TO.N,/SW*%
X150350000Y-85900000D03*
X151100000Y-85900000D03*
X152800000Y-83350000D03*
X157550000Y-78650000D03*
X148550000Y-68450000D03*
X154150000Y-87350000D03*
X149600000Y-85900000D03*
X152500000Y-85550000D03*
X151850000Y-85900000D03*
X154150000Y-85900000D03*
X157550000Y-76500000D03*
X155150000Y-79550000D03*
X156550000Y-79550000D03*
X147800000Y-69150000D03*
X151892000Y-70866000D03*
X157550000Y-75850000D03*
X152500000Y-71800000D03*
X154150000Y-83850000D03*
X154150000Y-85250000D03*
X154350000Y-72450000D03*
X154150000Y-86600000D03*
X152850000Y-84050000D03*
X157550000Y-77200000D03*
X151850000Y-71800000D03*
X151130000Y-70866000D03*
X157250000Y-79350000D03*
X153850000Y-71850000D03*
X152654000Y-70104000D03*
X153150000Y-71800000D03*
X155850000Y-79550000D03*
X147800000Y-68450000D03*
X151200000Y-71800000D03*
X154150000Y-84550000D03*
X154350000Y-73150000D03*
X152850000Y-84850000D03*
X154350000Y-73850000D03*
X148550000Y-69150000D03*
X152654000Y-70750000D03*
X157550000Y-77900000D03*
%TD*%
%TA.AperFunction,Conductor*%
%TO.N,GNDPWR*%
G36*
X174763170Y-44867768D02*
G01*
X174808925Y-44920572D01*
X174820131Y-44972083D01*
X174820131Y-113658410D01*
X174800446Y-113725449D01*
X174747642Y-113771204D01*
X174678484Y-113781148D01*
X174614928Y-113752123D01*
X174600281Y-113737078D01*
X174596879Y-113732933D01*
X174506272Y-113642326D01*
X174506268Y-113642323D01*
X174399733Y-113571138D01*
X174399724Y-113571133D01*
X174281344Y-113522099D01*
X174281338Y-113522097D01*
X174155671Y-113497100D01*
X174155669Y-113497100D01*
X174027531Y-113497100D01*
X174027529Y-113497100D01*
X173901861Y-113522097D01*
X173901855Y-113522099D01*
X173783475Y-113571133D01*
X173783466Y-113571138D01*
X173676931Y-113642323D01*
X173676927Y-113642326D01*
X173586326Y-113732927D01*
X173586323Y-113732931D01*
X173515138Y-113839466D01*
X173515133Y-113839475D01*
X173466099Y-113957855D01*
X173466097Y-113957861D01*
X173441100Y-114083528D01*
X173441100Y-114083531D01*
X173441100Y-114211669D01*
X173441100Y-114211671D01*
X173441099Y-114211671D01*
X173466097Y-114337338D01*
X173466099Y-114337344D01*
X173515133Y-114455724D01*
X173515138Y-114455733D01*
X173586323Y-114562268D01*
X173586326Y-114562272D01*
X173676927Y-114652873D01*
X173676931Y-114652876D01*
X173783466Y-114724061D01*
X173783472Y-114724064D01*
X173783473Y-114724065D01*
X173901856Y-114773101D01*
X173901860Y-114773101D01*
X173901861Y-114773102D01*
X174027528Y-114798100D01*
X174027531Y-114798100D01*
X174155671Y-114798100D01*
X174240215Y-114781282D01*
X174281344Y-114773101D01*
X174399727Y-114724065D01*
X174506269Y-114652876D01*
X174596876Y-114562269D01*
X174596879Y-114562263D01*
X174600276Y-114558126D01*
X174658021Y-114518791D01*
X174727866Y-114516919D01*
X174787635Y-114553105D01*
X174818352Y-114615860D01*
X174820131Y-114636789D01*
X174820131Y-127023083D01*
X174800446Y-127090122D01*
X174747642Y-127135877D01*
X174696131Y-127147083D01*
X173201710Y-127147083D01*
X173134671Y-127127398D01*
X173088916Y-127074594D01*
X173078972Y-127005436D01*
X173107997Y-126941880D01*
X173163392Y-126905152D01*
X173179229Y-126900006D01*
X173179232Y-126900005D01*
X173356294Y-126809787D01*
X173517064Y-126692981D01*
X173657581Y-126552464D01*
X173774387Y-126391694D01*
X173864605Y-126214632D01*
X173926013Y-126025636D01*
X173957100Y-125829361D01*
X173957100Y-125630639D01*
X173926013Y-125434364D01*
X173864605Y-125245368D01*
X173864605Y-125245367D01*
X173774386Y-125068305D01*
X173657581Y-124907536D01*
X173517064Y-124767019D01*
X173356294Y-124650213D01*
X173179232Y-124559994D01*
X173179229Y-124559993D01*
X172990237Y-124498587D01*
X172892098Y-124483043D01*
X172793961Y-124467500D01*
X172595239Y-124467500D01*
X172529814Y-124477862D01*
X172398962Y-124498587D01*
X172209970Y-124559993D01*
X172209967Y-124559994D01*
X172032905Y-124650213D01*
X171872133Y-124767021D01*
X171731621Y-124907533D01*
X171614813Y-125068305D01*
X171524594Y-125245367D01*
X171524593Y-125245370D01*
X171463187Y-125434362D01*
X171432100Y-125630639D01*
X171432100Y-125829360D01*
X171463187Y-126025637D01*
X171524593Y-126214629D01*
X171524594Y-126214632D01*
X171614813Y-126391694D01*
X171731619Y-126552464D01*
X171872136Y-126692981D01*
X172032906Y-126809787D01*
X172119749Y-126854035D01*
X172209967Y-126900005D01*
X172209970Y-126900006D01*
X172225808Y-126905152D01*
X172283483Y-126944589D01*
X172310682Y-127008948D01*
X172298768Y-127077794D01*
X172251524Y-127129270D01*
X172187490Y-127147083D01*
X168782110Y-127147083D01*
X168715071Y-127127398D01*
X168669316Y-127074594D01*
X168659372Y-127005436D01*
X168688397Y-126941880D01*
X168743792Y-126905152D01*
X168759629Y-126900006D01*
X168759632Y-126900005D01*
X168936694Y-126809787D01*
X169097464Y-126692981D01*
X169237981Y-126552464D01*
X169354787Y-126391694D01*
X169445005Y-126214632D01*
X169506413Y-126025636D01*
X169537500Y-125829361D01*
X169537500Y-125630639D01*
X169506413Y-125434364D01*
X169445005Y-125245368D01*
X169445005Y-125245367D01*
X169354786Y-125068305D01*
X169237981Y-124907536D01*
X169097464Y-124767019D01*
X168936694Y-124650213D01*
X168759632Y-124559994D01*
X168759629Y-124559993D01*
X168570637Y-124498587D01*
X168472498Y-124483043D01*
X168374361Y-124467500D01*
X168175639Y-124467500D01*
X168110214Y-124477862D01*
X167979362Y-124498587D01*
X167790370Y-124559993D01*
X167790367Y-124559994D01*
X167613305Y-124650213D01*
X167452533Y-124767021D01*
X167312021Y-124907533D01*
X167195213Y-125068305D01*
X167104994Y-125245367D01*
X167104993Y-125245370D01*
X167043587Y-125434362D01*
X167012500Y-125630639D01*
X167012500Y-125829360D01*
X167043587Y-126025637D01*
X167104993Y-126214629D01*
X167104994Y-126214632D01*
X167195213Y-126391694D01*
X167312019Y-126552464D01*
X167452536Y-126692981D01*
X167613306Y-126809787D01*
X167700149Y-126854035D01*
X167790367Y-126900005D01*
X167790370Y-126900006D01*
X167806208Y-126905152D01*
X167863883Y-126944589D01*
X167891082Y-127008948D01*
X167879168Y-127077794D01*
X167831924Y-127129270D01*
X167767890Y-127147083D01*
X164337110Y-127147083D01*
X164270071Y-127127398D01*
X164224316Y-127074594D01*
X164214372Y-127005436D01*
X164243397Y-126941880D01*
X164298792Y-126905152D01*
X164314629Y-126900006D01*
X164314632Y-126900005D01*
X164491694Y-126809787D01*
X164652464Y-126692981D01*
X164792981Y-126552464D01*
X164909787Y-126391694D01*
X165000005Y-126214632D01*
X165061413Y-126025636D01*
X165092500Y-125829361D01*
X165092500Y-125630639D01*
X165061413Y-125434364D01*
X165000005Y-125245368D01*
X165000005Y-125245367D01*
X164909786Y-125068305D01*
X164792981Y-124907536D01*
X164652464Y-124767019D01*
X164491694Y-124650213D01*
X164314632Y-124559994D01*
X164314629Y-124559993D01*
X164125637Y-124498587D01*
X164027498Y-124483043D01*
X163929361Y-124467500D01*
X163730639Y-124467500D01*
X163665214Y-124477862D01*
X163534362Y-124498587D01*
X163345370Y-124559993D01*
X163345367Y-124559994D01*
X163168305Y-124650213D01*
X163007533Y-124767021D01*
X162867021Y-124907533D01*
X162750213Y-125068305D01*
X162659994Y-125245367D01*
X162659993Y-125245370D01*
X162598587Y-125434362D01*
X162567500Y-125630639D01*
X162567500Y-125829360D01*
X162598587Y-126025637D01*
X162659993Y-126214629D01*
X162659994Y-126214632D01*
X162750213Y-126391694D01*
X162867019Y-126552464D01*
X163007536Y-126692981D01*
X163168306Y-126809787D01*
X163255149Y-126854035D01*
X163345367Y-126900005D01*
X163345370Y-126900006D01*
X163361208Y-126905152D01*
X163418883Y-126944589D01*
X163446082Y-127008948D01*
X163434168Y-127077794D01*
X163386924Y-127129270D01*
X163322890Y-127147083D01*
X159892110Y-127147083D01*
X159825071Y-127127398D01*
X159779316Y-127074594D01*
X159769372Y-127005436D01*
X159798397Y-126941880D01*
X159853792Y-126905152D01*
X159869629Y-126900006D01*
X159869632Y-126900005D01*
X160046694Y-126809787D01*
X160207464Y-126692981D01*
X160347981Y-126552464D01*
X160464787Y-126391694D01*
X160555005Y-126214632D01*
X160616413Y-126025636D01*
X160647500Y-125829361D01*
X160647500Y-125630639D01*
X160616413Y-125434364D01*
X160555005Y-125245368D01*
X160555005Y-125245367D01*
X160464786Y-125068305D01*
X160347981Y-124907536D01*
X160207464Y-124767019D01*
X160046694Y-124650213D01*
X159869632Y-124559994D01*
X159869629Y-124559993D01*
X159680637Y-124498587D01*
X159582498Y-124483043D01*
X159484361Y-124467500D01*
X159285639Y-124467500D01*
X159220214Y-124477862D01*
X159089362Y-124498587D01*
X158900370Y-124559993D01*
X158900367Y-124559994D01*
X158723305Y-124650213D01*
X158562533Y-124767021D01*
X158422021Y-124907533D01*
X158305213Y-125068305D01*
X158214994Y-125245367D01*
X158214993Y-125245370D01*
X158153587Y-125434362D01*
X158122500Y-125630639D01*
X158122500Y-125829360D01*
X158153587Y-126025637D01*
X158214993Y-126214629D01*
X158214994Y-126214632D01*
X158305213Y-126391694D01*
X158422019Y-126552464D01*
X158562536Y-126692981D01*
X158723306Y-126809787D01*
X158810149Y-126854035D01*
X158900367Y-126900005D01*
X158900370Y-126900006D01*
X158916208Y-126905152D01*
X158973883Y-126944589D01*
X159001082Y-127008948D01*
X158989168Y-127077794D01*
X158941924Y-127129270D01*
X158877890Y-127147083D01*
X155447110Y-127147083D01*
X155380071Y-127127398D01*
X155334316Y-127074594D01*
X155324372Y-127005436D01*
X155353397Y-126941880D01*
X155408792Y-126905152D01*
X155424629Y-126900006D01*
X155424632Y-126900005D01*
X155601694Y-126809787D01*
X155762464Y-126692981D01*
X155902981Y-126552464D01*
X156019787Y-126391694D01*
X156110005Y-126214632D01*
X156171413Y-126025636D01*
X156202500Y-125829361D01*
X156202500Y-125630639D01*
X156171413Y-125434364D01*
X156110005Y-125245368D01*
X156110005Y-125245367D01*
X156019786Y-125068305D01*
X155902981Y-124907536D01*
X155762464Y-124767019D01*
X155601694Y-124650213D01*
X155424632Y-124559994D01*
X155424629Y-124559993D01*
X155235637Y-124498587D01*
X155137498Y-124483043D01*
X155039361Y-124467500D01*
X154840639Y-124467500D01*
X154775214Y-124477862D01*
X154644362Y-124498587D01*
X154455370Y-124559993D01*
X154455367Y-124559994D01*
X154278305Y-124650213D01*
X154117533Y-124767021D01*
X153977021Y-124907533D01*
X153860213Y-125068305D01*
X153769994Y-125245367D01*
X153769993Y-125245370D01*
X153708587Y-125434362D01*
X153677500Y-125630639D01*
X153677500Y-125829360D01*
X153708587Y-126025637D01*
X153769993Y-126214629D01*
X153769994Y-126214632D01*
X153860213Y-126391694D01*
X153977019Y-126552464D01*
X154117536Y-126692981D01*
X154278306Y-126809787D01*
X154365149Y-126854035D01*
X154455367Y-126900005D01*
X154455370Y-126900006D01*
X154471208Y-126905152D01*
X154528883Y-126944589D01*
X154556082Y-127008948D01*
X154544168Y-127077794D01*
X154496924Y-127129270D01*
X154432890Y-127147083D01*
X151002110Y-127147083D01*
X150935071Y-127127398D01*
X150889316Y-127074594D01*
X150879372Y-127005436D01*
X150908397Y-126941880D01*
X150963792Y-126905152D01*
X150979629Y-126900006D01*
X150979632Y-126900005D01*
X151156694Y-126809787D01*
X151317464Y-126692981D01*
X151457981Y-126552464D01*
X151574787Y-126391694D01*
X151665005Y-126214632D01*
X151726413Y-126025636D01*
X151757500Y-125829361D01*
X151757500Y-125630639D01*
X151726413Y-125434364D01*
X151665005Y-125245368D01*
X151665005Y-125245367D01*
X151574786Y-125068305D01*
X151457981Y-124907536D01*
X151317464Y-124767019D01*
X151156694Y-124650213D01*
X150979632Y-124559994D01*
X150979629Y-124559993D01*
X150790637Y-124498587D01*
X150692498Y-124483043D01*
X150594361Y-124467500D01*
X150395639Y-124467500D01*
X150330214Y-124477862D01*
X150199362Y-124498587D01*
X150010370Y-124559993D01*
X150010367Y-124559994D01*
X149833305Y-124650213D01*
X149672533Y-124767021D01*
X149532021Y-124907533D01*
X149415213Y-125068305D01*
X149324994Y-125245367D01*
X149324993Y-125245370D01*
X149263587Y-125434362D01*
X149232500Y-125630639D01*
X149232500Y-125829360D01*
X149263587Y-126025637D01*
X149324993Y-126214629D01*
X149324994Y-126214632D01*
X149415213Y-126391694D01*
X149532019Y-126552464D01*
X149672536Y-126692981D01*
X149833306Y-126809787D01*
X149920149Y-126854035D01*
X150010367Y-126900005D01*
X150010370Y-126900006D01*
X150026208Y-126905152D01*
X150083883Y-126944589D01*
X150111082Y-127008948D01*
X150099168Y-127077794D01*
X150051924Y-127129270D01*
X149987890Y-127147083D01*
X146557110Y-127147083D01*
X146490071Y-127127398D01*
X146444316Y-127074594D01*
X146434372Y-127005436D01*
X146463397Y-126941880D01*
X146518792Y-126905152D01*
X146534629Y-126900006D01*
X146534632Y-126900005D01*
X146711694Y-126809787D01*
X146872464Y-126692981D01*
X147012981Y-126552464D01*
X147129787Y-126391694D01*
X147220005Y-126214632D01*
X147281413Y-126025636D01*
X147312500Y-125829361D01*
X147312500Y-125630639D01*
X147281413Y-125434364D01*
X147220005Y-125245368D01*
X147220005Y-125245367D01*
X147129786Y-125068305D01*
X147012981Y-124907536D01*
X146872464Y-124767019D01*
X146711694Y-124650213D01*
X146534632Y-124559994D01*
X146534629Y-124559993D01*
X146345637Y-124498587D01*
X146247498Y-124483043D01*
X146149361Y-124467500D01*
X145950639Y-124467500D01*
X145885214Y-124477862D01*
X145754362Y-124498587D01*
X145565370Y-124559993D01*
X145565367Y-124559994D01*
X145388305Y-124650213D01*
X145227533Y-124767021D01*
X145087021Y-124907533D01*
X144970213Y-125068305D01*
X144879994Y-125245367D01*
X144879993Y-125245370D01*
X144818587Y-125434362D01*
X144787500Y-125630639D01*
X144787500Y-125829360D01*
X144818587Y-126025637D01*
X144879993Y-126214629D01*
X144879994Y-126214632D01*
X144970213Y-126391694D01*
X145087019Y-126552464D01*
X145227536Y-126692981D01*
X145388306Y-126809787D01*
X145475149Y-126854035D01*
X145565367Y-126900005D01*
X145565370Y-126900006D01*
X145581208Y-126905152D01*
X145638883Y-126944589D01*
X145666082Y-127008948D01*
X145654168Y-127077794D01*
X145606924Y-127129270D01*
X145542890Y-127147083D01*
X142112110Y-127147083D01*
X142045071Y-127127398D01*
X141999316Y-127074594D01*
X141989372Y-127005436D01*
X142018397Y-126941880D01*
X142073792Y-126905152D01*
X142089629Y-126900006D01*
X142089632Y-126900005D01*
X142266694Y-126809787D01*
X142427464Y-126692981D01*
X142567981Y-126552464D01*
X142684787Y-126391694D01*
X142775005Y-126214632D01*
X142836413Y-126025636D01*
X142867500Y-125829361D01*
X142867500Y-125630639D01*
X142836413Y-125434364D01*
X142775005Y-125245368D01*
X142775005Y-125245367D01*
X142684786Y-125068305D01*
X142567981Y-124907536D01*
X142427464Y-124767019D01*
X142266694Y-124650213D01*
X142089632Y-124559994D01*
X142089629Y-124559993D01*
X141900637Y-124498587D01*
X141802498Y-124483043D01*
X141704361Y-124467500D01*
X141505639Y-124467500D01*
X141440214Y-124477862D01*
X141309362Y-124498587D01*
X141120370Y-124559993D01*
X141120367Y-124559994D01*
X140943305Y-124650213D01*
X140782533Y-124767021D01*
X140642021Y-124907533D01*
X140525213Y-125068305D01*
X140434994Y-125245367D01*
X140434993Y-125245370D01*
X140373587Y-125434362D01*
X140342500Y-125630639D01*
X140342500Y-125829360D01*
X140373587Y-126025637D01*
X140434993Y-126214629D01*
X140434994Y-126214632D01*
X140525213Y-126391694D01*
X140642019Y-126552464D01*
X140782536Y-126692981D01*
X140943306Y-126809787D01*
X141030149Y-126854035D01*
X141120367Y-126900005D01*
X141120370Y-126900006D01*
X141136208Y-126905152D01*
X141193883Y-126944589D01*
X141221082Y-127008948D01*
X141209168Y-127077794D01*
X141161924Y-127129270D01*
X141097890Y-127147083D01*
X137667110Y-127147083D01*
X137600071Y-127127398D01*
X137554316Y-127074594D01*
X137544372Y-127005436D01*
X137573397Y-126941880D01*
X137628792Y-126905152D01*
X137644629Y-126900006D01*
X137644632Y-126900005D01*
X137821694Y-126809787D01*
X137982464Y-126692981D01*
X138122981Y-126552464D01*
X138239787Y-126391694D01*
X138330005Y-126214632D01*
X138391413Y-126025636D01*
X138422500Y-125829361D01*
X138422500Y-125630639D01*
X138391413Y-125434364D01*
X138330005Y-125245368D01*
X138330005Y-125245367D01*
X138239786Y-125068305D01*
X138122981Y-124907536D01*
X137982464Y-124767019D01*
X137821694Y-124650213D01*
X137644632Y-124559994D01*
X137644629Y-124559993D01*
X137455637Y-124498587D01*
X137357498Y-124483043D01*
X137259361Y-124467500D01*
X137060639Y-124467500D01*
X136995214Y-124477862D01*
X136864362Y-124498587D01*
X136675370Y-124559993D01*
X136675367Y-124559994D01*
X136498305Y-124650213D01*
X136337533Y-124767021D01*
X136197021Y-124907533D01*
X136080213Y-125068305D01*
X135989994Y-125245367D01*
X135989993Y-125245370D01*
X135928587Y-125434362D01*
X135897500Y-125630639D01*
X135897500Y-125829360D01*
X135928587Y-126025637D01*
X135989993Y-126214629D01*
X135989994Y-126214632D01*
X136080213Y-126391694D01*
X136197019Y-126552464D01*
X136337536Y-126692981D01*
X136498306Y-126809787D01*
X136585149Y-126854035D01*
X136675367Y-126900005D01*
X136675370Y-126900006D01*
X136691208Y-126905152D01*
X136748883Y-126944589D01*
X136776082Y-127008948D01*
X136764168Y-127077794D01*
X136716924Y-127129270D01*
X136652890Y-127147083D01*
X133222110Y-127147083D01*
X133155071Y-127127398D01*
X133109316Y-127074594D01*
X133099372Y-127005436D01*
X133128397Y-126941880D01*
X133183792Y-126905152D01*
X133199629Y-126900006D01*
X133199632Y-126900005D01*
X133376694Y-126809787D01*
X133537464Y-126692981D01*
X133677981Y-126552464D01*
X133794787Y-126391694D01*
X133885005Y-126214632D01*
X133946413Y-126025636D01*
X133977500Y-125829361D01*
X133977500Y-125630639D01*
X133946413Y-125434364D01*
X133885005Y-125245368D01*
X133885005Y-125245367D01*
X133794786Y-125068305D01*
X133677981Y-124907536D01*
X133537464Y-124767019D01*
X133376694Y-124650213D01*
X133199632Y-124559994D01*
X133199629Y-124559993D01*
X133010637Y-124498587D01*
X132912498Y-124483043D01*
X132814361Y-124467500D01*
X132615639Y-124467500D01*
X132550214Y-124477862D01*
X132419362Y-124498587D01*
X132230370Y-124559993D01*
X132230367Y-124559994D01*
X132053305Y-124650213D01*
X131892533Y-124767021D01*
X131752021Y-124907533D01*
X131635213Y-125068305D01*
X131544994Y-125245367D01*
X131544993Y-125245370D01*
X131483587Y-125434362D01*
X131452500Y-125630639D01*
X131452500Y-125829360D01*
X131483587Y-126025637D01*
X131544993Y-126214629D01*
X131544994Y-126214632D01*
X131635213Y-126391694D01*
X131752019Y-126552464D01*
X131892536Y-126692981D01*
X132053306Y-126809787D01*
X132140149Y-126854035D01*
X132230367Y-126900005D01*
X132230370Y-126900006D01*
X132246208Y-126905152D01*
X132303883Y-126944589D01*
X132331082Y-127008948D01*
X132319168Y-127077794D01*
X132271924Y-127129270D01*
X132207890Y-127147083D01*
X128142110Y-127147083D01*
X128075071Y-127127398D01*
X128029316Y-127074594D01*
X128019372Y-127005436D01*
X128048397Y-126941880D01*
X128103792Y-126905152D01*
X128119629Y-126900006D01*
X128119632Y-126900005D01*
X128296694Y-126809787D01*
X128457464Y-126692981D01*
X128597981Y-126552464D01*
X128714787Y-126391694D01*
X128805005Y-126214632D01*
X128866413Y-126025636D01*
X128897500Y-125829361D01*
X128897500Y-125630639D01*
X128866413Y-125434364D01*
X128805005Y-125245368D01*
X128805005Y-125245367D01*
X128714786Y-125068305D01*
X128597981Y-124907536D01*
X128457464Y-124767019D01*
X128296694Y-124650213D01*
X128119632Y-124559994D01*
X128119629Y-124559993D01*
X127930637Y-124498587D01*
X127832498Y-124483043D01*
X127734361Y-124467500D01*
X127535639Y-124467500D01*
X127470214Y-124477862D01*
X127339362Y-124498587D01*
X127150370Y-124559993D01*
X127150367Y-124559994D01*
X126973305Y-124650213D01*
X126812533Y-124767021D01*
X126672021Y-124907533D01*
X126555213Y-125068305D01*
X126464994Y-125245367D01*
X126464993Y-125245370D01*
X126403587Y-125434362D01*
X126372500Y-125630639D01*
X126372500Y-125829360D01*
X126403587Y-126025637D01*
X126464993Y-126214629D01*
X126464994Y-126214632D01*
X126555213Y-126391694D01*
X126672019Y-126552464D01*
X126812536Y-126692981D01*
X126973306Y-126809787D01*
X127060149Y-126854035D01*
X127150367Y-126900005D01*
X127150370Y-126900006D01*
X127166208Y-126905152D01*
X127223883Y-126944589D01*
X127251082Y-127008948D01*
X127239168Y-127077794D01*
X127191924Y-127129270D01*
X127127890Y-127147083D01*
X123697110Y-127147083D01*
X123630071Y-127127398D01*
X123584316Y-127074594D01*
X123574372Y-127005436D01*
X123603397Y-126941880D01*
X123658792Y-126905152D01*
X123674629Y-126900006D01*
X123674632Y-126900005D01*
X123851694Y-126809787D01*
X124012464Y-126692981D01*
X124152981Y-126552464D01*
X124269787Y-126391694D01*
X124360005Y-126214632D01*
X124421413Y-126025636D01*
X124452500Y-125829361D01*
X124452500Y-125630639D01*
X124421413Y-125434364D01*
X124360005Y-125245368D01*
X124360005Y-125245367D01*
X124269786Y-125068305D01*
X124152981Y-124907536D01*
X124012464Y-124767019D01*
X123851694Y-124650213D01*
X123674632Y-124559994D01*
X123674629Y-124559993D01*
X123485637Y-124498587D01*
X123387498Y-124483043D01*
X123289361Y-124467500D01*
X123090639Y-124467500D01*
X123025214Y-124477862D01*
X122894362Y-124498587D01*
X122705370Y-124559993D01*
X122705367Y-124559994D01*
X122528305Y-124650213D01*
X122367533Y-124767021D01*
X122227021Y-124907533D01*
X122110213Y-125068305D01*
X122019994Y-125245367D01*
X122019993Y-125245370D01*
X121958587Y-125434362D01*
X121927500Y-125630639D01*
X121927500Y-125829360D01*
X121958587Y-126025637D01*
X122019993Y-126214629D01*
X122019994Y-126214632D01*
X122110213Y-126391694D01*
X122227019Y-126552464D01*
X122367536Y-126692981D01*
X122528306Y-126809787D01*
X122615149Y-126854035D01*
X122705367Y-126900005D01*
X122705370Y-126900006D01*
X122721208Y-126905152D01*
X122778883Y-126944589D01*
X122806082Y-127008948D01*
X122794168Y-127077794D01*
X122746924Y-127129270D01*
X122682890Y-127147083D01*
X117445131Y-127147083D01*
X117378092Y-127127398D01*
X117332337Y-127074594D01*
X117321131Y-127023083D01*
X117321131Y-119309321D01*
X121752000Y-119309321D01*
X121752000Y-119535678D01*
X121787407Y-119759233D01*
X121857354Y-119974505D01*
X121954163Y-120164501D01*
X121960112Y-120176176D01*
X122093155Y-120359294D01*
X122093157Y-120359296D01*
X122095802Y-120361941D01*
X122129287Y-120423264D01*
X122124303Y-120492956D01*
X122082431Y-120548889D01*
X122051457Y-120565803D01*
X122010172Y-120581202D01*
X122010164Y-120581206D01*
X121894955Y-120667452D01*
X121894952Y-120667455D01*
X121808706Y-120782664D01*
X121808702Y-120782671D01*
X121758408Y-120917517D01*
X121752480Y-120972664D01*
X121752001Y-120977123D01*
X121752000Y-120977135D01*
X121752000Y-122947870D01*
X121752001Y-122947876D01*
X121758408Y-123007483D01*
X121808702Y-123142328D01*
X121808706Y-123142335D01*
X121894952Y-123257544D01*
X121894955Y-123257547D01*
X122010164Y-123343793D01*
X122010171Y-123343797D01*
X122145017Y-123394091D01*
X122145016Y-123394091D01*
X122151944Y-123394835D01*
X122204627Y-123400500D01*
X124175372Y-123400499D01*
X124234983Y-123394091D01*
X124369831Y-123343796D01*
X124485046Y-123257546D01*
X124571296Y-123142331D01*
X124621591Y-123007483D01*
X124628000Y-122947873D01*
X124627999Y-120977128D01*
X124621591Y-120917517D01*
X124599189Y-120857455D01*
X124571297Y-120782671D01*
X124571293Y-120782664D01*
X124485047Y-120667455D01*
X124485044Y-120667452D01*
X124369835Y-120581206D01*
X124369825Y-120581201D01*
X124328543Y-120565803D01*
X124272610Y-120523931D01*
X124248194Y-120458467D01*
X124263046Y-120390194D01*
X124284201Y-120361937D01*
X124286845Y-120359294D01*
X124419888Y-120176176D01*
X124522647Y-119974501D01*
X124592592Y-119759233D01*
X124597907Y-119725673D01*
X124628000Y-119535678D01*
X124628000Y-119499321D01*
X126197000Y-119499321D01*
X126197000Y-119725678D01*
X126232407Y-119949233D01*
X126302354Y-120164505D01*
X126401605Y-120359294D01*
X126405112Y-120366176D01*
X126538155Y-120549294D01*
X126538157Y-120549296D01*
X126540802Y-120551941D01*
X126574287Y-120613264D01*
X126569303Y-120682956D01*
X126527431Y-120738889D01*
X126496457Y-120755803D01*
X126455172Y-120771202D01*
X126455164Y-120771206D01*
X126339955Y-120857452D01*
X126339952Y-120857455D01*
X126253706Y-120972664D01*
X126253702Y-120972671D01*
X126203408Y-121107517D01*
X126197001Y-121167116D01*
X126197001Y-121167123D01*
X126197000Y-121167135D01*
X126197000Y-123137870D01*
X126197001Y-123137876D01*
X126203408Y-123197483D01*
X126253702Y-123332328D01*
X126253706Y-123332335D01*
X126339952Y-123447544D01*
X126339955Y-123447547D01*
X126455164Y-123533793D01*
X126455171Y-123533797D01*
X126590017Y-123584091D01*
X126590016Y-123584091D01*
X126596944Y-123584835D01*
X126649627Y-123590500D01*
X128620372Y-123590499D01*
X128679983Y-123584091D01*
X128814831Y-123533796D01*
X128930046Y-123447546D01*
X129016296Y-123332331D01*
X129066591Y-123197483D01*
X129073000Y-123137873D01*
X129072999Y-121167128D01*
X129066591Y-121107517D01*
X129017959Y-120977129D01*
X129016297Y-120972671D01*
X129016293Y-120972664D01*
X128930047Y-120857455D01*
X128930044Y-120857452D01*
X128814835Y-120771206D01*
X128814825Y-120771201D01*
X128773543Y-120755803D01*
X128717610Y-120713931D01*
X128693194Y-120648467D01*
X128708046Y-120580194D01*
X128729201Y-120551937D01*
X128731845Y-120549294D01*
X128864888Y-120366176D01*
X128967647Y-120164501D01*
X129037592Y-119949233D01*
X129067685Y-119759233D01*
X129073000Y-119725678D01*
X129073000Y-119499321D01*
X131277000Y-119499321D01*
X131277000Y-119725678D01*
X131312407Y-119949233D01*
X131382354Y-120164505D01*
X131481605Y-120359294D01*
X131485112Y-120366176D01*
X131618155Y-120549294D01*
X131618157Y-120549296D01*
X131620802Y-120551941D01*
X131654287Y-120613264D01*
X131649303Y-120682956D01*
X131607431Y-120738889D01*
X131576457Y-120755803D01*
X131535172Y-120771202D01*
X131535164Y-120771206D01*
X131419955Y-120857452D01*
X131419952Y-120857455D01*
X131333706Y-120972664D01*
X131333702Y-120972671D01*
X131283408Y-121107517D01*
X131277001Y-121167116D01*
X131277001Y-121167123D01*
X131277000Y-121167135D01*
X131277000Y-123137870D01*
X131277001Y-123137876D01*
X131283408Y-123197483D01*
X131333702Y-123332328D01*
X131333706Y-123332335D01*
X131419952Y-123447544D01*
X131419955Y-123447547D01*
X131535164Y-123533793D01*
X131535171Y-123533797D01*
X131670017Y-123584091D01*
X131670016Y-123584091D01*
X131676944Y-123584835D01*
X131729627Y-123590500D01*
X133700372Y-123590499D01*
X133759983Y-123584091D01*
X133894831Y-123533796D01*
X134010046Y-123447546D01*
X134096296Y-123332331D01*
X134146591Y-123197483D01*
X134153000Y-123137873D01*
X134152999Y-121167128D01*
X134146591Y-121107517D01*
X134097959Y-120977129D01*
X134096297Y-120972671D01*
X134096293Y-120972664D01*
X134010047Y-120857455D01*
X134010044Y-120857452D01*
X133894835Y-120771206D01*
X133894825Y-120771201D01*
X133853543Y-120755803D01*
X133797610Y-120713931D01*
X133773194Y-120648467D01*
X133788046Y-120580194D01*
X133809201Y-120551937D01*
X133811845Y-120549294D01*
X133944888Y-120366176D01*
X134047647Y-120164501D01*
X134117592Y-119949233D01*
X134147685Y-119759233D01*
X134153000Y-119725678D01*
X134153000Y-119499321D01*
X135722000Y-119499321D01*
X135722000Y-119725678D01*
X135757407Y-119949233D01*
X135827354Y-120164505D01*
X135926605Y-120359294D01*
X135930112Y-120366176D01*
X136063155Y-120549294D01*
X136063157Y-120549296D01*
X136065802Y-120551941D01*
X136099287Y-120613264D01*
X136094303Y-120682956D01*
X136052431Y-120738889D01*
X136021457Y-120755803D01*
X135980172Y-120771202D01*
X135980164Y-120771206D01*
X135864955Y-120857452D01*
X135864952Y-120857455D01*
X135778706Y-120972664D01*
X135778702Y-120972671D01*
X135728408Y-121107517D01*
X135722001Y-121167116D01*
X135722001Y-121167123D01*
X135722000Y-121167135D01*
X135722000Y-123137870D01*
X135722001Y-123137876D01*
X135728408Y-123197483D01*
X135778702Y-123332328D01*
X135778706Y-123332335D01*
X135864952Y-123447544D01*
X135864955Y-123447547D01*
X135980164Y-123533793D01*
X135980171Y-123533797D01*
X136115017Y-123584091D01*
X136115016Y-123584091D01*
X136121944Y-123584835D01*
X136174627Y-123590500D01*
X138145372Y-123590499D01*
X138204983Y-123584091D01*
X138339831Y-123533796D01*
X138455046Y-123447546D01*
X138541296Y-123332331D01*
X138591591Y-123197483D01*
X138598000Y-123137873D01*
X138597999Y-121167128D01*
X138591591Y-121107517D01*
X138542959Y-120977129D01*
X138541297Y-120972671D01*
X138541293Y-120972664D01*
X138455047Y-120857455D01*
X138455044Y-120857452D01*
X138339835Y-120771206D01*
X138339825Y-120771201D01*
X138298543Y-120755803D01*
X138242610Y-120713931D01*
X138218194Y-120648467D01*
X138233046Y-120580194D01*
X138254201Y-120551937D01*
X138256845Y-120549294D01*
X138389888Y-120366176D01*
X138492647Y-120164501D01*
X138562592Y-119949233D01*
X138592685Y-119759233D01*
X138598000Y-119725678D01*
X138598000Y-119499321D01*
X140167000Y-119499321D01*
X140167000Y-119725678D01*
X140202407Y-119949233D01*
X140272354Y-120164505D01*
X140371605Y-120359294D01*
X140375112Y-120366176D01*
X140508155Y-120549294D01*
X140508157Y-120549296D01*
X140510802Y-120551941D01*
X140544287Y-120613264D01*
X140539303Y-120682956D01*
X140497431Y-120738889D01*
X140466457Y-120755803D01*
X140425172Y-120771202D01*
X140425164Y-120771206D01*
X140309955Y-120857452D01*
X140309952Y-120857455D01*
X140223706Y-120972664D01*
X140223702Y-120972671D01*
X140173408Y-121107517D01*
X140167001Y-121167116D01*
X140167001Y-121167123D01*
X140167000Y-121167135D01*
X140167000Y-123137870D01*
X140167001Y-123137876D01*
X140173408Y-123197483D01*
X140223702Y-123332328D01*
X140223706Y-123332335D01*
X140309952Y-123447544D01*
X140309955Y-123447547D01*
X140425164Y-123533793D01*
X140425171Y-123533797D01*
X140560017Y-123584091D01*
X140560016Y-123584091D01*
X140566944Y-123584835D01*
X140619627Y-123590500D01*
X142590372Y-123590499D01*
X142649983Y-123584091D01*
X142784831Y-123533796D01*
X142900046Y-123447546D01*
X142986296Y-123332331D01*
X143036591Y-123197483D01*
X143043000Y-123137873D01*
X143042999Y-121167128D01*
X143036591Y-121107517D01*
X142987959Y-120977129D01*
X142986297Y-120972671D01*
X142986293Y-120972664D01*
X142900047Y-120857455D01*
X142900044Y-120857452D01*
X142784835Y-120771206D01*
X142784825Y-120771201D01*
X142743543Y-120755803D01*
X142687610Y-120713931D01*
X142663194Y-120648467D01*
X142678046Y-120580194D01*
X142699201Y-120551937D01*
X142701845Y-120549294D01*
X142834888Y-120366176D01*
X142937647Y-120164501D01*
X143007592Y-119949233D01*
X143037685Y-119759233D01*
X143043000Y-119725678D01*
X143043000Y-119499321D01*
X144612000Y-119499321D01*
X144612000Y-119725678D01*
X144647407Y-119949233D01*
X144717354Y-120164505D01*
X144816605Y-120359294D01*
X144820112Y-120366176D01*
X144953155Y-120549294D01*
X144953157Y-120549296D01*
X144955802Y-120551941D01*
X144989287Y-120613264D01*
X144984303Y-120682956D01*
X144942431Y-120738889D01*
X144911457Y-120755803D01*
X144870172Y-120771202D01*
X144870164Y-120771206D01*
X144754955Y-120857452D01*
X144754952Y-120857455D01*
X144668706Y-120972664D01*
X144668702Y-120972671D01*
X144618408Y-121107517D01*
X144612001Y-121167116D01*
X144612001Y-121167123D01*
X144612000Y-121167135D01*
X144612000Y-123137870D01*
X144612001Y-123137876D01*
X144618408Y-123197483D01*
X144668702Y-123332328D01*
X144668706Y-123332335D01*
X144754952Y-123447544D01*
X144754955Y-123447547D01*
X144870164Y-123533793D01*
X144870171Y-123533797D01*
X145005017Y-123584091D01*
X145005016Y-123584091D01*
X145011944Y-123584835D01*
X145064627Y-123590500D01*
X147035372Y-123590499D01*
X147094983Y-123584091D01*
X147229831Y-123533796D01*
X147345046Y-123447546D01*
X147431296Y-123332331D01*
X147481591Y-123197483D01*
X147488000Y-123137873D01*
X147487999Y-121167128D01*
X147481591Y-121107517D01*
X147432959Y-120977129D01*
X147431297Y-120972671D01*
X147431293Y-120972664D01*
X147345047Y-120857455D01*
X147345044Y-120857452D01*
X147229835Y-120771206D01*
X147229825Y-120771201D01*
X147188543Y-120755803D01*
X147132610Y-120713931D01*
X147108194Y-120648467D01*
X147123046Y-120580194D01*
X147144201Y-120551937D01*
X147146845Y-120549294D01*
X147279888Y-120366176D01*
X147382647Y-120164501D01*
X147452592Y-119949233D01*
X147482685Y-119759233D01*
X147488000Y-119725678D01*
X147488000Y-119499321D01*
X149057000Y-119499321D01*
X149057000Y-119725678D01*
X149092407Y-119949233D01*
X149162354Y-120164505D01*
X149261605Y-120359294D01*
X149265112Y-120366176D01*
X149398155Y-120549294D01*
X149398157Y-120549296D01*
X149400802Y-120551941D01*
X149434287Y-120613264D01*
X149429303Y-120682956D01*
X149387431Y-120738889D01*
X149356457Y-120755803D01*
X149315172Y-120771202D01*
X149315164Y-120771206D01*
X149199955Y-120857452D01*
X149199952Y-120857455D01*
X149113706Y-120972664D01*
X149113702Y-120972671D01*
X149063408Y-121107517D01*
X149057001Y-121167116D01*
X149057001Y-121167123D01*
X149057000Y-121167135D01*
X149057000Y-123137870D01*
X149057001Y-123137876D01*
X149063408Y-123197483D01*
X149113702Y-123332328D01*
X149113706Y-123332335D01*
X149199952Y-123447544D01*
X149199955Y-123447547D01*
X149315164Y-123533793D01*
X149315171Y-123533797D01*
X149450017Y-123584091D01*
X149450016Y-123584091D01*
X149456944Y-123584835D01*
X149509627Y-123590500D01*
X151480372Y-123590499D01*
X151539983Y-123584091D01*
X151674831Y-123533796D01*
X151790046Y-123447546D01*
X151876296Y-123332331D01*
X151926591Y-123197483D01*
X151933000Y-123137873D01*
X151932999Y-121167128D01*
X151926591Y-121107517D01*
X151877959Y-120977129D01*
X151876297Y-120972671D01*
X151876293Y-120972664D01*
X151790047Y-120857455D01*
X151790044Y-120857452D01*
X151674835Y-120771206D01*
X151674825Y-120771201D01*
X151633543Y-120755803D01*
X151577610Y-120713931D01*
X151553194Y-120648467D01*
X151568046Y-120580194D01*
X151589201Y-120551937D01*
X151591845Y-120549294D01*
X151724888Y-120366176D01*
X151827647Y-120164501D01*
X151897592Y-119949233D01*
X151927685Y-119759233D01*
X151933000Y-119725678D01*
X151933000Y-119499321D01*
X153502000Y-119499321D01*
X153502000Y-119725678D01*
X153537407Y-119949233D01*
X153607354Y-120164505D01*
X153706605Y-120359294D01*
X153710112Y-120366176D01*
X153843155Y-120549294D01*
X153843157Y-120549296D01*
X153845802Y-120551941D01*
X153879287Y-120613264D01*
X153874303Y-120682956D01*
X153832431Y-120738889D01*
X153801457Y-120755803D01*
X153760172Y-120771202D01*
X153760164Y-120771206D01*
X153644955Y-120857452D01*
X153644952Y-120857455D01*
X153558706Y-120972664D01*
X153558702Y-120972671D01*
X153508408Y-121107517D01*
X153502001Y-121167116D01*
X153502001Y-121167123D01*
X153502000Y-121167135D01*
X153502000Y-123137870D01*
X153502001Y-123137876D01*
X153508408Y-123197483D01*
X153558702Y-123332328D01*
X153558706Y-123332335D01*
X153644952Y-123447544D01*
X153644955Y-123447547D01*
X153760164Y-123533793D01*
X153760171Y-123533797D01*
X153895017Y-123584091D01*
X153895016Y-123584091D01*
X153901944Y-123584835D01*
X153954627Y-123590500D01*
X155925372Y-123590499D01*
X155984983Y-123584091D01*
X156119831Y-123533796D01*
X156235046Y-123447546D01*
X156321296Y-123332331D01*
X156371591Y-123197483D01*
X156378000Y-123137873D01*
X156377999Y-121167128D01*
X156371591Y-121107517D01*
X156322959Y-120977129D01*
X156321297Y-120972671D01*
X156321293Y-120972664D01*
X156235047Y-120857455D01*
X156235044Y-120857452D01*
X156119835Y-120771206D01*
X156119825Y-120771201D01*
X156078543Y-120755803D01*
X156022610Y-120713931D01*
X155998194Y-120648467D01*
X156013046Y-120580194D01*
X156034201Y-120551937D01*
X156036845Y-120549294D01*
X156169888Y-120366176D01*
X156272647Y-120164501D01*
X156342592Y-119949233D01*
X156372685Y-119759233D01*
X156378000Y-119725678D01*
X156378000Y-119499321D01*
X157947000Y-119499321D01*
X157947000Y-119725678D01*
X157982407Y-119949233D01*
X158052354Y-120164505D01*
X158151605Y-120359294D01*
X158155112Y-120366176D01*
X158288155Y-120549294D01*
X158288157Y-120549296D01*
X158290802Y-120551941D01*
X158324287Y-120613264D01*
X158319303Y-120682956D01*
X158277431Y-120738889D01*
X158246457Y-120755803D01*
X158205172Y-120771202D01*
X158205164Y-120771206D01*
X158089955Y-120857452D01*
X158089952Y-120857455D01*
X158003706Y-120972664D01*
X158003702Y-120972671D01*
X157953408Y-121107517D01*
X157947001Y-121167116D01*
X157947001Y-121167123D01*
X157947000Y-121167135D01*
X157947000Y-123137870D01*
X157947001Y-123137876D01*
X157953408Y-123197483D01*
X158003702Y-123332328D01*
X158003706Y-123332335D01*
X158089952Y-123447544D01*
X158089955Y-123447547D01*
X158205164Y-123533793D01*
X158205171Y-123533797D01*
X158340017Y-123584091D01*
X158340016Y-123584091D01*
X158346944Y-123584835D01*
X158399627Y-123590500D01*
X160370372Y-123590499D01*
X160429983Y-123584091D01*
X160564831Y-123533796D01*
X160680046Y-123447546D01*
X160766296Y-123332331D01*
X160816591Y-123197483D01*
X160823000Y-123137873D01*
X160822999Y-121167128D01*
X160816591Y-121107517D01*
X160767959Y-120977129D01*
X160766297Y-120972671D01*
X160766293Y-120972664D01*
X160680047Y-120857455D01*
X160680044Y-120857452D01*
X160564835Y-120771206D01*
X160564825Y-120771201D01*
X160523543Y-120755803D01*
X160467610Y-120713931D01*
X160443194Y-120648467D01*
X160458046Y-120580194D01*
X160479201Y-120551937D01*
X160481845Y-120549294D01*
X160614888Y-120366176D01*
X160717647Y-120164501D01*
X160787592Y-119949233D01*
X160817685Y-119759233D01*
X160823000Y-119725678D01*
X160823000Y-119499321D01*
X162392000Y-119499321D01*
X162392000Y-119725678D01*
X162427407Y-119949233D01*
X162497354Y-120164505D01*
X162596605Y-120359294D01*
X162600112Y-120366176D01*
X162733155Y-120549294D01*
X162733157Y-120549296D01*
X162735802Y-120551941D01*
X162769287Y-120613264D01*
X162764303Y-120682956D01*
X162722431Y-120738889D01*
X162691457Y-120755803D01*
X162650172Y-120771202D01*
X162650164Y-120771206D01*
X162534955Y-120857452D01*
X162534952Y-120857455D01*
X162448706Y-120972664D01*
X162448702Y-120972671D01*
X162398408Y-121107517D01*
X162392001Y-121167116D01*
X162392001Y-121167123D01*
X162392000Y-121167135D01*
X162392000Y-123137870D01*
X162392001Y-123137876D01*
X162398408Y-123197483D01*
X162448702Y-123332328D01*
X162448706Y-123332335D01*
X162534952Y-123447544D01*
X162534955Y-123447547D01*
X162650164Y-123533793D01*
X162650171Y-123533797D01*
X162785017Y-123584091D01*
X162785016Y-123584091D01*
X162791944Y-123584835D01*
X162844627Y-123590500D01*
X164815372Y-123590499D01*
X164874983Y-123584091D01*
X165009831Y-123533796D01*
X165125046Y-123447546D01*
X165211296Y-123332331D01*
X165261591Y-123197483D01*
X165268000Y-123137873D01*
X165267999Y-121167128D01*
X165261591Y-121107517D01*
X165212959Y-120977129D01*
X165211297Y-120972671D01*
X165211293Y-120972664D01*
X165125047Y-120857455D01*
X165125044Y-120857452D01*
X165009835Y-120771206D01*
X165009825Y-120771201D01*
X164968543Y-120755803D01*
X164912610Y-120713931D01*
X164888194Y-120648467D01*
X164903046Y-120580194D01*
X164924201Y-120551937D01*
X164926845Y-120549294D01*
X165059888Y-120366176D01*
X165162647Y-120164501D01*
X165232592Y-119949233D01*
X165262685Y-119759233D01*
X165268000Y-119725678D01*
X165268000Y-119499321D01*
X166837000Y-119499321D01*
X166837000Y-119725678D01*
X166872407Y-119949233D01*
X166942354Y-120164505D01*
X167041605Y-120359294D01*
X167045112Y-120366176D01*
X167178155Y-120549294D01*
X167178157Y-120549296D01*
X167180802Y-120551941D01*
X167214287Y-120613264D01*
X167209303Y-120682956D01*
X167167431Y-120738889D01*
X167136457Y-120755803D01*
X167095172Y-120771202D01*
X167095164Y-120771206D01*
X166979955Y-120857452D01*
X166979952Y-120857455D01*
X166893706Y-120972664D01*
X166893702Y-120972671D01*
X166843408Y-121107517D01*
X166837001Y-121167116D01*
X166837001Y-121167123D01*
X166837000Y-121167135D01*
X166837000Y-123137870D01*
X166837001Y-123137876D01*
X166843408Y-123197483D01*
X166893702Y-123332328D01*
X166893706Y-123332335D01*
X166979952Y-123447544D01*
X166979955Y-123447547D01*
X167095164Y-123533793D01*
X167095171Y-123533797D01*
X167230017Y-123584091D01*
X167230016Y-123584091D01*
X167236944Y-123584835D01*
X167289627Y-123590500D01*
X169260372Y-123590499D01*
X169319983Y-123584091D01*
X169454831Y-123533796D01*
X169570046Y-123447546D01*
X169656296Y-123332331D01*
X169706591Y-123197483D01*
X169713000Y-123137873D01*
X169712999Y-121167128D01*
X169706591Y-121107517D01*
X169657959Y-120977129D01*
X169656297Y-120972671D01*
X169656293Y-120972664D01*
X169570047Y-120857455D01*
X169570044Y-120857452D01*
X169454835Y-120771206D01*
X169454825Y-120771201D01*
X169413543Y-120755803D01*
X169357610Y-120713931D01*
X169333194Y-120648467D01*
X169348046Y-120580194D01*
X169369201Y-120551937D01*
X169371845Y-120549294D01*
X169504888Y-120366176D01*
X169607647Y-120164501D01*
X169677592Y-119949233D01*
X169707685Y-119759233D01*
X169713000Y-119725678D01*
X169713000Y-119499321D01*
X171282000Y-119499321D01*
X171282000Y-119725678D01*
X171317407Y-119949233D01*
X171387354Y-120164505D01*
X171486605Y-120359294D01*
X171490112Y-120366176D01*
X171623155Y-120549294D01*
X171623157Y-120549296D01*
X171625802Y-120551941D01*
X171659287Y-120613264D01*
X171654303Y-120682956D01*
X171612431Y-120738889D01*
X171581457Y-120755803D01*
X171540172Y-120771202D01*
X171540164Y-120771206D01*
X171424955Y-120857452D01*
X171424952Y-120857455D01*
X171338706Y-120972664D01*
X171338702Y-120972671D01*
X171288408Y-121107517D01*
X171282001Y-121167116D01*
X171282001Y-121167123D01*
X171282000Y-121167135D01*
X171282000Y-123137870D01*
X171282001Y-123137876D01*
X171288408Y-123197483D01*
X171338702Y-123332328D01*
X171338706Y-123332335D01*
X171424952Y-123447544D01*
X171424955Y-123447547D01*
X171540164Y-123533793D01*
X171540171Y-123533797D01*
X171675017Y-123584091D01*
X171675016Y-123584091D01*
X171681944Y-123584835D01*
X171734627Y-123590500D01*
X173705372Y-123590499D01*
X173764983Y-123584091D01*
X173899831Y-123533796D01*
X174015046Y-123447546D01*
X174101296Y-123332331D01*
X174151591Y-123197483D01*
X174158000Y-123137873D01*
X174157999Y-121167128D01*
X174151591Y-121107517D01*
X174102959Y-120977129D01*
X174101297Y-120972671D01*
X174101293Y-120972664D01*
X174015047Y-120857455D01*
X174015044Y-120857452D01*
X173899835Y-120771206D01*
X173899825Y-120771201D01*
X173858543Y-120755803D01*
X173802610Y-120713931D01*
X173778194Y-120648467D01*
X173793046Y-120580194D01*
X173814201Y-120551937D01*
X173816845Y-120549294D01*
X173949888Y-120366176D01*
X174052647Y-120164501D01*
X174122592Y-119949233D01*
X174152685Y-119759233D01*
X174158000Y-119725678D01*
X174158000Y-119499321D01*
X174122592Y-119275766D01*
X174060857Y-119085767D01*
X174052647Y-119060499D01*
X174052645Y-119060496D01*
X174052645Y-119060494D01*
X173998436Y-118954105D01*
X173949888Y-118858824D01*
X173816845Y-118675706D01*
X173656794Y-118515655D01*
X173473676Y-118382612D01*
X173272005Y-118279854D01*
X173056733Y-118209907D01*
X172833178Y-118174500D01*
X172833173Y-118174500D01*
X172606827Y-118174500D01*
X172606822Y-118174500D01*
X172383266Y-118209907D01*
X172167994Y-118279854D01*
X171966323Y-118382612D01*
X171783203Y-118515657D01*
X171623157Y-118675703D01*
X171490112Y-118858823D01*
X171387354Y-119060494D01*
X171317407Y-119275766D01*
X171282000Y-119499321D01*
X169713000Y-119499321D01*
X169677592Y-119275766D01*
X169615857Y-119085767D01*
X169607647Y-119060499D01*
X169607645Y-119060496D01*
X169607645Y-119060494D01*
X169553436Y-118954105D01*
X169504888Y-118858824D01*
X169371845Y-118675706D01*
X169211794Y-118515655D01*
X169028676Y-118382612D01*
X168827005Y-118279854D01*
X168611733Y-118209907D01*
X168388178Y-118174500D01*
X168388173Y-118174500D01*
X168161827Y-118174500D01*
X168161822Y-118174500D01*
X167938266Y-118209907D01*
X167722994Y-118279854D01*
X167521323Y-118382612D01*
X167338203Y-118515657D01*
X167178157Y-118675703D01*
X167045112Y-118858823D01*
X166942354Y-119060494D01*
X166872407Y-119275766D01*
X166837000Y-119499321D01*
X165268000Y-119499321D01*
X165232592Y-119275766D01*
X165170857Y-119085767D01*
X165162647Y-119060499D01*
X165162645Y-119060496D01*
X165162645Y-119060494D01*
X165108436Y-118954105D01*
X165059888Y-118858824D01*
X164926845Y-118675706D01*
X164766794Y-118515655D01*
X164583676Y-118382612D01*
X164382005Y-118279854D01*
X164166733Y-118209907D01*
X163943178Y-118174500D01*
X163943173Y-118174500D01*
X163716827Y-118174500D01*
X163716822Y-118174500D01*
X163493266Y-118209907D01*
X163277994Y-118279854D01*
X163076323Y-118382612D01*
X162893203Y-118515657D01*
X162733157Y-118675703D01*
X162600112Y-118858823D01*
X162497354Y-119060494D01*
X162427407Y-119275766D01*
X162392000Y-119499321D01*
X160823000Y-119499321D01*
X160787592Y-119275766D01*
X160725857Y-119085767D01*
X160717647Y-119060499D01*
X160717645Y-119060496D01*
X160717645Y-119060494D01*
X160663436Y-118954105D01*
X160614888Y-118858824D01*
X160481845Y-118675706D01*
X160321794Y-118515655D01*
X160138676Y-118382612D01*
X159937005Y-118279854D01*
X159721733Y-118209907D01*
X159498178Y-118174500D01*
X159498173Y-118174500D01*
X159271827Y-118174500D01*
X159271822Y-118174500D01*
X159048266Y-118209907D01*
X158832994Y-118279854D01*
X158631323Y-118382612D01*
X158448203Y-118515657D01*
X158288157Y-118675703D01*
X158155112Y-118858823D01*
X158052354Y-119060494D01*
X157982407Y-119275766D01*
X157947000Y-119499321D01*
X156378000Y-119499321D01*
X156342592Y-119275766D01*
X156280857Y-119085767D01*
X156272647Y-119060499D01*
X156272645Y-119060496D01*
X156272645Y-119060494D01*
X156218436Y-118954105D01*
X156169888Y-118858824D01*
X156036845Y-118675706D01*
X155876794Y-118515655D01*
X155693676Y-118382612D01*
X155492005Y-118279854D01*
X155276733Y-118209907D01*
X155053178Y-118174500D01*
X155053173Y-118174500D01*
X154826827Y-118174500D01*
X154826822Y-118174500D01*
X154603266Y-118209907D01*
X154387994Y-118279854D01*
X154186323Y-118382612D01*
X154003203Y-118515657D01*
X153843157Y-118675703D01*
X153710112Y-118858823D01*
X153607354Y-119060494D01*
X153537407Y-119275766D01*
X153502000Y-119499321D01*
X151933000Y-119499321D01*
X151897592Y-119275766D01*
X151835857Y-119085767D01*
X151827647Y-119060499D01*
X151827645Y-119060496D01*
X151827645Y-119060494D01*
X151773436Y-118954105D01*
X151724888Y-118858824D01*
X151591845Y-118675706D01*
X151431794Y-118515655D01*
X151248676Y-118382612D01*
X151047005Y-118279854D01*
X150831733Y-118209907D01*
X150608178Y-118174500D01*
X150608173Y-118174500D01*
X150381827Y-118174500D01*
X150381822Y-118174500D01*
X150158266Y-118209907D01*
X149942994Y-118279854D01*
X149741323Y-118382612D01*
X149558203Y-118515657D01*
X149398157Y-118675703D01*
X149265112Y-118858823D01*
X149162354Y-119060494D01*
X149092407Y-119275766D01*
X149057000Y-119499321D01*
X147488000Y-119499321D01*
X147452592Y-119275766D01*
X147390857Y-119085767D01*
X147382647Y-119060499D01*
X147382645Y-119060496D01*
X147382645Y-119060494D01*
X147328436Y-118954105D01*
X147279888Y-118858824D01*
X147146845Y-118675706D01*
X146986794Y-118515655D01*
X146803676Y-118382612D01*
X146602005Y-118279854D01*
X146386733Y-118209907D01*
X146163178Y-118174500D01*
X146163173Y-118174500D01*
X145936827Y-118174500D01*
X145936822Y-118174500D01*
X145713266Y-118209907D01*
X145497994Y-118279854D01*
X145296323Y-118382612D01*
X145113203Y-118515657D01*
X144953157Y-118675703D01*
X144820112Y-118858823D01*
X144717354Y-119060494D01*
X144647407Y-119275766D01*
X144612000Y-119499321D01*
X143043000Y-119499321D01*
X143007592Y-119275766D01*
X142945857Y-119085767D01*
X142937647Y-119060499D01*
X142937645Y-119060496D01*
X142937645Y-119060494D01*
X142883436Y-118954105D01*
X142834888Y-118858824D01*
X142701845Y-118675706D01*
X142541794Y-118515655D01*
X142358676Y-118382612D01*
X142157005Y-118279854D01*
X141941733Y-118209907D01*
X141718178Y-118174500D01*
X141718173Y-118174500D01*
X141491827Y-118174500D01*
X141491822Y-118174500D01*
X141268266Y-118209907D01*
X141052994Y-118279854D01*
X140851323Y-118382612D01*
X140668203Y-118515657D01*
X140508157Y-118675703D01*
X140375112Y-118858823D01*
X140272354Y-119060494D01*
X140202407Y-119275766D01*
X140167000Y-119499321D01*
X138598000Y-119499321D01*
X138562592Y-119275766D01*
X138500857Y-119085767D01*
X138492647Y-119060499D01*
X138492645Y-119060496D01*
X138492645Y-119060494D01*
X138438436Y-118954105D01*
X138389888Y-118858824D01*
X138256845Y-118675706D01*
X138096794Y-118515655D01*
X137913676Y-118382612D01*
X137712005Y-118279854D01*
X137496733Y-118209907D01*
X137273178Y-118174500D01*
X137273173Y-118174500D01*
X137046827Y-118174500D01*
X137046822Y-118174500D01*
X136823266Y-118209907D01*
X136607994Y-118279854D01*
X136406323Y-118382612D01*
X136223203Y-118515657D01*
X136063157Y-118675703D01*
X135930112Y-118858823D01*
X135827354Y-119060494D01*
X135757407Y-119275766D01*
X135722000Y-119499321D01*
X134153000Y-119499321D01*
X134117592Y-119275766D01*
X134055857Y-119085767D01*
X134047647Y-119060499D01*
X134047645Y-119060496D01*
X134047645Y-119060494D01*
X133993436Y-118954105D01*
X133944888Y-118858824D01*
X133811845Y-118675706D01*
X133651794Y-118515655D01*
X133468676Y-118382612D01*
X133267005Y-118279854D01*
X133051733Y-118209907D01*
X132828178Y-118174500D01*
X132828173Y-118174500D01*
X132601827Y-118174500D01*
X132601822Y-118174500D01*
X132378266Y-118209907D01*
X132162994Y-118279854D01*
X131961323Y-118382612D01*
X131778203Y-118515657D01*
X131618157Y-118675703D01*
X131485112Y-118858823D01*
X131382354Y-119060494D01*
X131312407Y-119275766D01*
X131277000Y-119499321D01*
X129073000Y-119499321D01*
X129037592Y-119275766D01*
X128975857Y-119085767D01*
X128967647Y-119060499D01*
X128967645Y-119060496D01*
X128967645Y-119060494D01*
X128913436Y-118954105D01*
X128864888Y-118858824D01*
X128731845Y-118675706D01*
X128571794Y-118515655D01*
X128388676Y-118382612D01*
X128187005Y-118279854D01*
X127971733Y-118209907D01*
X127748178Y-118174500D01*
X127748173Y-118174500D01*
X127521827Y-118174500D01*
X127521822Y-118174500D01*
X127298266Y-118209907D01*
X127082994Y-118279854D01*
X126881323Y-118382612D01*
X126698203Y-118515657D01*
X126538157Y-118675703D01*
X126405112Y-118858823D01*
X126302354Y-119060494D01*
X126232407Y-119275766D01*
X126197000Y-119499321D01*
X124628000Y-119499321D01*
X124628000Y-119309321D01*
X124592592Y-119085766D01*
X124522645Y-118870494D01*
X124468436Y-118764105D01*
X124419888Y-118668824D01*
X124286845Y-118485706D01*
X124126794Y-118325655D01*
X123943676Y-118192612D01*
X123742005Y-118089854D01*
X123526733Y-118019907D01*
X123303178Y-117984500D01*
X123303173Y-117984500D01*
X123076827Y-117984500D01*
X123076822Y-117984500D01*
X122853266Y-118019907D01*
X122637994Y-118089854D01*
X122436323Y-118192612D01*
X122253203Y-118325657D01*
X122093157Y-118485703D01*
X121960112Y-118668823D01*
X121857354Y-118870494D01*
X121787407Y-119085766D01*
X121752000Y-119309321D01*
X117321131Y-119309321D01*
X117321131Y-97549271D01*
X129397499Y-97549271D01*
X129422497Y-97674938D01*
X129422499Y-97674944D01*
X129471533Y-97793324D01*
X129471538Y-97793333D01*
X129542723Y-97899868D01*
X129542726Y-97899872D01*
X129633327Y-97990473D01*
X129633331Y-97990476D01*
X129739866Y-98061661D01*
X129739872Y-98061664D01*
X129739873Y-98061665D01*
X129858256Y-98110701D01*
X129858260Y-98110701D01*
X129858261Y-98110702D01*
X129983928Y-98135700D01*
X129983931Y-98135700D01*
X130112071Y-98135700D01*
X130196615Y-98118882D01*
X130237744Y-98110701D01*
X130356127Y-98061665D01*
X130462669Y-97990476D01*
X130553276Y-97899869D01*
X130624465Y-97793327D01*
X130673501Y-97674944D01*
X130698500Y-97549269D01*
X130698500Y-97421131D01*
X130698500Y-97421128D01*
X130673502Y-97295461D01*
X130673501Y-97295460D01*
X130673501Y-97295456D01*
X130624465Y-97177073D01*
X130624464Y-97177072D01*
X130624461Y-97177066D01*
X130553276Y-97070531D01*
X130553273Y-97070527D01*
X130462672Y-96979926D01*
X130462668Y-96979923D01*
X130356133Y-96908738D01*
X130356124Y-96908733D01*
X130237744Y-96859699D01*
X130237738Y-96859697D01*
X130112071Y-96834700D01*
X130112069Y-96834700D01*
X129983931Y-96834700D01*
X129983929Y-96834700D01*
X129858261Y-96859697D01*
X129858255Y-96859699D01*
X129739875Y-96908733D01*
X129739866Y-96908738D01*
X129633331Y-96979923D01*
X129633327Y-96979926D01*
X129542726Y-97070527D01*
X129542723Y-97070531D01*
X129471538Y-97177066D01*
X129471533Y-97177075D01*
X129422499Y-97295455D01*
X129422497Y-97295461D01*
X129397500Y-97421128D01*
X129397500Y-97421131D01*
X129397500Y-97549269D01*
X129397500Y-97549271D01*
X129397499Y-97549271D01*
X117321131Y-97549271D01*
X117321131Y-95872871D01*
X139608299Y-95872871D01*
X139633297Y-95998538D01*
X139633299Y-95998544D01*
X139682333Y-96116924D01*
X139682338Y-96116933D01*
X139753523Y-96223468D01*
X139753526Y-96223472D01*
X139844127Y-96314073D01*
X139844131Y-96314076D01*
X139950666Y-96385261D01*
X139950672Y-96385264D01*
X139950673Y-96385265D01*
X140069056Y-96434301D01*
X140069060Y-96434301D01*
X140069061Y-96434302D01*
X140194728Y-96459300D01*
X140194731Y-96459300D01*
X140322871Y-96459300D01*
X140407415Y-96442482D01*
X140448544Y-96434301D01*
X140566927Y-96385265D01*
X140673469Y-96314076D01*
X140764076Y-96223469D01*
X140835265Y-96116927D01*
X140884301Y-95998544D01*
X140909300Y-95872869D01*
X140909300Y-95744731D01*
X140909300Y-95744728D01*
X140884302Y-95619061D01*
X140884301Y-95619060D01*
X140884301Y-95619056D01*
X140835265Y-95500673D01*
X140835264Y-95500672D01*
X140835261Y-95500666D01*
X140764076Y-95394131D01*
X140764073Y-95394127D01*
X140673472Y-95303526D01*
X140673468Y-95303523D01*
X140566933Y-95232338D01*
X140566924Y-95232333D01*
X140448544Y-95183299D01*
X140448538Y-95183297D01*
X140322871Y-95158300D01*
X140322869Y-95158300D01*
X140194731Y-95158300D01*
X140194729Y-95158300D01*
X140069061Y-95183297D01*
X140069055Y-95183299D01*
X139950675Y-95232333D01*
X139950666Y-95232338D01*
X139844131Y-95303523D01*
X139844127Y-95303526D01*
X139753526Y-95394127D01*
X139753523Y-95394131D01*
X139682338Y-95500666D01*
X139682333Y-95500675D01*
X139633299Y-95619055D01*
X139633297Y-95619061D01*
X139608300Y-95744728D01*
X139608300Y-95744731D01*
X139608300Y-95872869D01*
X139608300Y-95872871D01*
X139608299Y-95872871D01*
X117321131Y-95872871D01*
X117321131Y-94806071D01*
X130972299Y-94806071D01*
X130997297Y-94931738D01*
X130997299Y-94931744D01*
X131046333Y-95050124D01*
X131046338Y-95050133D01*
X131117523Y-95156668D01*
X131117526Y-95156672D01*
X131208127Y-95247273D01*
X131208131Y-95247276D01*
X131314666Y-95318461D01*
X131314672Y-95318464D01*
X131314673Y-95318465D01*
X131433056Y-95367501D01*
X131433060Y-95367501D01*
X131433061Y-95367502D01*
X131558728Y-95392500D01*
X131558731Y-95392500D01*
X131686871Y-95392500D01*
X131771415Y-95375682D01*
X131812544Y-95367501D01*
X131930927Y-95318465D01*
X132037469Y-95247276D01*
X132128076Y-95156669D01*
X132199265Y-95050127D01*
X132248301Y-94931744D01*
X132273300Y-94806069D01*
X132273300Y-94677931D01*
X132273300Y-94677928D01*
X132248302Y-94552261D01*
X132248301Y-94552260D01*
X132248301Y-94552256D01*
X132199265Y-94433873D01*
X132199264Y-94433872D01*
X132199261Y-94433866D01*
X132128076Y-94327331D01*
X132128073Y-94327327D01*
X132037472Y-94236726D01*
X132037468Y-94236723D01*
X131930933Y-94165538D01*
X131930924Y-94165533D01*
X131812544Y-94116499D01*
X131812538Y-94116497D01*
X131686871Y-94091500D01*
X131686869Y-94091500D01*
X131558731Y-94091500D01*
X131558729Y-94091500D01*
X131433061Y-94116497D01*
X131433055Y-94116499D01*
X131314675Y-94165533D01*
X131314666Y-94165538D01*
X131208131Y-94236723D01*
X131208127Y-94236726D01*
X131117526Y-94327327D01*
X131117523Y-94327331D01*
X131046338Y-94433866D01*
X131046333Y-94433875D01*
X130997299Y-94552255D01*
X130997297Y-94552261D01*
X130972300Y-94677928D01*
X130972300Y-94677931D01*
X130972300Y-94806069D01*
X130972300Y-94806071D01*
X130972299Y-94806071D01*
X117321131Y-94806071D01*
X117321131Y-93790071D01*
X129600699Y-93790071D01*
X129625697Y-93915738D01*
X129625699Y-93915744D01*
X129674733Y-94034124D01*
X129674738Y-94034133D01*
X129745923Y-94140668D01*
X129745926Y-94140672D01*
X129836527Y-94231273D01*
X129836531Y-94231276D01*
X129943066Y-94302461D01*
X129943072Y-94302464D01*
X129943073Y-94302465D01*
X130061456Y-94351501D01*
X130061460Y-94351501D01*
X130061461Y-94351502D01*
X130187128Y-94376500D01*
X130187131Y-94376500D01*
X130315271Y-94376500D01*
X130399815Y-94359682D01*
X130440944Y-94351501D01*
X130559327Y-94302465D01*
X130665869Y-94231276D01*
X130756476Y-94140669D01*
X130827665Y-94034127D01*
X130876701Y-93915744D01*
X130901700Y-93790069D01*
X130901700Y-93661931D01*
X130901700Y-93661928D01*
X130876702Y-93536261D01*
X130876701Y-93536260D01*
X130876701Y-93536256D01*
X130827665Y-93417873D01*
X130827664Y-93417872D01*
X130827661Y-93417866D01*
X130756476Y-93311331D01*
X130756473Y-93311327D01*
X130665872Y-93220726D01*
X130665868Y-93220723D01*
X130559333Y-93149538D01*
X130559324Y-93149533D01*
X130440944Y-93100499D01*
X130440938Y-93100497D01*
X130315271Y-93075500D01*
X130315269Y-93075500D01*
X130187131Y-93075500D01*
X130187129Y-93075500D01*
X130061461Y-93100497D01*
X130061455Y-93100499D01*
X129943075Y-93149533D01*
X129943066Y-93149538D01*
X129836531Y-93220723D01*
X129836527Y-93220726D01*
X129745926Y-93311327D01*
X129745923Y-93311331D01*
X129674738Y-93417866D01*
X129674733Y-93417875D01*
X129625699Y-93536255D01*
X129625697Y-93536261D01*
X129600700Y-93661928D01*
X129600700Y-93661931D01*
X129600700Y-93790069D01*
X129600700Y-93790071D01*
X129600699Y-93790071D01*
X117321131Y-93790071D01*
X117321131Y-88354471D01*
X129854699Y-88354471D01*
X129879697Y-88480138D01*
X129879699Y-88480144D01*
X129928733Y-88598524D01*
X129928738Y-88598533D01*
X129999923Y-88705068D01*
X129999926Y-88705072D01*
X130090527Y-88795673D01*
X130090531Y-88795676D01*
X130197066Y-88866861D01*
X130197072Y-88866864D01*
X130197073Y-88866865D01*
X130315456Y-88915901D01*
X130315460Y-88915901D01*
X130315461Y-88915902D01*
X130441128Y-88940900D01*
X130441131Y-88940900D01*
X130569271Y-88940900D01*
X130653815Y-88924082D01*
X130694944Y-88915901D01*
X130813327Y-88866865D01*
X130895931Y-88811671D01*
X131785099Y-88811671D01*
X131810097Y-88937338D01*
X131810099Y-88937344D01*
X131859133Y-89055724D01*
X131859138Y-89055733D01*
X131930323Y-89162268D01*
X131930326Y-89162272D01*
X132020927Y-89252873D01*
X132020931Y-89252876D01*
X132127466Y-89324061D01*
X132127472Y-89324064D01*
X132127473Y-89324065D01*
X132245856Y-89373101D01*
X132245860Y-89373101D01*
X132245861Y-89373102D01*
X132371528Y-89398100D01*
X132371531Y-89398100D01*
X132499671Y-89398100D01*
X132584215Y-89381282D01*
X132625344Y-89373101D01*
X132743727Y-89324065D01*
X132850269Y-89252876D01*
X132940876Y-89162269D01*
X133012065Y-89055727D01*
X133061101Y-88937344D01*
X133086100Y-88811669D01*
X133086100Y-88683531D01*
X133086100Y-88683528D01*
X133061102Y-88557861D01*
X133061101Y-88557860D01*
X133061101Y-88557856D01*
X133012065Y-88439473D01*
X133012064Y-88439472D01*
X133012061Y-88439466D01*
X132940876Y-88332931D01*
X132940873Y-88332927D01*
X132850272Y-88242326D01*
X132850268Y-88242323D01*
X132743733Y-88171138D01*
X132743724Y-88171133D01*
X132625344Y-88122099D01*
X132625338Y-88122097D01*
X132499671Y-88097100D01*
X132499669Y-88097100D01*
X132371531Y-88097100D01*
X132371529Y-88097100D01*
X132245861Y-88122097D01*
X132245855Y-88122099D01*
X132127475Y-88171133D01*
X132127466Y-88171138D01*
X132020931Y-88242323D01*
X132020927Y-88242326D01*
X131930326Y-88332927D01*
X131930323Y-88332931D01*
X131859138Y-88439466D01*
X131859133Y-88439475D01*
X131810099Y-88557855D01*
X131810097Y-88557861D01*
X131785100Y-88683528D01*
X131785100Y-88683531D01*
X131785100Y-88811669D01*
X131785100Y-88811671D01*
X131785099Y-88811671D01*
X130895931Y-88811671D01*
X130919869Y-88795676D01*
X131010476Y-88705069D01*
X131039632Y-88661432D01*
X131074970Y-88608548D01*
X131081662Y-88598531D01*
X131081665Y-88598527D01*
X131130701Y-88480144D01*
X131155700Y-88354469D01*
X131155700Y-88226331D01*
X131155700Y-88226328D01*
X131130702Y-88100661D01*
X131130701Y-88100660D01*
X131130701Y-88100656D01*
X131081665Y-87982273D01*
X131081664Y-87982272D01*
X131081661Y-87982266D01*
X131010476Y-87875731D01*
X131010473Y-87875727D01*
X130919872Y-87785126D01*
X130919868Y-87785123D01*
X130813333Y-87713938D01*
X130813324Y-87713933D01*
X130694944Y-87664899D01*
X130694938Y-87664897D01*
X130569271Y-87639900D01*
X130569269Y-87639900D01*
X130441131Y-87639900D01*
X130441129Y-87639900D01*
X130315461Y-87664897D01*
X130315455Y-87664899D01*
X130197075Y-87713933D01*
X130197066Y-87713938D01*
X130090531Y-87785123D01*
X130090527Y-87785126D01*
X129999926Y-87875727D01*
X129999923Y-87875731D01*
X129928738Y-87982266D01*
X129928733Y-87982275D01*
X129879699Y-88100655D01*
X129879697Y-88100661D01*
X129854700Y-88226328D01*
X129854700Y-88226331D01*
X129854700Y-88354469D01*
X129854700Y-88354471D01*
X129854699Y-88354471D01*
X117321131Y-88354471D01*
X117321131Y-85821153D01*
X148799500Y-85821153D01*
X148799500Y-85978846D01*
X148830261Y-86133489D01*
X148830264Y-86133501D01*
X148890602Y-86279172D01*
X148890609Y-86279185D01*
X148978210Y-86410288D01*
X148978213Y-86410292D01*
X149089707Y-86521786D01*
X149089711Y-86521789D01*
X149220814Y-86609390D01*
X149220827Y-86609397D01*
X149366498Y-86669735D01*
X149366503Y-86669737D01*
X149521153Y-86700499D01*
X149521156Y-86700500D01*
X149521158Y-86700500D01*
X149678844Y-86700500D01*
X149678845Y-86700499D01*
X149833497Y-86669737D01*
X149927550Y-86630778D01*
X149997016Y-86623310D01*
X150022443Y-86630775D01*
X150116503Y-86669737D01*
X150271153Y-86700499D01*
X150271156Y-86700500D01*
X150271158Y-86700500D01*
X150428844Y-86700500D01*
X150428845Y-86700499D01*
X150583497Y-86669737D01*
X150677550Y-86630778D01*
X150747016Y-86623310D01*
X150772443Y-86630775D01*
X150866503Y-86669737D01*
X151021153Y-86700499D01*
X151021156Y-86700500D01*
X151021158Y-86700500D01*
X151178844Y-86700500D01*
X151178845Y-86700499D01*
X151333497Y-86669737D01*
X151427550Y-86630778D01*
X151497016Y-86623310D01*
X151522443Y-86630775D01*
X151616503Y-86669737D01*
X151771153Y-86700499D01*
X151771156Y-86700500D01*
X151771158Y-86700500D01*
X151928844Y-86700500D01*
X151928845Y-86700499D01*
X152083497Y-86669737D01*
X152196166Y-86623067D01*
X152229172Y-86609397D01*
X152229172Y-86609396D01*
X152229179Y-86609394D01*
X152360289Y-86521789D01*
X152471789Y-86410289D01*
X152474914Y-86405611D01*
X152528525Y-86360806D01*
X152572829Y-86351580D01*
X152572782Y-86351097D01*
X152577276Y-86350654D01*
X152578018Y-86350500D01*
X152578844Y-86350500D01*
X152578845Y-86350499D01*
X152733497Y-86319737D01*
X152879179Y-86259394D01*
X153010289Y-86171789D01*
X153121789Y-86060289D01*
X153143429Y-86027901D01*
X153197041Y-85983096D01*
X153266366Y-85974389D01*
X153329394Y-86004543D01*
X153364911Y-86059881D01*
X153366868Y-86066159D01*
X153380263Y-86133497D01*
X153411012Y-86207734D01*
X153412682Y-86213089D01*
X153413173Y-86242630D01*
X153416333Y-86272018D01*
X153413806Y-86280622D01*
X153413845Y-86282949D01*
X153412472Y-86285164D01*
X153408865Y-86297447D01*
X153380263Y-86366503D01*
X153380262Y-86366506D01*
X153380260Y-86366511D01*
X153349500Y-86521153D01*
X153349500Y-86678846D01*
X153380261Y-86833489D01*
X153380264Y-86833501D01*
X153419219Y-86927548D01*
X153426688Y-86997018D01*
X153419219Y-87022452D01*
X153380264Y-87116498D01*
X153380261Y-87116510D01*
X153349500Y-87271153D01*
X153349500Y-87428846D01*
X153380261Y-87583489D01*
X153380264Y-87583501D01*
X153440602Y-87729172D01*
X153440609Y-87729185D01*
X153528210Y-87860288D01*
X153528213Y-87860292D01*
X153639707Y-87971786D01*
X153639711Y-87971789D01*
X153770814Y-88059390D01*
X153770827Y-88059397D01*
X153870437Y-88100656D01*
X153916503Y-88119737D01*
X154071153Y-88150499D01*
X154071156Y-88150500D01*
X154071158Y-88150500D01*
X154228844Y-88150500D01*
X154228845Y-88150499D01*
X154383497Y-88119737D01*
X154529179Y-88059394D01*
X154660289Y-87971789D01*
X154771789Y-87860289D01*
X154859394Y-87729179D01*
X154919737Y-87583497D01*
X154950500Y-87428842D01*
X154950500Y-87271158D01*
X154950500Y-87271155D01*
X154950499Y-87271153D01*
X154919738Y-87116510D01*
X154919737Y-87116503D01*
X154880778Y-87022449D01*
X154873310Y-86952984D01*
X154880775Y-86927556D01*
X154919737Y-86833497D01*
X154950500Y-86678842D01*
X154950500Y-86521158D01*
X154950500Y-86521155D01*
X154950499Y-86521153D01*
X154928447Y-86410290D01*
X154919737Y-86366503D01*
X154891134Y-86297450D01*
X154883666Y-86227984D01*
X154891133Y-86202552D01*
X154919737Y-86133497D01*
X154950500Y-85978842D01*
X154950500Y-85821158D01*
X154950500Y-85821155D01*
X154950499Y-85821153D01*
X154919738Y-85666510D01*
X154919737Y-85666503D01*
X154901490Y-85622453D01*
X154894021Y-85552985D01*
X154901491Y-85527546D01*
X154919735Y-85483502D01*
X154919735Y-85483501D01*
X154919737Y-85483497D01*
X154950500Y-85328842D01*
X154950500Y-85171158D01*
X154950500Y-85171155D01*
X154950499Y-85171153D01*
X154936031Y-85098419D01*
X154919737Y-85016503D01*
X154891134Y-84947450D01*
X154883666Y-84877984D01*
X154891133Y-84852552D01*
X154919737Y-84783497D01*
X154950500Y-84628842D01*
X154950500Y-84471158D01*
X154950500Y-84471155D01*
X154950499Y-84471153D01*
X154942150Y-84429179D01*
X154919737Y-84316503D01*
X154891134Y-84247450D01*
X154883666Y-84177984D01*
X154891133Y-84152552D01*
X154919737Y-84083497D01*
X154950500Y-83928842D01*
X154950500Y-83771158D01*
X154950500Y-83771155D01*
X154950499Y-83771153D01*
X154943408Y-83735503D01*
X154919737Y-83616503D01*
X154916655Y-83609063D01*
X154859397Y-83470827D01*
X154859390Y-83470814D01*
X154771789Y-83339711D01*
X154771786Y-83339707D01*
X154660292Y-83228213D01*
X154660288Y-83228210D01*
X154529185Y-83140609D01*
X154529172Y-83140602D01*
X154383501Y-83080264D01*
X154383489Y-83080261D01*
X154228845Y-83049500D01*
X154228842Y-83049500D01*
X154071158Y-83049500D01*
X154071155Y-83049500D01*
X153916510Y-83080261D01*
X153916498Y-83080264D01*
X153770827Y-83140602D01*
X153770811Y-83140611D01*
X153746774Y-83156672D01*
X153680096Y-83177549D01*
X153612716Y-83159063D01*
X153566027Y-83107084D01*
X153563324Y-83101021D01*
X153509397Y-82970826D01*
X153509390Y-82970814D01*
X153421789Y-82839711D01*
X153421786Y-82839707D01*
X153310292Y-82728213D01*
X153310288Y-82728210D01*
X153179185Y-82640609D01*
X153179172Y-82640602D01*
X153033501Y-82580264D01*
X153033489Y-82580261D01*
X152878845Y-82549500D01*
X152878842Y-82549500D01*
X152721158Y-82549500D01*
X152721155Y-82549500D01*
X152566510Y-82580261D01*
X152566498Y-82580264D01*
X152420827Y-82640602D01*
X152420814Y-82640609D01*
X152289711Y-82728210D01*
X152289707Y-82728213D01*
X152178213Y-82839707D01*
X152178210Y-82839711D01*
X152090609Y-82970814D01*
X152090602Y-82970827D01*
X152030264Y-83116498D01*
X152030261Y-83116510D01*
X151999500Y-83271153D01*
X151999500Y-83428846D01*
X152030261Y-83583489D01*
X152030264Y-83583501D01*
X152083864Y-83712903D01*
X152091333Y-83782372D01*
X152083866Y-83807804D01*
X152080262Y-83816503D01*
X152080262Y-83816505D01*
X152049500Y-83971155D01*
X152049500Y-84128846D01*
X152080261Y-84283489D01*
X152080264Y-84283501D01*
X152129574Y-84402548D01*
X152137043Y-84472018D01*
X152129574Y-84497452D01*
X152080264Y-84616498D01*
X152080261Y-84616510D01*
X152049500Y-84771153D01*
X152049500Y-84821981D01*
X152029815Y-84889020D01*
X152013182Y-84909662D01*
X152004544Y-84918299D01*
X151989711Y-84928211D01*
X151878211Y-85039711D01*
X151868297Y-85054547D01*
X151859664Y-85063181D01*
X151839286Y-85074307D01*
X151821475Y-85089194D01*
X151806198Y-85092375D01*
X151798340Y-85096666D01*
X151788850Y-85095987D01*
X151777170Y-85098419D01*
X151777218Y-85098903D01*
X151772723Y-85099345D01*
X151771982Y-85099500D01*
X151771155Y-85099500D01*
X151616510Y-85130261D01*
X151616498Y-85130264D01*
X151522452Y-85169219D01*
X151452982Y-85176688D01*
X151427548Y-85169219D01*
X151333501Y-85130264D01*
X151333489Y-85130261D01*
X151178845Y-85099500D01*
X151178842Y-85099500D01*
X151021158Y-85099500D01*
X151021155Y-85099500D01*
X150866510Y-85130261D01*
X150866498Y-85130264D01*
X150772452Y-85169219D01*
X150702982Y-85176688D01*
X150677548Y-85169219D01*
X150583501Y-85130264D01*
X150583489Y-85130261D01*
X150428845Y-85099500D01*
X150428842Y-85099500D01*
X150271158Y-85099500D01*
X150271155Y-85099500D01*
X150116510Y-85130261D01*
X150116498Y-85130264D01*
X150022452Y-85169219D01*
X149952982Y-85176688D01*
X149927548Y-85169219D01*
X149833501Y-85130264D01*
X149833489Y-85130261D01*
X149678845Y-85099500D01*
X149678842Y-85099500D01*
X149521158Y-85099500D01*
X149521155Y-85099500D01*
X149366510Y-85130261D01*
X149366498Y-85130264D01*
X149220827Y-85190602D01*
X149220814Y-85190609D01*
X149089711Y-85278210D01*
X149089707Y-85278213D01*
X148978213Y-85389707D01*
X148978210Y-85389711D01*
X148890609Y-85520814D01*
X148890602Y-85520827D01*
X148830264Y-85666498D01*
X148830261Y-85666510D01*
X148799500Y-85821153D01*
X117321131Y-85821153D01*
X117321131Y-84299953D01*
X132498700Y-84299953D01*
X132498700Y-84457646D01*
X132529461Y-84612289D01*
X132529464Y-84612301D01*
X132589802Y-84757972D01*
X132589809Y-84757985D01*
X132677410Y-84889088D01*
X132677413Y-84889092D01*
X132788907Y-85000586D01*
X132788911Y-85000589D01*
X132920014Y-85088190D01*
X132920027Y-85088197D01*
X133065698Y-85148535D01*
X133065703Y-85148537D01*
X133169678Y-85169219D01*
X133220353Y-85179299D01*
X133220356Y-85179300D01*
X133220358Y-85179300D01*
X133378044Y-85179300D01*
X133378045Y-85179299D01*
X133532697Y-85148537D01*
X133652525Y-85098903D01*
X133678372Y-85088197D01*
X133678372Y-85088196D01*
X133678379Y-85088194D01*
X133809489Y-85000589D01*
X133920989Y-84889089D01*
X134008594Y-84757979D01*
X134068937Y-84612297D01*
X134099700Y-84457642D01*
X134099700Y-84299958D01*
X134099700Y-84299955D01*
X134099699Y-84299953D01*
X134079817Y-84200000D01*
X134068937Y-84145303D01*
X134062119Y-84128842D01*
X134008597Y-83999627D01*
X134008590Y-83999614D01*
X133920989Y-83868511D01*
X133920986Y-83868507D01*
X133809492Y-83757013D01*
X133809488Y-83757010D01*
X133678385Y-83669409D01*
X133678372Y-83669402D01*
X133532701Y-83609064D01*
X133532689Y-83609061D01*
X133378045Y-83578300D01*
X133378042Y-83578300D01*
X133220358Y-83578300D01*
X133220355Y-83578300D01*
X133065710Y-83609061D01*
X133065698Y-83609064D01*
X132920027Y-83669402D01*
X132920014Y-83669409D01*
X132788911Y-83757010D01*
X132788907Y-83757013D01*
X132677413Y-83868507D01*
X132677410Y-83868511D01*
X132589809Y-83999614D01*
X132589802Y-83999627D01*
X132529464Y-84145298D01*
X132529461Y-84145310D01*
X132498700Y-84299953D01*
X117321131Y-84299953D01*
X117321131Y-81031260D01*
X122959500Y-81031260D01*
X122959500Y-81278739D01*
X122959501Y-81278756D01*
X122991803Y-81524117D01*
X123055861Y-81763184D01*
X123150569Y-81991829D01*
X123150574Y-81991840D01*
X123274312Y-82206159D01*
X123274323Y-82206175D01*
X123424979Y-82402514D01*
X123424985Y-82402521D01*
X123599978Y-82577514D01*
X123599985Y-82577520D01*
X123682204Y-82640609D01*
X123796333Y-82728183D01*
X123796385Y-82728213D01*
X124010659Y-82851925D01*
X124010664Y-82851927D01*
X124010667Y-82851929D01*
X124239320Y-82946640D01*
X124478379Y-83010696D01*
X124723754Y-83043000D01*
X124723761Y-83043000D01*
X124971239Y-83043000D01*
X124971246Y-83043000D01*
X125216621Y-83010696D01*
X125455680Y-82946640D01*
X125684333Y-82851929D01*
X125898667Y-82728183D01*
X126047381Y-82614071D01*
X130718299Y-82614071D01*
X130743297Y-82739738D01*
X130743299Y-82739744D01*
X130792333Y-82858124D01*
X130792338Y-82858133D01*
X130863523Y-82964668D01*
X130863526Y-82964672D01*
X130954127Y-83055273D01*
X130954131Y-83055276D01*
X131060666Y-83126461D01*
X131060672Y-83126464D01*
X131060673Y-83126465D01*
X131179056Y-83175501D01*
X131179060Y-83175501D01*
X131179061Y-83175502D01*
X131304728Y-83200500D01*
X131304731Y-83200500D01*
X131432871Y-83200500D01*
X131548248Y-83177549D01*
X131558544Y-83175501D01*
X131561994Y-83174072D01*
X145946998Y-83174072D01*
X145971996Y-83299739D01*
X145971998Y-83299745D01*
X146021032Y-83418125D01*
X146021037Y-83418134D01*
X146092222Y-83524669D01*
X146092225Y-83524673D01*
X146182826Y-83615274D01*
X146182830Y-83615277D01*
X146289365Y-83686462D01*
X146289371Y-83686465D01*
X146289372Y-83686466D01*
X146407755Y-83735502D01*
X146407759Y-83735502D01*
X146407760Y-83735503D01*
X146533427Y-83760501D01*
X146533430Y-83760501D01*
X146661570Y-83760501D01*
X146746114Y-83743683D01*
X146787243Y-83735502D01*
X146905626Y-83686466D01*
X147012168Y-83615277D01*
X147102775Y-83524670D01*
X147173964Y-83418128D01*
X147223000Y-83299745D01*
X147237229Y-83228213D01*
X147247999Y-83174072D01*
X147247999Y-83045929D01*
X147223001Y-82920262D01*
X147223000Y-82920261D01*
X147223000Y-82920257D01*
X147173964Y-82801874D01*
X147173963Y-82801873D01*
X147173960Y-82801867D01*
X147102775Y-82695332D01*
X147102772Y-82695328D01*
X147012171Y-82604727D01*
X147012167Y-82604724D01*
X146905632Y-82533539D01*
X146905623Y-82533534D01*
X146787243Y-82484500D01*
X146787237Y-82484498D01*
X146661570Y-82459501D01*
X146661568Y-82459501D01*
X146533430Y-82459501D01*
X146533428Y-82459501D01*
X146407760Y-82484498D01*
X146407754Y-82484500D01*
X146289374Y-82533534D01*
X146289365Y-82533539D01*
X146182830Y-82604724D01*
X146182826Y-82604727D01*
X146092225Y-82695328D01*
X146092222Y-82695332D01*
X146021037Y-82801867D01*
X146021032Y-82801876D01*
X145971998Y-82920256D01*
X145971996Y-82920262D01*
X145946999Y-83045929D01*
X145946999Y-83045932D01*
X145946999Y-83174070D01*
X145946999Y-83174072D01*
X145946998Y-83174072D01*
X131561994Y-83174072D01*
X131676927Y-83126465D01*
X131783469Y-83055276D01*
X131874076Y-82964669D01*
X131945265Y-82858127D01*
X131994301Y-82739744D01*
X132014021Y-82640609D01*
X132019300Y-82614071D01*
X132019300Y-82485928D01*
X132014475Y-82461671D01*
X133613899Y-82461671D01*
X133638897Y-82587338D01*
X133638899Y-82587344D01*
X133687933Y-82705724D01*
X133687938Y-82705733D01*
X133759123Y-82812268D01*
X133759126Y-82812272D01*
X133849727Y-82902873D01*
X133849731Y-82902876D01*
X133956266Y-82974061D01*
X133956272Y-82974064D01*
X133956273Y-82974065D01*
X134074656Y-83023101D01*
X134074660Y-83023101D01*
X134074661Y-83023102D01*
X134200328Y-83048100D01*
X134200331Y-83048100D01*
X134328471Y-83048100D01*
X134413015Y-83031282D01*
X134454144Y-83023101D01*
X134572527Y-82974065D01*
X134577382Y-82970821D01*
X134628392Y-82936738D01*
X134655246Y-82918793D01*
X134679069Y-82902876D01*
X134769676Y-82812269D01*
X134840865Y-82705727D01*
X134889901Y-82587344D01*
X134910074Y-82485931D01*
X134914900Y-82461671D01*
X134914900Y-82333528D01*
X134889902Y-82207861D01*
X134889901Y-82207860D01*
X134889901Y-82207856D01*
X134840865Y-82089473D01*
X134840864Y-82089472D01*
X134840861Y-82089466D01*
X134769676Y-81982931D01*
X134769673Y-81982927D01*
X134679072Y-81892326D01*
X134679068Y-81892323D01*
X134572533Y-81821138D01*
X134572524Y-81821133D01*
X134454144Y-81772099D01*
X134454138Y-81772097D01*
X134328471Y-81747100D01*
X134328469Y-81747100D01*
X134200331Y-81747100D01*
X134200329Y-81747100D01*
X134074661Y-81772097D01*
X134074655Y-81772099D01*
X133956275Y-81821133D01*
X133956266Y-81821138D01*
X133849731Y-81892323D01*
X133849727Y-81892326D01*
X133759126Y-81982927D01*
X133759123Y-81982931D01*
X133687938Y-82089466D01*
X133687933Y-82089475D01*
X133638899Y-82207855D01*
X133638897Y-82207861D01*
X133613900Y-82333528D01*
X133613900Y-82333531D01*
X133613900Y-82461669D01*
X133613900Y-82461671D01*
X133613899Y-82461671D01*
X132014475Y-82461671D01*
X131994302Y-82360259D01*
X131994301Y-82360257D01*
X131994300Y-82360255D01*
X131945265Y-82241873D01*
X131945264Y-82241872D01*
X131945261Y-82241866D01*
X131874076Y-82135331D01*
X131874073Y-82135327D01*
X131783472Y-82044726D01*
X131783468Y-82044723D01*
X131676933Y-81973538D01*
X131676924Y-81973533D01*
X131558544Y-81924499D01*
X131558538Y-81924497D01*
X131432871Y-81899500D01*
X131432869Y-81899500D01*
X131304731Y-81899500D01*
X131304729Y-81899500D01*
X131179061Y-81924497D01*
X131179055Y-81924499D01*
X131060675Y-81973533D01*
X131060666Y-81973538D01*
X130954131Y-82044723D01*
X130954127Y-82044726D01*
X130863526Y-82135327D01*
X130863523Y-82135331D01*
X130792338Y-82241866D01*
X130792333Y-82241875D01*
X130743299Y-82360255D01*
X130743297Y-82360261D01*
X130718300Y-82485928D01*
X130718300Y-82485931D01*
X130718300Y-82614069D01*
X130718300Y-82614071D01*
X130718299Y-82614071D01*
X126047381Y-82614071D01*
X126095016Y-82577519D01*
X126270019Y-82402516D01*
X126420683Y-82206167D01*
X126544429Y-81991833D01*
X126639140Y-81763180D01*
X126703196Y-81524121D01*
X126735500Y-81278746D01*
X126735500Y-81031254D01*
X126709804Y-80836071D01*
X137830299Y-80836071D01*
X137855297Y-80961738D01*
X137855299Y-80961744D01*
X137904333Y-81080124D01*
X137904338Y-81080133D01*
X137975523Y-81186668D01*
X137975526Y-81186672D01*
X138066127Y-81277273D01*
X138066131Y-81277276D01*
X138172666Y-81348461D01*
X138172672Y-81348464D01*
X138172673Y-81348465D01*
X138291056Y-81397501D01*
X138291060Y-81397501D01*
X138291061Y-81397502D01*
X138416728Y-81422500D01*
X138416731Y-81422500D01*
X138544871Y-81422500D01*
X138629415Y-81405682D01*
X138670544Y-81397501D01*
X138788927Y-81348465D01*
X138895469Y-81277276D01*
X138986076Y-81186669D01*
X139057265Y-81080127D01*
X139106301Y-80961744D01*
X139131300Y-80836069D01*
X139131300Y-80707931D01*
X139131300Y-80707928D01*
X139106302Y-80582261D01*
X139106301Y-80582260D01*
X139106301Y-80582256D01*
X139057265Y-80463873D01*
X139057264Y-80463872D01*
X139057261Y-80463866D01*
X138986076Y-80357331D01*
X138986073Y-80357327D01*
X138895472Y-80266726D01*
X138895468Y-80266723D01*
X138788933Y-80195538D01*
X138788924Y-80195533D01*
X138670544Y-80146499D01*
X138670538Y-80146497D01*
X138544871Y-80121500D01*
X138544869Y-80121500D01*
X138416731Y-80121500D01*
X138416729Y-80121500D01*
X138291061Y-80146497D01*
X138291055Y-80146499D01*
X138172675Y-80195533D01*
X138172666Y-80195538D01*
X138066131Y-80266723D01*
X138066127Y-80266726D01*
X137975526Y-80357327D01*
X137975523Y-80357331D01*
X137904338Y-80463866D01*
X137904333Y-80463875D01*
X137855299Y-80582255D01*
X137855297Y-80582261D01*
X137830300Y-80707928D01*
X137830300Y-80707931D01*
X137830300Y-80836069D01*
X137830300Y-80836071D01*
X137830299Y-80836071D01*
X126709804Y-80836071D01*
X126703196Y-80785879D01*
X126639140Y-80546820D01*
X126544429Y-80318167D01*
X126544427Y-80318164D01*
X126544425Y-80318159D01*
X126420687Y-80103840D01*
X126420683Y-80103833D01*
X126270019Y-79907484D01*
X126270014Y-79907478D01*
X126131807Y-79769271D01*
X131480299Y-79769271D01*
X131505297Y-79894938D01*
X131505299Y-79894944D01*
X131554333Y-80013324D01*
X131554338Y-80013333D01*
X131625523Y-80119868D01*
X131625526Y-80119872D01*
X131716127Y-80210473D01*
X131716131Y-80210476D01*
X131822666Y-80281661D01*
X131822675Y-80281666D01*
X131849492Y-80292774D01*
X131941056Y-80330701D01*
X131941060Y-80330701D01*
X131941061Y-80330702D01*
X132066728Y-80355700D01*
X132066731Y-80355700D01*
X132194871Y-80355700D01*
X132279415Y-80338882D01*
X132320544Y-80330701D01*
X132438927Y-80281665D01*
X132545469Y-80210476D01*
X132636076Y-80119869D01*
X132707265Y-80013327D01*
X132756301Y-79894944D01*
X132778470Y-79783497D01*
X132781300Y-79769271D01*
X132781300Y-79641128D01*
X132756302Y-79515461D01*
X132756301Y-79515460D01*
X132756301Y-79515456D01*
X132707265Y-79397073D01*
X132707264Y-79397072D01*
X132707261Y-79397066D01*
X132650469Y-79312071D01*
X135239499Y-79312071D01*
X135264497Y-79437738D01*
X135264499Y-79437744D01*
X135313533Y-79556124D01*
X135313538Y-79556133D01*
X135384723Y-79662668D01*
X135384726Y-79662672D01*
X135475327Y-79753273D01*
X135475331Y-79753276D01*
X135581866Y-79824461D01*
X135581872Y-79824464D01*
X135581873Y-79824465D01*
X135700256Y-79873501D01*
X135700260Y-79873501D01*
X135700261Y-79873502D01*
X135825928Y-79898500D01*
X135825931Y-79898500D01*
X135954071Y-79898500D01*
X136038615Y-79881682D01*
X136079744Y-79873501D01*
X136198127Y-79824465D01*
X136304669Y-79753276D01*
X136395276Y-79662669D01*
X136466465Y-79556127D01*
X136515501Y-79437744D01*
X136523682Y-79396615D01*
X136540500Y-79312071D01*
X136540500Y-79183928D01*
X136515502Y-79058261D01*
X136515501Y-79058260D01*
X136515501Y-79058256D01*
X136466465Y-78939873D01*
X136466464Y-78939872D01*
X136466461Y-78939866D01*
X136395276Y-78833331D01*
X136395273Y-78833327D01*
X136304672Y-78742726D01*
X136304668Y-78742723D01*
X136276527Y-78723920D01*
X152896061Y-78723920D01*
X152924902Y-78868907D01*
X152924905Y-78868917D01*
X152981474Y-79005488D01*
X152981481Y-79005501D01*
X153063610Y-79128415D01*
X153063613Y-79128419D01*
X153168142Y-79232948D01*
X153168146Y-79232951D01*
X153291060Y-79315080D01*
X153291073Y-79315087D01*
X153407618Y-79363361D01*
X153427649Y-79371658D01*
X153427653Y-79371658D01*
X153427654Y-79371659D01*
X153572641Y-79400500D01*
X153572644Y-79400500D01*
X153720482Y-79400500D01*
X153818024Y-79381096D01*
X153865475Y-79371658D01*
X153971109Y-79327902D01*
X154002050Y-79315087D01*
X154002050Y-79315086D01*
X154002057Y-79315084D01*
X154124978Y-79232951D01*
X154179052Y-79178877D01*
X154240375Y-79145391D01*
X154310067Y-79150375D01*
X154366000Y-79192246D01*
X154390418Y-79257710D01*
X154381846Y-79310620D01*
X154382031Y-79310676D01*
X154381615Y-79312044D01*
X154381299Y-79314000D01*
X154380265Y-79316495D01*
X154380261Y-79316510D01*
X154349500Y-79471153D01*
X154349500Y-79628846D01*
X154380261Y-79783489D01*
X154380264Y-79783501D01*
X154440602Y-79929172D01*
X154440609Y-79929185D01*
X154528210Y-80060288D01*
X154528213Y-80060292D01*
X154639707Y-80171786D01*
X154639711Y-80171789D01*
X154770814Y-80259390D01*
X154770827Y-80259397D01*
X154912720Y-80318170D01*
X154916503Y-80319737D01*
X155071153Y-80350499D01*
X155071156Y-80350500D01*
X155071158Y-80350500D01*
X155228844Y-80350500D01*
X155228845Y-80350499D01*
X155383497Y-80319737D01*
X155452549Y-80291134D01*
X155522016Y-80283666D01*
X155547447Y-80291133D01*
X155616503Y-80319737D01*
X155771153Y-80350499D01*
X155771156Y-80350500D01*
X155771158Y-80350500D01*
X155928844Y-80350500D01*
X155928845Y-80350499D01*
X156083497Y-80319737D01*
X156152549Y-80291134D01*
X156222016Y-80283666D01*
X156247447Y-80291133D01*
X156316503Y-80319737D01*
X156471153Y-80350499D01*
X156471156Y-80350500D01*
X156471158Y-80350500D01*
X156628844Y-80350500D01*
X156628845Y-80350499D01*
X156783497Y-80319737D01*
X156929179Y-80259394D01*
X157002390Y-80210476D01*
X157065354Y-80168405D01*
X157066580Y-80170240D01*
X157121747Y-80146798D01*
X157160324Y-80148345D01*
X157171155Y-80150500D01*
X157171158Y-80150500D01*
X157328844Y-80150500D01*
X157328845Y-80150499D01*
X157483497Y-80119737D01*
X157629179Y-80059394D01*
X157760289Y-79971789D01*
X157871789Y-79860289D01*
X157959394Y-79729179D01*
X158019737Y-79583497D01*
X158050500Y-79428842D01*
X158050500Y-79332940D01*
X158070185Y-79265901D01*
X158086814Y-79245263D01*
X158171789Y-79160289D01*
X158259394Y-79029179D01*
X158260223Y-79027179D01*
X158279631Y-78980323D01*
X158319737Y-78883497D01*
X158350500Y-78728842D01*
X158350500Y-78571158D01*
X158350500Y-78571155D01*
X158350499Y-78571153D01*
X158347180Y-78554466D01*
X158319737Y-78416503D01*
X158280778Y-78322449D01*
X158273310Y-78252984D01*
X158280775Y-78227556D01*
X158319737Y-78133497D01*
X158350500Y-77978842D01*
X158350500Y-77821158D01*
X158350500Y-77821155D01*
X158350499Y-77821153D01*
X158328337Y-77709737D01*
X158319737Y-77666503D01*
X158291134Y-77597450D01*
X158283666Y-77527984D01*
X158291133Y-77502552D01*
X158319737Y-77433497D01*
X158350500Y-77278842D01*
X158350500Y-77121158D01*
X158350500Y-77121155D01*
X158350499Y-77121153D01*
X158347351Y-77105325D01*
X158319737Y-76966503D01*
X158291134Y-76897450D01*
X158283666Y-76827984D01*
X158291133Y-76802552D01*
X158319737Y-76733497D01*
X158350500Y-76578842D01*
X158350500Y-76421158D01*
X158350500Y-76421155D01*
X158350499Y-76421153D01*
X158336590Y-76351229D01*
X158319737Y-76266503D01*
X158301490Y-76222453D01*
X158294021Y-76152985D01*
X158301491Y-76127546D01*
X158319735Y-76083502D01*
X158319735Y-76083501D01*
X158319737Y-76083497D01*
X158350500Y-75928842D01*
X158350500Y-75771158D01*
X158350500Y-75771155D01*
X158350499Y-75771153D01*
X158346750Y-75752305D01*
X158319737Y-75616503D01*
X158312849Y-75599873D01*
X158259397Y-75470827D01*
X158259390Y-75470814D01*
X158171789Y-75339711D01*
X158171786Y-75339707D01*
X158060292Y-75228213D01*
X158060288Y-75228210D01*
X157929185Y-75140609D01*
X157929172Y-75140602D01*
X157783501Y-75080264D01*
X157783489Y-75080261D01*
X157628845Y-75049500D01*
X157628842Y-75049500D01*
X157471158Y-75049500D01*
X157471155Y-75049500D01*
X157316510Y-75080261D01*
X157316498Y-75080264D01*
X157170827Y-75140602D01*
X157170814Y-75140609D01*
X157039711Y-75228210D01*
X157039707Y-75228213D01*
X156928213Y-75339707D01*
X156928210Y-75339711D01*
X156840609Y-75470814D01*
X156840602Y-75470827D01*
X156780264Y-75616498D01*
X156780261Y-75616510D01*
X156749500Y-75771153D01*
X156749500Y-75928846D01*
X156780260Y-76083488D01*
X156780262Y-76083493D01*
X156780263Y-76083497D01*
X156798510Y-76127549D01*
X156805978Y-76197018D01*
X156798511Y-76222447D01*
X156780263Y-76266503D01*
X156780262Y-76266506D01*
X156780260Y-76266511D01*
X156749500Y-76421153D01*
X156749500Y-76578846D01*
X156780260Y-76733488D01*
X156780262Y-76733493D01*
X156780263Y-76733497D01*
X156808864Y-76802547D01*
X156808865Y-76802549D01*
X156816333Y-76872018D01*
X156808865Y-76897447D01*
X156780263Y-76966503D01*
X156780262Y-76966506D01*
X156780260Y-76966511D01*
X156749500Y-77121153D01*
X156749500Y-77278846D01*
X156780260Y-77433488D01*
X156780262Y-77433493D01*
X156780263Y-77433497D01*
X156803769Y-77490246D01*
X156808865Y-77502549D01*
X156816333Y-77572018D01*
X156808865Y-77597447D01*
X156780263Y-77666503D01*
X156780262Y-77666506D01*
X156780260Y-77666511D01*
X156749500Y-77821153D01*
X156749500Y-77978846D01*
X156780261Y-78133489D01*
X156780264Y-78133501D01*
X156819219Y-78227548D01*
X156826688Y-78297018D01*
X156819219Y-78322452D01*
X156780264Y-78416498D01*
X156780261Y-78416510D01*
X156749500Y-78571153D01*
X156749500Y-78625500D01*
X156729815Y-78692539D01*
X156677011Y-78738294D01*
X156625500Y-78749500D01*
X156471155Y-78749500D01*
X156316511Y-78780260D01*
X156316506Y-78780262D01*
X156316504Y-78780262D01*
X156316503Y-78780263D01*
X156247449Y-78808865D01*
X156177982Y-78816333D01*
X156152552Y-78808865D01*
X156083497Y-78780263D01*
X156083493Y-78780262D01*
X156083488Y-78780260D01*
X155928845Y-78749500D01*
X155928842Y-78749500D01*
X155771158Y-78749500D01*
X155771155Y-78749500D01*
X155616511Y-78780260D01*
X155616506Y-78780262D01*
X155616504Y-78780262D01*
X155616503Y-78780263D01*
X155547449Y-78808865D01*
X155477982Y-78816333D01*
X155452552Y-78808865D01*
X155383497Y-78780263D01*
X155383493Y-78780262D01*
X155383488Y-78780260D01*
X155228845Y-78749500D01*
X155228842Y-78749500D01*
X155071158Y-78749500D01*
X155071155Y-78749500D01*
X154916510Y-78780261D01*
X154916498Y-78780264D01*
X154770827Y-78840602D01*
X154770814Y-78840609D01*
X154639711Y-78928210D01*
X154574226Y-78993695D01*
X154512902Y-79027179D01*
X154443211Y-79022194D01*
X154387277Y-78980323D01*
X154362861Y-78914858D01*
X154367333Y-78874946D01*
X154367032Y-78874887D01*
X154367737Y-78871338D01*
X154367887Y-78870008D01*
X154368215Y-78868924D01*
X154368220Y-78868913D01*
X154385854Y-78780262D01*
X154397062Y-78723920D01*
X154397062Y-78576079D01*
X154368221Y-78431092D01*
X154368220Y-78431091D01*
X154368220Y-78431087D01*
X154352307Y-78392669D01*
X154311649Y-78294511D01*
X154311642Y-78294498D01*
X154229513Y-78171584D01*
X154229510Y-78171580D01*
X154124981Y-78067051D01*
X154124977Y-78067048D01*
X154002063Y-77984919D01*
X154002050Y-77984912D01*
X153865479Y-77928343D01*
X153865469Y-77928340D01*
X153720482Y-77899500D01*
X153720480Y-77899500D01*
X153572644Y-77899500D01*
X153572642Y-77899500D01*
X153427654Y-77928340D01*
X153427644Y-77928343D01*
X153291073Y-77984912D01*
X153291060Y-77984919D01*
X153168146Y-78067048D01*
X153168142Y-78067051D01*
X153063613Y-78171580D01*
X153063610Y-78171584D01*
X152981481Y-78294498D01*
X152981474Y-78294511D01*
X152924905Y-78431082D01*
X152924902Y-78431092D01*
X152896062Y-78576079D01*
X152896062Y-78576082D01*
X152896062Y-78723918D01*
X152896062Y-78723920D01*
X152896061Y-78723920D01*
X136276527Y-78723920D01*
X136200458Y-78673092D01*
X136200457Y-78673091D01*
X136198134Y-78671539D01*
X136198124Y-78671533D01*
X136079744Y-78622499D01*
X136079738Y-78622497D01*
X135954071Y-78597500D01*
X135954069Y-78597500D01*
X135825931Y-78597500D01*
X135825929Y-78597500D01*
X135700261Y-78622497D01*
X135700255Y-78622499D01*
X135581875Y-78671533D01*
X135581866Y-78671538D01*
X135475331Y-78742723D01*
X135475327Y-78742726D01*
X135384726Y-78833327D01*
X135384723Y-78833331D01*
X135313538Y-78939866D01*
X135313533Y-78939875D01*
X135264499Y-79058255D01*
X135264497Y-79058261D01*
X135239500Y-79183928D01*
X135239500Y-79183931D01*
X135239500Y-79312069D01*
X135239500Y-79312071D01*
X135239499Y-79312071D01*
X132650469Y-79312071D01*
X132636076Y-79290531D01*
X132636073Y-79290527D01*
X132545472Y-79199926D01*
X132545468Y-79199923D01*
X132438933Y-79128738D01*
X132438924Y-79128733D01*
X132320544Y-79079699D01*
X132320538Y-79079697D01*
X132194871Y-79054700D01*
X132194869Y-79054700D01*
X132066731Y-79054700D01*
X132066729Y-79054700D01*
X131941061Y-79079697D01*
X131941055Y-79079699D01*
X131822675Y-79128733D01*
X131822666Y-79128738D01*
X131716131Y-79199923D01*
X131716127Y-79199926D01*
X131625526Y-79290527D01*
X131625523Y-79290531D01*
X131554338Y-79397066D01*
X131554333Y-79397075D01*
X131505299Y-79515455D01*
X131505297Y-79515461D01*
X131480300Y-79641128D01*
X131480300Y-79641131D01*
X131480300Y-79769269D01*
X131480300Y-79769271D01*
X131480299Y-79769271D01*
X126131807Y-79769271D01*
X126095021Y-79732485D01*
X126095013Y-79732478D01*
X125898675Y-79581823D01*
X125898673Y-79581821D01*
X125898667Y-79581817D01*
X125898662Y-79581814D01*
X125898659Y-79581812D01*
X125684340Y-79458074D01*
X125684329Y-79458069D01*
X125455684Y-79363361D01*
X125275512Y-79315084D01*
X125216621Y-79299304D01*
X125216620Y-79299303D01*
X125216617Y-79299303D01*
X124971256Y-79267001D01*
X124971251Y-79267000D01*
X124971246Y-79267000D01*
X124723754Y-79267000D01*
X124723748Y-79267000D01*
X124723743Y-79267001D01*
X124478382Y-79299303D01*
X124239315Y-79363361D01*
X124010670Y-79458069D01*
X124010659Y-79458074D01*
X123796340Y-79581812D01*
X123796324Y-79581823D01*
X123599985Y-79732479D01*
X123599978Y-79732485D01*
X123424985Y-79907478D01*
X123424979Y-79907485D01*
X123274323Y-80103824D01*
X123274312Y-80103840D01*
X123150574Y-80318159D01*
X123150569Y-80318170D01*
X123055861Y-80546815D01*
X122991803Y-80785882D01*
X122959501Y-81031243D01*
X122959500Y-81031260D01*
X117321131Y-81031260D01*
X117321131Y-76331260D01*
X122959500Y-76331260D01*
X122959500Y-76578739D01*
X122959501Y-76578756D01*
X122988963Y-76802547D01*
X122991804Y-76824121D01*
X123015264Y-76911675D01*
X123055861Y-77063184D01*
X123150569Y-77291829D01*
X123150574Y-77291840D01*
X123274312Y-77506159D01*
X123274323Y-77506175D01*
X123424979Y-77702514D01*
X123424985Y-77702521D01*
X123599978Y-77877514D01*
X123599985Y-77877520D01*
X123732031Y-77978842D01*
X123796333Y-78028183D01*
X123796340Y-78028187D01*
X124010659Y-78151925D01*
X124010664Y-78151927D01*
X124010667Y-78151929D01*
X124187519Y-78225183D01*
X124223936Y-78240268D01*
X124239320Y-78246640D01*
X124478379Y-78310696D01*
X124723754Y-78343000D01*
X124723761Y-78343000D01*
X124971239Y-78343000D01*
X124971246Y-78343000D01*
X125216621Y-78310696D01*
X125455680Y-78246640D01*
X125684333Y-78151929D01*
X125898667Y-78028183D01*
X126079179Y-77889671D01*
X128279899Y-77889671D01*
X128304897Y-78015338D01*
X128304899Y-78015344D01*
X128353933Y-78133724D01*
X128353938Y-78133733D01*
X128425123Y-78240268D01*
X128425126Y-78240272D01*
X128515727Y-78330873D01*
X128515731Y-78330876D01*
X128622266Y-78402061D01*
X128622272Y-78402064D01*
X128622273Y-78402065D01*
X128740656Y-78451101D01*
X128740660Y-78451101D01*
X128740661Y-78451102D01*
X128866328Y-78476100D01*
X128866331Y-78476100D01*
X128994471Y-78476100D01*
X129079015Y-78459282D01*
X129120144Y-78451101D01*
X129238527Y-78402065D01*
X129345069Y-78330876D01*
X129435676Y-78240269D01*
X129506865Y-78133727D01*
X129544830Y-78042071D01*
X129854699Y-78042071D01*
X129879697Y-78167738D01*
X129879699Y-78167744D01*
X129928733Y-78286124D01*
X129928738Y-78286133D01*
X129999923Y-78392668D01*
X129999926Y-78392672D01*
X130090527Y-78483273D01*
X130090531Y-78483276D01*
X130197066Y-78554461D01*
X130197072Y-78554464D01*
X130197073Y-78554465D01*
X130315456Y-78603501D01*
X130315460Y-78603501D01*
X130315461Y-78603502D01*
X130441128Y-78628500D01*
X130441131Y-78628500D01*
X130569271Y-78628500D01*
X130653815Y-78611682D01*
X130694944Y-78603501D01*
X130813327Y-78554465D01*
X130919869Y-78483276D01*
X131010476Y-78392669D01*
X131081665Y-78286127D01*
X131130701Y-78167744D01*
X131150731Y-78067049D01*
X131155700Y-78042071D01*
X131155700Y-77913928D01*
X131130702Y-77788261D01*
X131130701Y-77788260D01*
X131130701Y-77788256D01*
X131081665Y-77669873D01*
X131081664Y-77669872D01*
X131081661Y-77669866D01*
X131010476Y-77563331D01*
X131010473Y-77563327D01*
X130919872Y-77472726D01*
X130919868Y-77472723D01*
X130813333Y-77401538D01*
X130813324Y-77401533D01*
X130694944Y-77352499D01*
X130694938Y-77352497D01*
X130569271Y-77327500D01*
X130569269Y-77327500D01*
X130441131Y-77327500D01*
X130441129Y-77327500D01*
X130315461Y-77352497D01*
X130315455Y-77352499D01*
X130197075Y-77401533D01*
X130197066Y-77401538D01*
X130090531Y-77472723D01*
X130090527Y-77472726D01*
X129999926Y-77563327D01*
X129999923Y-77563331D01*
X129928738Y-77669866D01*
X129928733Y-77669875D01*
X129879699Y-77788255D01*
X129879697Y-77788261D01*
X129854700Y-77913928D01*
X129854700Y-77913931D01*
X129854700Y-78042069D01*
X129854700Y-78042071D01*
X129854699Y-78042071D01*
X129544830Y-78042071D01*
X129555901Y-78015344D01*
X129564082Y-77974215D01*
X129580900Y-77889671D01*
X129580900Y-77761528D01*
X129555902Y-77635861D01*
X129555901Y-77635860D01*
X129555901Y-77635856D01*
X129517974Y-77544292D01*
X129506866Y-77517475D01*
X129506861Y-77517466D01*
X129435676Y-77410931D01*
X129435673Y-77410927D01*
X129345072Y-77320326D01*
X129345068Y-77320323D01*
X129238533Y-77249138D01*
X129238524Y-77249133D01*
X129120144Y-77200099D01*
X129120138Y-77200097D01*
X128994471Y-77175100D01*
X128994469Y-77175100D01*
X128866331Y-77175100D01*
X128866329Y-77175100D01*
X128740661Y-77200097D01*
X128740655Y-77200099D01*
X128622275Y-77249133D01*
X128622266Y-77249138D01*
X128515731Y-77320323D01*
X128515727Y-77320326D01*
X128425126Y-77410927D01*
X128425123Y-77410931D01*
X128353938Y-77517466D01*
X128353933Y-77517475D01*
X128304899Y-77635855D01*
X128304897Y-77635861D01*
X128279900Y-77761528D01*
X128279900Y-77761531D01*
X128279900Y-77889669D01*
X128279900Y-77889671D01*
X128279899Y-77889671D01*
X126079179Y-77889671D01*
X126095016Y-77877519D01*
X126270019Y-77702516D01*
X126277819Y-77692350D01*
X126287334Y-77679952D01*
X126376819Y-77563331D01*
X126420683Y-77506167D01*
X126544429Y-77291833D01*
X126639140Y-77063180D01*
X126676307Y-76924471D01*
X133817099Y-76924471D01*
X133842097Y-77050138D01*
X133842099Y-77050144D01*
X133891133Y-77168524D01*
X133891138Y-77168533D01*
X133962323Y-77275068D01*
X133962326Y-77275072D01*
X134052927Y-77365673D01*
X134052931Y-77365676D01*
X134159466Y-77436861D01*
X134159475Y-77436866D01*
X134186292Y-77447974D01*
X134277856Y-77485901D01*
X134277860Y-77485901D01*
X134277861Y-77485902D01*
X134403528Y-77510900D01*
X134403531Y-77510900D01*
X134531671Y-77510900D01*
X134616215Y-77494082D01*
X134657344Y-77485901D01*
X134775727Y-77436865D01*
X134882269Y-77365676D01*
X134972876Y-77275069D01*
X135044065Y-77168527D01*
X135093101Y-77050144D01*
X135114203Y-76944060D01*
X135118100Y-76924471D01*
X135118100Y-76796328D01*
X135093102Y-76670661D01*
X135093101Y-76670660D01*
X135093101Y-76670656D01*
X135050796Y-76568524D01*
X135044066Y-76552275D01*
X135044061Y-76552266D01*
X134972876Y-76445731D01*
X134972873Y-76445727D01*
X134882272Y-76355126D01*
X134882268Y-76355123D01*
X134836394Y-76324471D01*
X135276744Y-76324471D01*
X135301742Y-76450138D01*
X135301744Y-76450144D01*
X135350778Y-76568524D01*
X135350783Y-76568533D01*
X135421968Y-76675068D01*
X135421971Y-76675072D01*
X135512572Y-76765673D01*
X135512576Y-76765676D01*
X135619111Y-76836861D01*
X135619117Y-76836864D01*
X135619118Y-76836865D01*
X135737501Y-76885901D01*
X135863176Y-76910900D01*
X135867072Y-76911675D01*
X135928983Y-76944060D01*
X135963557Y-77004776D01*
X135964498Y-77009100D01*
X135973525Y-77054482D01*
X135973527Y-77054488D01*
X136022561Y-77172868D01*
X136022566Y-77172877D01*
X136093751Y-77279412D01*
X136093754Y-77279416D01*
X136184355Y-77370017D01*
X136184359Y-77370020D01*
X136290894Y-77441205D01*
X136290900Y-77441208D01*
X136290901Y-77441209D01*
X136409284Y-77490245D01*
X136409288Y-77490245D01*
X136409289Y-77490246D01*
X136443718Y-77497095D01*
X136505629Y-77529480D01*
X136540203Y-77590196D01*
X136541143Y-77594519D01*
X136564062Y-77709737D01*
X136564064Y-77709742D01*
X136613098Y-77828122D01*
X136613103Y-77828131D01*
X136684288Y-77934666D01*
X136684291Y-77934670D01*
X136774892Y-78025271D01*
X136774896Y-78025274D01*
X136881431Y-78096459D01*
X136881437Y-78096462D01*
X136881438Y-78096463D01*
X136999821Y-78145499D01*
X136999825Y-78145499D01*
X136999826Y-78145500D01*
X137125493Y-78170498D01*
X137125496Y-78170498D01*
X137253636Y-78170498D01*
X137347004Y-78151925D01*
X137379309Y-78145499D01*
X137497692Y-78096463D01*
X137604234Y-78025274D01*
X137694841Y-77934667D01*
X137766030Y-77828125D01*
X137815066Y-77709742D01*
X137829763Y-77635856D01*
X137840065Y-77584069D01*
X137840065Y-77455926D01*
X137815067Y-77330259D01*
X137815066Y-77330258D01*
X137815066Y-77330254D01*
X137766030Y-77211871D01*
X137766029Y-77211870D01*
X137766026Y-77211864D01*
X137694841Y-77105329D01*
X137694838Y-77105325D01*
X137667585Y-77078072D01*
X145436998Y-77078072D01*
X145461996Y-77203739D01*
X145461998Y-77203745D01*
X145511032Y-77322125D01*
X145511037Y-77322134D01*
X145582222Y-77428669D01*
X145582225Y-77428673D01*
X145672826Y-77519274D01*
X145672830Y-77519277D01*
X145779365Y-77590462D01*
X145779371Y-77590465D01*
X145779372Y-77590466D01*
X145897755Y-77639502D01*
X145897759Y-77639502D01*
X145897760Y-77639503D01*
X146023427Y-77664501D01*
X146023430Y-77664501D01*
X146151570Y-77664501D01*
X146236114Y-77647683D01*
X146277243Y-77639502D01*
X146395626Y-77590466D01*
X146502168Y-77519277D01*
X146592775Y-77428670D01*
X146663964Y-77322128D01*
X146713000Y-77203745D01*
X146732577Y-77105329D01*
X146737999Y-77078072D01*
X146737999Y-76949929D01*
X146713001Y-76824262D01*
X146713000Y-76824261D01*
X146713000Y-76824257D01*
X146663964Y-76705874D01*
X146663963Y-76705873D01*
X146663960Y-76705867D01*
X146592775Y-76599332D01*
X146592772Y-76599328D01*
X146502171Y-76508727D01*
X146502167Y-76508724D01*
X146395632Y-76437539D01*
X146395623Y-76437534D01*
X146277243Y-76388500D01*
X146277237Y-76388498D01*
X146151570Y-76363501D01*
X146151568Y-76363501D01*
X146023430Y-76363501D01*
X146023428Y-76363501D01*
X145897760Y-76388498D01*
X145897754Y-76388500D01*
X145779374Y-76437534D01*
X145779365Y-76437539D01*
X145672830Y-76508724D01*
X145672826Y-76508727D01*
X145582225Y-76599328D01*
X145582222Y-76599332D01*
X145511037Y-76705867D01*
X145511032Y-76705876D01*
X145461998Y-76824256D01*
X145461996Y-76824262D01*
X145436999Y-76949929D01*
X145436999Y-76949932D01*
X145436999Y-77078070D01*
X145436999Y-77078072D01*
X145436998Y-77078072D01*
X137667585Y-77078072D01*
X137604237Y-77014724D01*
X137604233Y-77014721D01*
X137497698Y-76943536D01*
X137497689Y-76943531D01*
X137379298Y-76894492D01*
X137377734Y-76894018D01*
X137377016Y-76893547D01*
X137373681Y-76892166D01*
X137373943Y-76891533D01*
X137319299Y-76855714D01*
X137290851Y-76791898D01*
X137301419Y-76722832D01*
X137344853Y-76672260D01*
X137371469Y-76654476D01*
X137462076Y-76563869D01*
X137533265Y-76457327D01*
X137582301Y-76338944D01*
X137596709Y-76266511D01*
X137607300Y-76213271D01*
X137607300Y-76107173D01*
X148151998Y-76107173D01*
X148176996Y-76232840D01*
X148176998Y-76232846D01*
X148226032Y-76351226D01*
X148226037Y-76351235D01*
X148297222Y-76457770D01*
X148297225Y-76457774D01*
X148387826Y-76548375D01*
X148387830Y-76548378D01*
X148494365Y-76619563D01*
X148494371Y-76619566D01*
X148494372Y-76619567D01*
X148612755Y-76668603D01*
X148612759Y-76668603D01*
X148612760Y-76668604D01*
X148738427Y-76693602D01*
X148738430Y-76693602D01*
X148866570Y-76693602D01*
X148959742Y-76675068D01*
X148992243Y-76668603D01*
X149110626Y-76619567D01*
X149217168Y-76548378D01*
X149307775Y-76457771D01*
X149378964Y-76351229D01*
X149428000Y-76232846D01*
X149443886Y-76152985D01*
X149452999Y-76107173D01*
X149452999Y-75979030D01*
X149428001Y-75853363D01*
X149428000Y-75853362D01*
X149428000Y-75853358D01*
X149384905Y-75749319D01*
X149377437Y-75679853D01*
X149408712Y-75617374D01*
X149411766Y-75614207D01*
X149431840Y-75594135D01*
X149503029Y-75487593D01*
X149552065Y-75369210D01*
X149575923Y-75249272D01*
X149577064Y-75243537D01*
X149577064Y-75115394D01*
X149552066Y-74989727D01*
X149552065Y-74989726D01*
X149552065Y-74989722D01*
X149503029Y-74871339D01*
X149503028Y-74871338D01*
X149503025Y-74871332D01*
X149431840Y-74764797D01*
X149431837Y-74764793D01*
X149341236Y-74674192D01*
X149341232Y-74674189D01*
X149234697Y-74603004D01*
X149234688Y-74602999D01*
X149116308Y-74553965D01*
X149116302Y-74553963D01*
X148990635Y-74528966D01*
X148990633Y-74528966D01*
X148862495Y-74528966D01*
X148862493Y-74528966D01*
X148736825Y-74553963D01*
X148736819Y-74553965D01*
X148618439Y-74602999D01*
X148618430Y-74603004D01*
X148511895Y-74674189D01*
X148511891Y-74674192D01*
X148421290Y-74764793D01*
X148421287Y-74764797D01*
X148350102Y-74871332D01*
X148350097Y-74871341D01*
X148301063Y-74989721D01*
X148301061Y-74989727D01*
X148276064Y-75115394D01*
X148276064Y-75115397D01*
X148276064Y-75243535D01*
X148276064Y-75243537D01*
X148276063Y-75243537D01*
X148301061Y-75369204D01*
X148301064Y-75369214D01*
X148344155Y-75473246D01*
X148351624Y-75542715D01*
X148320348Y-75605194D01*
X148317279Y-75608376D01*
X148297221Y-75628435D01*
X148297220Y-75628436D01*
X148226037Y-75734968D01*
X148226032Y-75734977D01*
X148176998Y-75853357D01*
X148176996Y-75853363D01*
X148151999Y-75979030D01*
X148151999Y-75979033D01*
X148151999Y-76107171D01*
X148151999Y-76107173D01*
X148151998Y-76107173D01*
X137607300Y-76107173D01*
X137607300Y-76085128D01*
X137589796Y-75997133D01*
X137582302Y-75959461D01*
X137582301Y-75959460D01*
X137582301Y-75959456D01*
X137538353Y-75853357D01*
X137533266Y-75841075D01*
X137533261Y-75841066D01*
X137462076Y-75734531D01*
X137462073Y-75734527D01*
X137371472Y-75643926D01*
X137371468Y-75643923D01*
X137264933Y-75572738D01*
X137264924Y-75572733D01*
X137146544Y-75523699D01*
X137146538Y-75523697D01*
X137020871Y-75498700D01*
X137020869Y-75498700D01*
X136892731Y-75498700D01*
X136892729Y-75498700D01*
X136767061Y-75523697D01*
X136767055Y-75523699D01*
X136648675Y-75572733D01*
X136648666Y-75572738D01*
X136542131Y-75643923D01*
X136467233Y-75718821D01*
X136405909Y-75752305D01*
X136336218Y-75747320D01*
X136310661Y-75734241D01*
X136235378Y-75683938D01*
X136235369Y-75683933D01*
X136116989Y-75634899D01*
X136116983Y-75634897D01*
X135991316Y-75609900D01*
X135991314Y-75609900D01*
X135863176Y-75609900D01*
X135863174Y-75609900D01*
X135737506Y-75634897D01*
X135737500Y-75634899D01*
X135619120Y-75683933D01*
X135619111Y-75683938D01*
X135512576Y-75755123D01*
X135512572Y-75755126D01*
X135421971Y-75845727D01*
X135421968Y-75845731D01*
X135350783Y-75952266D01*
X135350778Y-75952275D01*
X135301744Y-76070655D01*
X135301742Y-76070661D01*
X135276745Y-76196328D01*
X135276745Y-76196331D01*
X135276745Y-76324469D01*
X135276745Y-76324471D01*
X135276744Y-76324471D01*
X134836394Y-76324471D01*
X134789805Y-76293341D01*
X134775733Y-76283938D01*
X134775724Y-76283933D01*
X134657344Y-76234899D01*
X134657338Y-76234897D01*
X134531671Y-76209900D01*
X134531669Y-76209900D01*
X134403531Y-76209900D01*
X134403529Y-76209900D01*
X134277861Y-76234897D01*
X134277855Y-76234899D01*
X134159475Y-76283933D01*
X134159466Y-76283938D01*
X134052931Y-76355123D01*
X134052927Y-76355126D01*
X133962326Y-76445727D01*
X133962323Y-76445731D01*
X133891138Y-76552266D01*
X133891133Y-76552275D01*
X133842099Y-76670655D01*
X133842097Y-76670661D01*
X133817100Y-76796328D01*
X133817100Y-76796331D01*
X133817100Y-76924469D01*
X133817100Y-76924471D01*
X133817099Y-76924471D01*
X126676307Y-76924471D01*
X126703196Y-76824121D01*
X126735500Y-76578746D01*
X126735500Y-76331254D01*
X126703196Y-76085879D01*
X126639140Y-75846820D01*
X126544429Y-75618167D01*
X126544427Y-75618164D01*
X126544425Y-75618159D01*
X126420687Y-75403840D01*
X126420683Y-75403833D01*
X126302083Y-75249270D01*
X126270020Y-75207485D01*
X126270014Y-75207478D01*
X126095021Y-75032485D01*
X126095014Y-75032479D01*
X125898675Y-74881823D01*
X125898673Y-74881821D01*
X125898667Y-74881817D01*
X125898662Y-74881814D01*
X125898659Y-74881812D01*
X125684340Y-74758074D01*
X125684329Y-74758069D01*
X125455684Y-74663361D01*
X125292881Y-74619738D01*
X125216621Y-74599304D01*
X125216620Y-74599303D01*
X125216617Y-74599303D01*
X124971256Y-74567001D01*
X124971251Y-74567000D01*
X124971246Y-74567000D01*
X124723754Y-74567000D01*
X124723748Y-74567000D01*
X124723743Y-74567001D01*
X124478382Y-74599303D01*
X124239315Y-74663361D01*
X124010670Y-74758069D01*
X124010659Y-74758074D01*
X123796340Y-74881812D01*
X123796324Y-74881823D01*
X123599985Y-75032479D01*
X123599978Y-75032485D01*
X123424985Y-75207478D01*
X123424979Y-75207485D01*
X123274323Y-75403824D01*
X123274312Y-75403840D01*
X123150574Y-75618159D01*
X123150569Y-75618170D01*
X123055861Y-75846815D01*
X122991803Y-76085882D01*
X122959501Y-76331243D01*
X122959500Y-76331260D01*
X117321131Y-76331260D01*
X117321131Y-74190753D01*
X131685900Y-74190753D01*
X131685900Y-74348446D01*
X131716661Y-74503089D01*
X131716664Y-74503101D01*
X131777002Y-74648772D01*
X131777009Y-74648785D01*
X131864610Y-74779888D01*
X131864613Y-74779892D01*
X131976107Y-74891386D01*
X131976111Y-74891389D01*
X132107214Y-74978990D01*
X132107227Y-74978997D01*
X132252898Y-75039335D01*
X132252903Y-75039337D01*
X132407553Y-75070099D01*
X132407556Y-75070100D01*
X132407558Y-75070100D01*
X132565244Y-75070100D01*
X132565245Y-75070099D01*
X132719897Y-75039337D01*
X132865579Y-74978994D01*
X132974515Y-74906204D01*
X133041192Y-74885327D01*
X133108572Y-74903811D01*
X133155263Y-74955790D01*
X133165023Y-74985114D01*
X133181697Y-75068939D01*
X133181699Y-75068944D01*
X133230733Y-75187324D01*
X133230738Y-75187333D01*
X133301923Y-75293868D01*
X133301926Y-75293872D01*
X133392527Y-75384473D01*
X133392531Y-75384476D01*
X133499066Y-75455661D01*
X133499072Y-75455664D01*
X133499073Y-75455665D01*
X133617456Y-75504701D01*
X133617460Y-75504701D01*
X133617461Y-75504702D01*
X133743128Y-75529700D01*
X133743131Y-75529700D01*
X133871271Y-75529700D01*
X133955815Y-75512882D01*
X133996944Y-75504701D01*
X134115327Y-75455665D01*
X134221869Y-75384476D01*
X134312476Y-75293869D01*
X134342275Y-75249272D01*
X146300598Y-75249272D01*
X146325596Y-75374939D01*
X146325598Y-75374945D01*
X146374632Y-75493325D01*
X146374637Y-75493334D01*
X146445822Y-75599869D01*
X146445825Y-75599873D01*
X146536426Y-75690474D01*
X146536430Y-75690477D01*
X146642965Y-75761662D01*
X146642971Y-75761665D01*
X146642972Y-75761666D01*
X146761355Y-75810702D01*
X146761359Y-75810702D01*
X146761360Y-75810703D01*
X146887027Y-75835701D01*
X146887030Y-75835701D01*
X147015170Y-75835701D01*
X147099714Y-75818883D01*
X147140843Y-75810702D01*
X147259226Y-75761666D01*
X147365768Y-75690477D01*
X147456375Y-75599870D01*
X147527564Y-75493328D01*
X147576600Y-75374945D01*
X147592727Y-75293872D01*
X147601599Y-75249272D01*
X147601599Y-75121129D01*
X147576601Y-74995462D01*
X147576600Y-74995461D01*
X147576600Y-74995457D01*
X147537530Y-74901133D01*
X147527565Y-74877076D01*
X147527560Y-74877067D01*
X147456375Y-74770532D01*
X147456372Y-74770528D01*
X147365771Y-74679927D01*
X147365767Y-74679924D01*
X147259232Y-74608739D01*
X147259223Y-74608734D01*
X147140843Y-74559700D01*
X147140837Y-74559698D01*
X147015170Y-74534701D01*
X147015168Y-74534701D01*
X146887030Y-74534701D01*
X146887028Y-74534701D01*
X146761360Y-74559698D01*
X146761354Y-74559700D01*
X146642974Y-74608734D01*
X146642965Y-74608739D01*
X146536430Y-74679924D01*
X146536426Y-74679927D01*
X146445825Y-74770528D01*
X146445822Y-74770532D01*
X146374637Y-74877067D01*
X146374632Y-74877076D01*
X146325598Y-74995456D01*
X146325596Y-74995462D01*
X146300599Y-75121129D01*
X146300599Y-75121132D01*
X146300599Y-75249270D01*
X146300599Y-75249272D01*
X146300598Y-75249272D01*
X134342275Y-75249272D01*
X134383665Y-75187327D01*
X134432701Y-75068944D01*
X134449376Y-74985114D01*
X134457700Y-74943271D01*
X134457700Y-74815128D01*
X134432702Y-74689461D01*
X134432701Y-74689460D01*
X134432701Y-74689456D01*
X134383665Y-74571073D01*
X134383664Y-74571072D01*
X134383661Y-74571066D01*
X134312476Y-74464531D01*
X134312473Y-74464527D01*
X134236689Y-74388743D01*
X144895597Y-74388743D01*
X144920595Y-74514410D01*
X144920597Y-74514416D01*
X144969631Y-74632796D01*
X144969636Y-74632805D01*
X145040821Y-74739340D01*
X145040824Y-74739344D01*
X145131425Y-74829945D01*
X145131429Y-74829948D01*
X145237964Y-74901133D01*
X145237973Y-74901138D01*
X145250206Y-74906205D01*
X145356354Y-74950173D01*
X145356358Y-74950173D01*
X145356359Y-74950174D01*
X145482026Y-74975172D01*
X145482029Y-74975172D01*
X145610169Y-74975172D01*
X145707604Y-74955790D01*
X145735842Y-74950173D01*
X145854225Y-74901137D01*
X145960767Y-74829948D01*
X146051374Y-74739341D01*
X146122563Y-74632799D01*
X146171599Y-74514416D01*
X146181523Y-74464527D01*
X146196598Y-74388743D01*
X146196598Y-74260600D01*
X146171600Y-74134933D01*
X146171599Y-74134932D01*
X146171599Y-74134928D01*
X146122563Y-74016545D01*
X146122562Y-74016544D01*
X146122559Y-74016538D01*
X146051374Y-73910003D01*
X146051371Y-73909999D01*
X145960770Y-73819398D01*
X145960766Y-73819395D01*
X145854231Y-73748210D01*
X145854222Y-73748205D01*
X145735842Y-73699171D01*
X145735836Y-73699169D01*
X145610169Y-73674172D01*
X145610167Y-73674172D01*
X145482029Y-73674172D01*
X145482027Y-73674172D01*
X145356359Y-73699169D01*
X145356353Y-73699171D01*
X145237973Y-73748205D01*
X145237964Y-73748210D01*
X145131429Y-73819395D01*
X145131425Y-73819398D01*
X145040824Y-73909999D01*
X145040821Y-73910003D01*
X144969636Y-74016538D01*
X144969631Y-74016547D01*
X144920597Y-74134927D01*
X144920595Y-74134933D01*
X144895598Y-74260600D01*
X144895598Y-74260603D01*
X144895598Y-74388741D01*
X144895598Y-74388743D01*
X144895597Y-74388743D01*
X134236689Y-74388743D01*
X134221871Y-74373925D01*
X134197459Y-74357614D01*
X134197458Y-74357613D01*
X134115333Y-74302738D01*
X134115324Y-74302733D01*
X133996944Y-74253699D01*
X133996938Y-74253697D01*
X133871271Y-74228700D01*
X133871269Y-74228700D01*
X133743131Y-74228700D01*
X133743129Y-74228700D01*
X133617461Y-74253697D01*
X133617455Y-74253699D01*
X133499075Y-74302733D01*
X133499068Y-74302737D01*
X133479790Y-74315619D01*
X133413113Y-74336496D01*
X133345733Y-74318011D01*
X133299043Y-74266032D01*
X133286900Y-74212516D01*
X133286900Y-74190755D01*
X133286899Y-74190753D01*
X133256137Y-74036103D01*
X133211710Y-73928846D01*
X133195797Y-73890427D01*
X133195790Y-73890414D01*
X133108189Y-73759311D01*
X133108186Y-73759307D01*
X132996692Y-73647813D01*
X132996688Y-73647810D01*
X132865585Y-73560209D01*
X132865572Y-73560202D01*
X132719901Y-73499864D01*
X132719889Y-73499861D01*
X132565245Y-73469100D01*
X132565242Y-73469100D01*
X132407558Y-73469100D01*
X132407555Y-73469100D01*
X132252910Y-73499861D01*
X132252898Y-73499864D01*
X132107227Y-73560202D01*
X132107214Y-73560209D01*
X131976111Y-73647810D01*
X131976107Y-73647813D01*
X131864613Y-73759307D01*
X131864610Y-73759311D01*
X131777009Y-73890414D01*
X131777002Y-73890427D01*
X131716664Y-74036098D01*
X131716661Y-74036110D01*
X131685900Y-74190753D01*
X117321131Y-74190753D01*
X117321131Y-70319635D01*
X122959500Y-70319635D01*
X122959500Y-73190370D01*
X122959501Y-73190376D01*
X122965908Y-73249983D01*
X123016202Y-73384828D01*
X123016206Y-73384835D01*
X123102452Y-73500044D01*
X123102455Y-73500047D01*
X123217664Y-73586293D01*
X123217671Y-73586297D01*
X123352517Y-73636591D01*
X123352516Y-73636591D01*
X123359444Y-73637335D01*
X123412127Y-73643000D01*
X126282872Y-73642999D01*
X126342483Y-73636591D01*
X126477331Y-73586296D01*
X126592546Y-73500046D01*
X126678796Y-73384831D01*
X126729091Y-73249983D01*
X126735500Y-73190373D01*
X126735500Y-72708071D01*
X143062699Y-72708071D01*
X143087697Y-72833738D01*
X143087699Y-72833744D01*
X143136733Y-72952124D01*
X143136738Y-72952133D01*
X143207923Y-73058668D01*
X143207926Y-73058672D01*
X143298527Y-73149273D01*
X143298531Y-73149276D01*
X143405066Y-73220461D01*
X143405072Y-73220464D01*
X143405073Y-73220465D01*
X143523456Y-73269501D01*
X143523460Y-73269501D01*
X143523461Y-73269502D01*
X143649128Y-73294500D01*
X143649131Y-73294500D01*
X143777271Y-73294500D01*
X143861815Y-73277682D01*
X143902944Y-73269501D01*
X144021327Y-73220465D01*
X144127869Y-73149276D01*
X144218476Y-73058669D01*
X144289665Y-72952127D01*
X144338701Y-72833744D01*
X144363700Y-72708069D01*
X144363700Y-72579931D01*
X144363700Y-72579928D01*
X144338702Y-72454261D01*
X144338701Y-72454260D01*
X144338701Y-72454256D01*
X144289665Y-72335873D01*
X144289664Y-72335872D01*
X144289661Y-72335866D01*
X144218476Y-72229331D01*
X144218473Y-72229327D01*
X144127872Y-72138726D01*
X144127868Y-72138723D01*
X144021333Y-72067538D01*
X144021324Y-72067533D01*
X143902944Y-72018499D01*
X143902938Y-72018497D01*
X143777271Y-71993500D01*
X143777269Y-71993500D01*
X143649131Y-71993500D01*
X143649129Y-71993500D01*
X143523461Y-72018497D01*
X143523455Y-72018499D01*
X143405075Y-72067533D01*
X143405066Y-72067538D01*
X143298531Y-72138723D01*
X143298527Y-72138726D01*
X143207926Y-72229327D01*
X143207923Y-72229331D01*
X143136738Y-72335866D01*
X143136733Y-72335875D01*
X143087699Y-72454255D01*
X143087697Y-72454261D01*
X143062700Y-72579928D01*
X143062700Y-72579931D01*
X143062700Y-72708069D01*
X143062700Y-72708071D01*
X143062699Y-72708071D01*
X126735500Y-72708071D01*
X126735499Y-71946071D01*
X136255499Y-71946071D01*
X136280497Y-72071738D01*
X136280499Y-72071744D01*
X136329533Y-72190124D01*
X136329538Y-72190133D01*
X136400723Y-72296668D01*
X136400726Y-72296672D01*
X136491327Y-72387273D01*
X136491331Y-72387276D01*
X136597866Y-72458461D01*
X136597875Y-72458466D01*
X136624692Y-72469574D01*
X136716256Y-72507501D01*
X136716260Y-72507501D01*
X136716261Y-72507502D01*
X136841928Y-72532500D01*
X136841931Y-72532500D01*
X136970071Y-72532500D01*
X137086212Y-72509397D01*
X137095744Y-72507501D01*
X137133160Y-72492002D01*
X137212166Y-72459278D01*
X137212166Y-72459277D01*
X137213147Y-72458870D01*
X137214118Y-72458469D01*
X137214120Y-72458467D01*
X137214127Y-72458465D01*
X137320669Y-72387276D01*
X137411276Y-72296669D01*
X137482465Y-72190127D01*
X137531501Y-72071744D01*
X137556500Y-71946069D01*
X137556500Y-71817931D01*
X137556500Y-71817928D01*
X137531502Y-71692261D01*
X137531501Y-71692260D01*
X137531501Y-71692256D01*
X137482465Y-71573873D01*
X137482464Y-71573872D01*
X137482461Y-71573866D01*
X137411276Y-71467331D01*
X137411273Y-71467327D01*
X137320672Y-71376726D01*
X137320668Y-71376723D01*
X137260427Y-71336471D01*
X139557499Y-71336471D01*
X139582497Y-71462138D01*
X139582499Y-71462144D01*
X139631533Y-71580524D01*
X139631538Y-71580533D01*
X139702723Y-71687068D01*
X139702726Y-71687072D01*
X139793327Y-71777673D01*
X139793331Y-71777676D01*
X139899866Y-71848861D01*
X139899872Y-71848864D01*
X139899873Y-71848865D01*
X140018256Y-71897901D01*
X140018260Y-71897901D01*
X140018261Y-71897902D01*
X140143928Y-71922900D01*
X140143931Y-71922900D01*
X140272071Y-71922900D01*
X140356615Y-71906082D01*
X140397744Y-71897901D01*
X140516127Y-71848865D01*
X140622669Y-71777676D01*
X140713276Y-71687069D01*
X140784465Y-71580527D01*
X140833501Y-71462144D01*
X140841721Y-71420821D01*
X140858500Y-71336471D01*
X140858500Y-71208328D01*
X140833502Y-71082661D01*
X140833501Y-71082660D01*
X140833501Y-71082656D01*
X140792428Y-70983497D01*
X140784466Y-70964275D01*
X140784461Y-70964266D01*
X140713276Y-70857731D01*
X140713273Y-70857727D01*
X140622672Y-70767126D01*
X140622668Y-70767123D01*
X140516133Y-70695938D01*
X140516124Y-70695933D01*
X140397744Y-70646899D01*
X140397738Y-70646897D01*
X140272071Y-70621900D01*
X140272069Y-70621900D01*
X140143931Y-70621900D01*
X140143929Y-70621900D01*
X140018261Y-70646897D01*
X140018255Y-70646899D01*
X139899875Y-70695933D01*
X139899866Y-70695938D01*
X139793331Y-70767123D01*
X139793327Y-70767126D01*
X139702726Y-70857727D01*
X139702723Y-70857731D01*
X139631538Y-70964266D01*
X139631533Y-70964275D01*
X139582499Y-71082655D01*
X139582497Y-71082661D01*
X139557500Y-71208328D01*
X139557500Y-71208331D01*
X139557500Y-71336469D01*
X139557500Y-71336471D01*
X139557499Y-71336471D01*
X137260427Y-71336471D01*
X137214134Y-71305539D01*
X137214124Y-71305533D01*
X137095744Y-71256499D01*
X137095738Y-71256497D01*
X136970071Y-71231500D01*
X136970069Y-71231500D01*
X136841931Y-71231500D01*
X136841929Y-71231500D01*
X136716261Y-71256497D01*
X136716255Y-71256499D01*
X136597875Y-71305533D01*
X136597866Y-71305538D01*
X136491331Y-71376723D01*
X136491327Y-71376726D01*
X136400726Y-71467327D01*
X136400723Y-71467331D01*
X136329538Y-71573866D01*
X136329533Y-71573875D01*
X136280499Y-71692255D01*
X136280497Y-71692261D01*
X136255500Y-71817928D01*
X136255500Y-71817931D01*
X136255500Y-71946069D01*
X136255500Y-71946071D01*
X136255499Y-71946071D01*
X126735499Y-71946071D01*
X126735499Y-71740609D01*
X126735499Y-70319629D01*
X126735498Y-70319623D01*
X126735497Y-70319616D01*
X126729091Y-70260017D01*
X126723196Y-70244213D01*
X126678797Y-70125171D01*
X126678793Y-70125164D01*
X126592547Y-70009955D01*
X126592544Y-70009952D01*
X126532324Y-69964871D01*
X136611099Y-69964871D01*
X136636097Y-70090538D01*
X136636099Y-70090544D01*
X136685133Y-70208924D01*
X136685138Y-70208933D01*
X136756323Y-70315468D01*
X136756326Y-70315472D01*
X136846927Y-70406073D01*
X136846931Y-70406076D01*
X136953466Y-70477261D01*
X136953472Y-70477264D01*
X136953473Y-70477265D01*
X137071856Y-70526301D01*
X137071860Y-70526301D01*
X137071861Y-70526302D01*
X137197528Y-70551300D01*
X137197531Y-70551300D01*
X137325671Y-70551300D01*
X137410215Y-70534482D01*
X137451344Y-70526301D01*
X137569727Y-70477265D01*
X137652331Y-70422071D01*
X142149399Y-70422071D01*
X142174397Y-70547738D01*
X142174399Y-70547744D01*
X142223433Y-70666124D01*
X142223438Y-70666133D01*
X142294623Y-70772668D01*
X142294626Y-70772672D01*
X142385227Y-70863273D01*
X142385231Y-70863276D01*
X142491766Y-70934461D01*
X142491772Y-70934464D01*
X142491773Y-70934465D01*
X142610156Y-70983501D01*
X142610160Y-70983501D01*
X142610161Y-70983502D01*
X142735828Y-71008500D01*
X142735831Y-71008500D01*
X142863971Y-71008500D01*
X142948515Y-70991682D01*
X142989644Y-70983501D01*
X143108027Y-70934465D01*
X143214569Y-70863276D01*
X143290692Y-70787153D01*
X150329500Y-70787153D01*
X150329500Y-70944846D01*
X150360261Y-71099489D01*
X150360264Y-71099501D01*
X150420602Y-71245172D01*
X150420609Y-71245185D01*
X150471906Y-71321956D01*
X150492784Y-71388634D01*
X150483366Y-71438299D01*
X150471343Y-71467327D01*
X150430263Y-71566503D01*
X150430262Y-71566506D01*
X150430262Y-71566507D01*
X150430261Y-71566510D01*
X150399500Y-71721153D01*
X150399500Y-71878846D01*
X150430261Y-72033489D01*
X150430264Y-72033501D01*
X150490602Y-72179172D01*
X150490609Y-72179185D01*
X150578210Y-72310288D01*
X150578213Y-72310292D01*
X150689707Y-72421786D01*
X150689711Y-72421789D01*
X150820814Y-72509390D01*
X150820827Y-72509397D01*
X150957807Y-72566135D01*
X150966503Y-72569737D01*
X151106845Y-72597653D01*
X151121153Y-72600499D01*
X151121156Y-72600500D01*
X151121158Y-72600500D01*
X151278844Y-72600500D01*
X151278845Y-72600499D01*
X151433497Y-72569737D01*
X151477546Y-72551490D01*
X151547015Y-72544021D01*
X151572454Y-72551491D01*
X151616497Y-72569735D01*
X151616499Y-72569735D01*
X151616503Y-72569737D01*
X151756845Y-72597653D01*
X151771153Y-72600499D01*
X151771156Y-72600500D01*
X151771158Y-72600500D01*
X151928844Y-72600500D01*
X151928845Y-72600499D01*
X152083497Y-72569737D01*
X152127546Y-72551490D01*
X152197015Y-72544021D01*
X152222454Y-72551491D01*
X152266497Y-72569735D01*
X152266499Y-72569735D01*
X152266503Y-72569737D01*
X152406845Y-72597653D01*
X152421153Y-72600499D01*
X152421156Y-72600500D01*
X152421158Y-72600500D01*
X152578844Y-72600500D01*
X152578845Y-72600499D01*
X152733497Y-72569737D01*
X152777546Y-72551490D01*
X152847015Y-72544021D01*
X152872454Y-72551491D01*
X152916497Y-72569735D01*
X152916499Y-72569735D01*
X152916503Y-72569737D01*
X153056845Y-72597653D01*
X153071153Y-72600499D01*
X153071156Y-72600500D01*
X153071158Y-72600500D01*
X153228844Y-72600500D01*
X153228845Y-72600499D01*
X153383497Y-72569737D01*
X153392186Y-72566137D01*
X153461652Y-72558665D01*
X153487093Y-72566134D01*
X153501953Y-72572289D01*
X153556356Y-72616130D01*
X153576117Y-72662656D01*
X153580263Y-72683497D01*
X153590441Y-72708069D01*
X153608865Y-72752549D01*
X153616333Y-72822018D01*
X153608865Y-72847447D01*
X153580263Y-72916503D01*
X153580262Y-72916506D01*
X153580260Y-72916511D01*
X153549500Y-73071153D01*
X153549500Y-73228846D01*
X153580260Y-73383488D01*
X153580262Y-73383493D01*
X153580263Y-73383497D01*
X153608864Y-73452547D01*
X153608865Y-73452549D01*
X153616333Y-73522018D01*
X153608865Y-73547447D01*
X153580263Y-73616503D01*
X153580262Y-73616506D01*
X153580260Y-73616511D01*
X153549500Y-73771153D01*
X153549500Y-73928846D01*
X153580261Y-74083489D01*
X153580264Y-74083501D01*
X153640602Y-74229172D01*
X153640609Y-74229185D01*
X153728210Y-74360288D01*
X153728213Y-74360292D01*
X153802000Y-74434079D01*
X153835485Y-74495402D01*
X153830501Y-74565094D01*
X153788629Y-74621027D01*
X153738511Y-74643377D01*
X153643856Y-74662205D01*
X153643850Y-74662207D01*
X153525470Y-74711241D01*
X153525461Y-74711246D01*
X153418926Y-74782431D01*
X153418922Y-74782434D01*
X153328321Y-74873035D01*
X153328318Y-74873039D01*
X153257133Y-74979574D01*
X153257128Y-74979583D01*
X153208094Y-75097963D01*
X153208092Y-75097969D01*
X153183095Y-75223636D01*
X153183095Y-75223639D01*
X153183095Y-75351777D01*
X153183095Y-75351779D01*
X153183094Y-75351779D01*
X153208092Y-75477446D01*
X153208094Y-75477452D01*
X153257128Y-75595832D01*
X153257133Y-75595841D01*
X153328318Y-75702376D01*
X153328321Y-75702380D01*
X153418922Y-75792981D01*
X153418926Y-75792984D01*
X153525461Y-75864169D01*
X153525467Y-75864172D01*
X153525468Y-75864173D01*
X153643851Y-75913209D01*
X153643855Y-75913209D01*
X153643856Y-75913210D01*
X153769523Y-75938208D01*
X153769526Y-75938208D01*
X153897666Y-75938208D01*
X153982210Y-75921390D01*
X154023339Y-75913209D01*
X154141722Y-75864173D01*
X154248264Y-75792984D01*
X154338871Y-75702377D01*
X154410060Y-75595835D01*
X154459096Y-75477452D01*
X154477591Y-75384473D01*
X154484095Y-75351779D01*
X154484095Y-75223636D01*
X154459097Y-75097969D01*
X154459096Y-75097968D01*
X154459096Y-75097964D01*
X154410060Y-74979581D01*
X154410059Y-74979580D01*
X154410056Y-74979574D01*
X154338871Y-74873039D01*
X154338868Y-74873035D01*
X154328014Y-74862181D01*
X154294529Y-74800858D01*
X154299513Y-74731166D01*
X154341385Y-74675233D01*
X154406849Y-74650816D01*
X154415695Y-74650500D01*
X154428844Y-74650500D01*
X154428845Y-74650499D01*
X154583497Y-74619737D01*
X154729179Y-74559394D01*
X154860289Y-74471789D01*
X154971789Y-74360289D01*
X155059394Y-74229179D01*
X155059593Y-74228700D01*
X155075310Y-74190753D01*
X155119737Y-74083497D01*
X155150500Y-73928842D01*
X155150500Y-73771158D01*
X155150500Y-73771155D01*
X155150499Y-73771153D01*
X155125965Y-73647813D01*
X155119737Y-73616503D01*
X155091134Y-73547450D01*
X155083666Y-73477984D01*
X155091133Y-73452552D01*
X155119737Y-73383497D01*
X155150500Y-73228842D01*
X155150500Y-73071158D01*
X155150500Y-73071155D01*
X155150499Y-73071153D01*
X155126823Y-72952127D01*
X155119737Y-72916503D01*
X155091134Y-72847450D01*
X155083666Y-72777984D01*
X155091133Y-72752552D01*
X155119737Y-72683497D01*
X155150500Y-72528842D01*
X155150500Y-72371158D01*
X155150500Y-72371155D01*
X155150499Y-72371153D01*
X155135683Y-72296668D01*
X155119737Y-72216503D01*
X155108811Y-72190124D01*
X155059397Y-72070827D01*
X155059390Y-72070814D01*
X154971789Y-71939711D01*
X154971786Y-71939707D01*
X154860292Y-71828213D01*
X154860288Y-71828210D01*
X154729185Y-71740609D01*
X154729175Y-71740604D01*
X154698046Y-71727710D01*
X154643643Y-71683869D01*
X154623881Y-71637339D01*
X154619737Y-71616503D01*
X154599028Y-71566507D01*
X154559397Y-71470827D01*
X154559390Y-71470814D01*
X154471789Y-71339711D01*
X154471786Y-71339707D01*
X154360292Y-71228213D01*
X154360288Y-71228210D01*
X154229185Y-71140609D01*
X154229172Y-71140602D01*
X154083501Y-71080264D01*
X154083489Y-71080261D01*
X153928845Y-71049500D01*
X153928842Y-71049500D01*
X153771158Y-71049500D01*
X153771156Y-71049500D01*
X153616505Y-71080262D01*
X153616503Y-71080262D01*
X153607804Y-71083866D01*
X153538334Y-71091332D01*
X153512898Y-71083862D01*
X153506093Y-71081043D01*
X153451691Y-71037200D01*
X153429629Y-70970906D01*
X153431933Y-70942292D01*
X153454500Y-70828844D01*
X153454500Y-70671155D01*
X153454499Y-70671153D01*
X153453499Y-70666124D01*
X153423737Y-70516503D01*
X153406318Y-70474452D01*
X153398849Y-70404986D01*
X153406316Y-70379552D01*
X153423737Y-70337497D01*
X153454500Y-70182842D01*
X153454500Y-70025158D01*
X153454500Y-70025155D01*
X153454499Y-70025153D01*
X153442508Y-69964869D01*
X153423737Y-69870503D01*
X153423735Y-69870498D01*
X153363397Y-69724827D01*
X153363390Y-69724814D01*
X153275789Y-69593711D01*
X153275786Y-69593707D01*
X153164292Y-69482213D01*
X153164288Y-69482210D01*
X153033185Y-69394609D01*
X153033172Y-69394602D01*
X152887501Y-69334264D01*
X152887489Y-69334261D01*
X152732845Y-69303500D01*
X152732842Y-69303500D01*
X152575158Y-69303500D01*
X152575155Y-69303500D01*
X152420510Y-69334261D01*
X152420498Y-69334264D01*
X152274827Y-69394602D01*
X152274814Y-69394609D01*
X152143711Y-69482210D01*
X152143707Y-69482213D01*
X152032213Y-69593707D01*
X152032210Y-69593711D01*
X151944609Y-69724814D01*
X151944602Y-69724827D01*
X151884264Y-69870498D01*
X151884261Y-69870508D01*
X151862970Y-69977545D01*
X151830585Y-70039456D01*
X151777308Y-70072026D01*
X151771493Y-70073787D01*
X151658503Y-70096263D01*
X151552801Y-70140045D01*
X151546955Y-70141817D01*
X151517884Y-70142066D01*
X151488983Y-70145174D01*
X151479522Y-70142396D01*
X151477088Y-70142417D01*
X151474904Y-70141039D01*
X151463549Y-70137705D01*
X151363497Y-70096263D01*
X151363489Y-70096261D01*
X151208845Y-70065500D01*
X151208842Y-70065500D01*
X151051158Y-70065500D01*
X151051155Y-70065500D01*
X150896510Y-70096261D01*
X150896498Y-70096264D01*
X150750827Y-70156602D01*
X150750814Y-70156609D01*
X150619711Y-70244210D01*
X150619707Y-70244213D01*
X150508213Y-70355707D01*
X150508210Y-70355711D01*
X150420609Y-70486814D01*
X150420602Y-70486827D01*
X150360264Y-70632498D01*
X150360261Y-70632510D01*
X150329500Y-70787153D01*
X143290692Y-70787153D01*
X143305176Y-70772669D01*
X143376365Y-70666127D01*
X143425401Y-70547744D01*
X143433582Y-70506615D01*
X143450400Y-70422071D01*
X143450400Y-70293928D01*
X143425402Y-70168261D01*
X143425401Y-70168260D01*
X143425401Y-70168256D01*
X143376365Y-70049873D01*
X143376364Y-70049872D01*
X143376361Y-70049866D01*
X143305176Y-69943331D01*
X143305173Y-69943327D01*
X143214572Y-69852726D01*
X143214568Y-69852723D01*
X143108033Y-69781538D01*
X143108024Y-69781533D01*
X142989644Y-69732499D01*
X142989638Y-69732497D01*
X142863971Y-69707500D01*
X142863969Y-69707500D01*
X142735831Y-69707500D01*
X142735829Y-69707500D01*
X142610161Y-69732497D01*
X142610155Y-69732499D01*
X142491775Y-69781533D01*
X142491766Y-69781538D01*
X142385231Y-69852723D01*
X142385227Y-69852726D01*
X142294626Y-69943327D01*
X142294623Y-69943331D01*
X142223438Y-70049866D01*
X142223433Y-70049875D01*
X142174399Y-70168255D01*
X142174397Y-70168261D01*
X142149400Y-70293928D01*
X142149400Y-70293931D01*
X142149400Y-70422069D01*
X142149400Y-70422071D01*
X142149399Y-70422071D01*
X137652331Y-70422071D01*
X137676269Y-70406076D01*
X137766876Y-70315469D01*
X137803928Y-70260017D01*
X137831370Y-70218948D01*
X137838062Y-70208931D01*
X137838065Y-70208927D01*
X137887101Y-70090544D01*
X137897263Y-70039456D01*
X137912100Y-69964871D01*
X137912100Y-69836728D01*
X137887102Y-69711061D01*
X137887101Y-69711060D01*
X137887101Y-69711056D01*
X137849174Y-69619492D01*
X137838066Y-69592675D01*
X137838061Y-69592666D01*
X137766876Y-69486131D01*
X137766873Y-69486127D01*
X137676272Y-69395526D01*
X137676268Y-69395523D01*
X137569733Y-69324338D01*
X137569724Y-69324333D01*
X137451344Y-69275299D01*
X137451338Y-69275297D01*
X137325671Y-69250300D01*
X137325669Y-69250300D01*
X137197531Y-69250300D01*
X137197529Y-69250300D01*
X137071861Y-69275297D01*
X137071855Y-69275299D01*
X136953475Y-69324333D01*
X136953466Y-69324338D01*
X136846931Y-69395523D01*
X136846927Y-69395526D01*
X136756326Y-69486127D01*
X136756323Y-69486131D01*
X136685138Y-69592666D01*
X136685133Y-69592675D01*
X136636099Y-69711055D01*
X136636097Y-69711061D01*
X136611100Y-69836728D01*
X136611100Y-69836731D01*
X136611100Y-69964869D01*
X136611100Y-69964871D01*
X136611099Y-69964871D01*
X126532324Y-69964871D01*
X126477335Y-69923706D01*
X126477328Y-69923702D01*
X126342482Y-69873408D01*
X126342483Y-69873408D01*
X126282883Y-69867001D01*
X126282881Y-69867000D01*
X126282873Y-69867000D01*
X126282864Y-69867000D01*
X123412129Y-69867000D01*
X123412123Y-69867001D01*
X123352516Y-69873408D01*
X123217671Y-69923702D01*
X123217664Y-69923706D01*
X123102455Y-70009952D01*
X123102452Y-70009955D01*
X123016206Y-70125164D01*
X123016202Y-70125171D01*
X122965908Y-70260017D01*
X122959501Y-70319616D01*
X122959501Y-70319623D01*
X122959500Y-70319635D01*
X117321131Y-70319635D01*
X117321131Y-69253671D01*
X133004299Y-69253671D01*
X133029297Y-69379338D01*
X133029299Y-69379344D01*
X133078333Y-69497724D01*
X133078338Y-69497733D01*
X133149523Y-69604268D01*
X133149526Y-69604272D01*
X133240127Y-69694873D01*
X133240131Y-69694876D01*
X133346666Y-69766061D01*
X133346675Y-69766066D01*
X133360492Y-69771789D01*
X133465056Y-69815101D01*
X133465060Y-69815101D01*
X133465061Y-69815102D01*
X133590728Y-69840100D01*
X133590731Y-69840100D01*
X133718871Y-69840100D01*
X133803415Y-69823282D01*
X133844544Y-69815101D01*
X133962927Y-69766065D01*
X133962933Y-69766061D01*
X134020589Y-69727537D01*
X134045255Y-69711055D01*
X134069469Y-69694876D01*
X134160076Y-69604269D01*
X134231265Y-69497727D01*
X134280301Y-69379344D01*
X134295388Y-69303500D01*
X134305300Y-69253671D01*
X134305300Y-69125528D01*
X134280302Y-68999861D01*
X134280301Y-68999860D01*
X134280301Y-68999856D01*
X134231265Y-68881473D01*
X134231264Y-68881472D01*
X134231261Y-68881466D01*
X134160076Y-68774931D01*
X134160073Y-68774927D01*
X134069472Y-68684326D01*
X134069468Y-68684323D01*
X133962933Y-68613138D01*
X133962924Y-68613133D01*
X133844544Y-68564099D01*
X133844538Y-68564097D01*
X133718871Y-68539100D01*
X133718869Y-68539100D01*
X133590731Y-68539100D01*
X133590729Y-68539100D01*
X133465061Y-68564097D01*
X133465055Y-68564099D01*
X133346675Y-68613133D01*
X133346666Y-68613138D01*
X133240131Y-68684323D01*
X133240127Y-68684326D01*
X133149526Y-68774927D01*
X133149523Y-68774931D01*
X133078338Y-68881466D01*
X133078333Y-68881475D01*
X133029299Y-68999855D01*
X133029297Y-68999861D01*
X133004300Y-69125528D01*
X133004300Y-69125531D01*
X133004300Y-69253669D01*
X133004300Y-69253671D01*
X133004299Y-69253671D01*
X117321131Y-69253671D01*
X117321131Y-68371153D01*
X146999500Y-68371153D01*
X146999500Y-68528846D01*
X147030260Y-68683488D01*
X147030262Y-68683493D01*
X147030263Y-68683497D01*
X147058864Y-68752547D01*
X147058865Y-68752549D01*
X147066333Y-68822018D01*
X147058865Y-68847447D01*
X147030263Y-68916503D01*
X147030262Y-68916506D01*
X147030260Y-68916511D01*
X146999500Y-69071153D01*
X146999500Y-69228846D01*
X147030261Y-69383489D01*
X147030264Y-69383501D01*
X147090602Y-69529172D01*
X147090609Y-69529185D01*
X147178210Y-69660288D01*
X147178213Y-69660292D01*
X147289707Y-69771786D01*
X147289711Y-69771789D01*
X147420814Y-69859390D01*
X147420827Y-69859397D01*
X147566498Y-69919735D01*
X147566503Y-69919737D01*
X147721153Y-69950499D01*
X147721156Y-69950500D01*
X147721158Y-69950500D01*
X147878844Y-69950500D01*
X147878845Y-69950499D01*
X148033497Y-69919737D01*
X148127550Y-69880778D01*
X148197016Y-69873310D01*
X148222443Y-69880775D01*
X148316503Y-69919737D01*
X148471153Y-69950499D01*
X148471156Y-69950500D01*
X148471158Y-69950500D01*
X148628844Y-69950500D01*
X148628845Y-69950499D01*
X148783497Y-69919737D01*
X148910816Y-69867000D01*
X148929172Y-69859397D01*
X148929172Y-69859396D01*
X148929179Y-69859394D01*
X149060289Y-69771789D01*
X149171789Y-69660289D01*
X149259394Y-69529179D01*
X149319737Y-69383497D01*
X149350500Y-69228842D01*
X149350500Y-69071158D01*
X149350500Y-69071155D01*
X149350499Y-69071153D01*
X149336317Y-68999855D01*
X149319737Y-68916503D01*
X149291134Y-68847450D01*
X149283666Y-68777984D01*
X149291133Y-68752552D01*
X149319737Y-68683497D01*
X149350500Y-68528842D01*
X149350500Y-68371158D01*
X149350500Y-68371155D01*
X149350499Y-68371153D01*
X149319738Y-68216510D01*
X149319737Y-68216503D01*
X149319735Y-68216498D01*
X149259397Y-68070827D01*
X149259390Y-68070814D01*
X149171789Y-67939711D01*
X149171786Y-67939707D01*
X149060292Y-67828213D01*
X149060288Y-67828210D01*
X148929185Y-67740609D01*
X148929172Y-67740602D01*
X148783501Y-67680264D01*
X148783489Y-67680261D01*
X148628845Y-67649500D01*
X148628842Y-67649500D01*
X148471158Y-67649500D01*
X148471155Y-67649500D01*
X148316510Y-67680261D01*
X148316498Y-67680264D01*
X148222452Y-67719219D01*
X148152982Y-67726688D01*
X148127548Y-67719219D01*
X148033501Y-67680264D01*
X148033489Y-67680261D01*
X147878845Y-67649500D01*
X147878842Y-67649500D01*
X147721158Y-67649500D01*
X147721155Y-67649500D01*
X147566510Y-67680261D01*
X147566498Y-67680264D01*
X147420827Y-67740602D01*
X147420814Y-67740609D01*
X147289711Y-67828210D01*
X147289707Y-67828213D01*
X147178213Y-67939707D01*
X147178210Y-67939711D01*
X147090609Y-68070814D01*
X147090602Y-68070827D01*
X147030264Y-68216498D01*
X147030261Y-68216510D01*
X146999500Y-68371153D01*
X117321131Y-68371153D01*
X117321131Y-64335920D01*
X137425499Y-64335920D01*
X137454340Y-64480907D01*
X137454343Y-64480917D01*
X137510912Y-64617488D01*
X137510919Y-64617501D01*
X137593048Y-64740415D01*
X137593051Y-64740419D01*
X137697580Y-64844948D01*
X137697584Y-64844951D01*
X137820498Y-64927080D01*
X137820511Y-64927087D01*
X137957082Y-64983656D01*
X137957087Y-64983658D01*
X137957091Y-64983658D01*
X137957092Y-64983659D01*
X138102079Y-65012500D01*
X138102082Y-65012500D01*
X138249920Y-65012500D01*
X138347462Y-64993096D01*
X138394913Y-64983658D01*
X138531495Y-64927084D01*
X138615109Y-64871214D01*
X138681786Y-64850337D01*
X138749166Y-64868821D01*
X138752891Y-64871215D01*
X138836498Y-64927080D01*
X138836511Y-64927087D01*
X138973082Y-64983656D01*
X138973087Y-64983658D01*
X138973091Y-64983658D01*
X138973092Y-64983659D01*
X139118079Y-65012500D01*
X139118082Y-65012500D01*
X139265920Y-65012500D01*
X139363462Y-64993096D01*
X139410913Y-64983658D01*
X139547495Y-64927084D01*
X139631109Y-64871214D01*
X139697786Y-64850337D01*
X139765166Y-64868821D01*
X139768891Y-64871215D01*
X139852498Y-64927080D01*
X139852511Y-64927087D01*
X139989082Y-64983656D01*
X139989087Y-64983658D01*
X139989091Y-64983658D01*
X139989092Y-64983659D01*
X140134079Y-65012500D01*
X140134082Y-65012500D01*
X140281920Y-65012500D01*
X140379462Y-64993096D01*
X140426913Y-64983658D01*
X140563495Y-64927084D01*
X140686416Y-64844951D01*
X140790951Y-64740416D01*
X140873084Y-64617495D01*
X140929658Y-64480913D01*
X140958500Y-64335918D01*
X140958500Y-64188082D01*
X140958500Y-64188079D01*
X140929659Y-64043092D01*
X140929658Y-64043091D01*
X140929658Y-64043087D01*
X140929656Y-64043082D01*
X140873087Y-63906511D01*
X140873080Y-63906498D01*
X140790951Y-63783584D01*
X140790948Y-63783580D01*
X140686419Y-63679051D01*
X140686415Y-63679048D01*
X140563501Y-63596919D01*
X140563488Y-63596912D01*
X140426917Y-63540343D01*
X140426907Y-63540340D01*
X140281920Y-63511500D01*
X140281918Y-63511500D01*
X140134082Y-63511500D01*
X140134080Y-63511500D01*
X139989092Y-63540340D01*
X139989082Y-63540343D01*
X139852511Y-63596912D01*
X139852493Y-63596922D01*
X139768890Y-63652784D01*
X139702213Y-63673662D01*
X139634833Y-63655177D01*
X139631110Y-63652784D01*
X139547506Y-63596922D01*
X139547488Y-63596912D01*
X139410917Y-63540343D01*
X139410907Y-63540340D01*
X139265920Y-63511500D01*
X139265918Y-63511500D01*
X139118082Y-63511500D01*
X139118080Y-63511500D01*
X138973092Y-63540340D01*
X138973082Y-63540343D01*
X138836511Y-63596912D01*
X138836493Y-63596922D01*
X138752890Y-63652784D01*
X138686213Y-63673662D01*
X138618833Y-63655177D01*
X138615110Y-63652784D01*
X138531506Y-63596922D01*
X138531488Y-63596912D01*
X138394917Y-63540343D01*
X138394907Y-63540340D01*
X138249920Y-63511500D01*
X138249918Y-63511500D01*
X138102082Y-63511500D01*
X138102080Y-63511500D01*
X137957092Y-63540340D01*
X137957082Y-63540343D01*
X137820511Y-63596912D01*
X137820498Y-63596919D01*
X137697584Y-63679048D01*
X137697580Y-63679051D01*
X137593051Y-63783580D01*
X137593048Y-63783584D01*
X137510919Y-63906498D01*
X137510912Y-63906511D01*
X137454343Y-64043082D01*
X137454340Y-64043092D01*
X137425500Y-64188079D01*
X137425500Y-64188082D01*
X137425500Y-64335918D01*
X137425500Y-64335920D01*
X137425499Y-64335920D01*
X117321131Y-64335920D01*
X117321131Y-58382471D01*
X160741099Y-58382471D01*
X160766097Y-58508138D01*
X160766099Y-58508144D01*
X160815133Y-58626524D01*
X160815138Y-58626533D01*
X160886323Y-58733068D01*
X160886326Y-58733072D01*
X160976927Y-58823673D01*
X160976931Y-58823676D01*
X161083466Y-58894861D01*
X161083472Y-58894864D01*
X161083473Y-58894865D01*
X161201856Y-58943901D01*
X161201860Y-58943901D01*
X161201861Y-58943902D01*
X161327528Y-58968900D01*
X161327531Y-58968900D01*
X161455671Y-58968900D01*
X161540215Y-58952082D01*
X161581344Y-58943901D01*
X161699727Y-58894865D01*
X161806269Y-58823676D01*
X161896876Y-58733069D01*
X161968065Y-58626527D01*
X162017101Y-58508144D01*
X162042100Y-58382469D01*
X162042100Y-58254331D01*
X162042100Y-58254328D01*
X162037275Y-58230071D01*
X168310299Y-58230071D01*
X168335297Y-58355738D01*
X168335299Y-58355744D01*
X168384333Y-58474124D01*
X168384338Y-58474133D01*
X168455523Y-58580668D01*
X168455526Y-58580672D01*
X168546127Y-58671273D01*
X168546131Y-58671276D01*
X168652666Y-58742461D01*
X168652672Y-58742464D01*
X168652673Y-58742465D01*
X168771056Y-58791501D01*
X168771060Y-58791501D01*
X168771061Y-58791502D01*
X168896728Y-58816500D01*
X168896731Y-58816500D01*
X169024871Y-58816500D01*
X169109415Y-58799682D01*
X169150544Y-58791501D01*
X169268927Y-58742465D01*
X169375469Y-58671276D01*
X169466076Y-58580669D01*
X169537265Y-58474127D01*
X169586301Y-58355744D01*
X169606474Y-58254331D01*
X169611300Y-58230071D01*
X169611300Y-58101928D01*
X169586302Y-57976261D01*
X169586301Y-57976260D01*
X169586301Y-57976256D01*
X169537265Y-57857873D01*
X169537264Y-57857872D01*
X169537261Y-57857866D01*
X169466076Y-57751331D01*
X169466073Y-57751327D01*
X169375472Y-57660726D01*
X169375468Y-57660723D01*
X169268933Y-57589538D01*
X169268924Y-57589533D01*
X169150544Y-57540499D01*
X169150538Y-57540497D01*
X169024871Y-57515500D01*
X169024869Y-57515500D01*
X168896731Y-57515500D01*
X168896729Y-57515500D01*
X168771061Y-57540497D01*
X168771055Y-57540499D01*
X168652675Y-57589533D01*
X168652666Y-57589538D01*
X168546131Y-57660723D01*
X168546127Y-57660726D01*
X168455526Y-57751327D01*
X168455523Y-57751331D01*
X168384338Y-57857866D01*
X168384333Y-57857875D01*
X168335299Y-57976255D01*
X168335297Y-57976261D01*
X168310300Y-58101928D01*
X168310300Y-58101931D01*
X168310300Y-58230069D01*
X168310300Y-58230071D01*
X168310299Y-58230071D01*
X162037275Y-58230071D01*
X162017102Y-58128659D01*
X162017101Y-58128657D01*
X162017100Y-58128655D01*
X161968065Y-58010273D01*
X161968064Y-58010272D01*
X161968061Y-58010266D01*
X161896876Y-57903731D01*
X161896873Y-57903727D01*
X161806272Y-57813126D01*
X161806268Y-57813123D01*
X161699733Y-57741938D01*
X161699724Y-57741933D01*
X161581344Y-57692899D01*
X161581338Y-57692897D01*
X161455671Y-57667900D01*
X161455669Y-57667900D01*
X161327531Y-57667900D01*
X161327529Y-57667900D01*
X161201861Y-57692897D01*
X161201855Y-57692899D01*
X161083475Y-57741933D01*
X161083466Y-57741938D01*
X160976931Y-57813123D01*
X160976927Y-57813126D01*
X160886326Y-57903727D01*
X160886323Y-57903731D01*
X160815138Y-58010266D01*
X160815133Y-58010275D01*
X160766099Y-58128655D01*
X160766097Y-58128661D01*
X160741100Y-58254328D01*
X160741100Y-58254331D01*
X160741100Y-58382469D01*
X160741100Y-58382471D01*
X160741099Y-58382471D01*
X117321131Y-58382471D01*
X117321131Y-45847135D01*
X147204500Y-45847135D01*
X147204500Y-51942870D01*
X147204501Y-51942876D01*
X147210908Y-52002483D01*
X147261202Y-52137328D01*
X147261206Y-52137335D01*
X147347452Y-52252544D01*
X147347455Y-52252547D01*
X147462664Y-52338793D01*
X147462671Y-52338797D01*
X147597517Y-52389091D01*
X147597516Y-52389091D01*
X147604444Y-52389835D01*
X147657127Y-52395500D01*
X153752872Y-52395499D01*
X153812483Y-52389091D01*
X153947331Y-52338796D01*
X154062546Y-52252546D01*
X154148796Y-52137331D01*
X154199091Y-52002483D01*
X154205500Y-51942873D01*
X154205499Y-49498319D01*
X154225184Y-49431283D01*
X154277987Y-49385528D01*
X154347146Y-49375584D01*
X154410702Y-49404609D01*
X154448476Y-49463387D01*
X154451116Y-49474130D01*
X154505309Y-49746574D01*
X154605150Y-50075706D01*
X154736770Y-50393464D01*
X154736772Y-50393469D01*
X154898893Y-50696775D01*
X154898904Y-50696793D01*
X155089975Y-50982751D01*
X155089985Y-50982765D01*
X155308176Y-51248632D01*
X155551367Y-51491823D01*
X155551372Y-51491827D01*
X155551373Y-51491828D01*
X155817240Y-51710019D01*
X156103213Y-51901100D01*
X156103222Y-51901105D01*
X156103224Y-51901106D01*
X156406530Y-52063227D01*
X156406532Y-52063227D01*
X156406538Y-52063231D01*
X156724295Y-52194850D01*
X157053422Y-52294690D01*
X157390750Y-52361789D01*
X157733031Y-52395500D01*
X157733034Y-52395500D01*
X158076966Y-52395500D01*
X158076969Y-52395500D01*
X158419250Y-52361789D01*
X158756578Y-52294690D01*
X159085705Y-52194850D01*
X159403462Y-52063231D01*
X159706787Y-51901100D01*
X159992760Y-51710019D01*
X160258627Y-51491828D01*
X160501828Y-51248627D01*
X160720019Y-50982760D01*
X160911100Y-50696787D01*
X161073231Y-50393462D01*
X161204850Y-50075705D01*
X161304690Y-49746578D01*
X161371789Y-49409250D01*
X161405500Y-49066969D01*
X161405500Y-48723031D01*
X161371789Y-48380750D01*
X161304690Y-48043422D01*
X161204850Y-47714295D01*
X161073231Y-47396538D01*
X160911100Y-47093213D01*
X160720019Y-46807240D01*
X160501828Y-46541373D01*
X160501827Y-46541372D01*
X160501823Y-46541367D01*
X160258632Y-46298176D01*
X159992765Y-46079985D01*
X159992764Y-46079984D01*
X159992760Y-46079981D01*
X159706787Y-45888900D01*
X159706782Y-45888897D01*
X159706775Y-45888893D01*
X159403469Y-45726772D01*
X159403464Y-45726770D01*
X159085706Y-45595150D01*
X158756572Y-45495308D01*
X158419248Y-45428210D01*
X158419249Y-45428210D01*
X158161456Y-45402821D01*
X158076969Y-45394500D01*
X157733031Y-45394500D01*
X157667958Y-45400909D01*
X157390750Y-45428210D01*
X157053427Y-45495308D01*
X156724293Y-45595150D01*
X156406535Y-45726770D01*
X156406530Y-45726772D01*
X156103224Y-45888893D01*
X156103206Y-45888904D01*
X155817248Y-46079975D01*
X155817234Y-46079985D01*
X155551367Y-46298176D01*
X155308176Y-46541367D01*
X155089985Y-46807234D01*
X155089975Y-46807248D01*
X154898904Y-47093206D01*
X154898893Y-47093224D01*
X154736772Y-47396530D01*
X154736770Y-47396535D01*
X154605150Y-47714293D01*
X154505309Y-48043425D01*
X154451116Y-48315870D01*
X154418731Y-48377781D01*
X154358015Y-48412355D01*
X154288246Y-48408615D01*
X154231574Y-48367748D01*
X154205992Y-48302730D01*
X154205499Y-48291678D01*
X154205499Y-45847129D01*
X154205498Y-45847123D01*
X154205497Y-45847116D01*
X154199091Y-45787517D01*
X154176433Y-45726769D01*
X154148797Y-45652671D01*
X154148793Y-45652664D01*
X154062547Y-45537455D01*
X154062544Y-45537452D01*
X153947335Y-45451206D01*
X153947328Y-45451202D01*
X153812482Y-45400908D01*
X153812483Y-45400908D01*
X153752883Y-45394501D01*
X153752881Y-45394500D01*
X153752873Y-45394500D01*
X153752864Y-45394500D01*
X147657129Y-45394500D01*
X147657123Y-45394501D01*
X147597516Y-45400908D01*
X147462671Y-45451202D01*
X147462664Y-45451206D01*
X147347455Y-45537452D01*
X147347452Y-45537455D01*
X147261206Y-45652664D01*
X147261202Y-45652671D01*
X147210908Y-45787517D01*
X147204501Y-45847116D01*
X147204501Y-45847123D01*
X147204500Y-45847135D01*
X117321131Y-45847135D01*
X117321131Y-44972083D01*
X117340816Y-44905044D01*
X117393620Y-44859289D01*
X117445131Y-44848083D01*
X174696131Y-44848083D01*
X174763170Y-44867768D01*
G37*
%TD.AperFunction*%
%TD*%
M02*
