%TF.GenerationSoftware,KiCad,Pcbnew,10.0.0*%
%TF.CreationDate,2026-06-27T14:34:16-07:00*%
%TF.ProjectId,LM5116,4c4d3531-3136-42e6-9b69-6361645f7063,rev?*%
%TF.SameCoordinates,Original*%
%TF.FileFunction,Copper,L1,Top*%
%TF.FilePolarity,Positive*%
%FSLAX46Y46*%
G04 Gerber Fmt 4.6, Leading zero omitted, Abs format (unit mm)*
G04 Created by KiCad (PCBNEW 10.0.0) date 2026-06-27 14:34:16*
%MOMM*%
%LPD*%
G01*
G04 APERTURE LIST*
G04 Aperture macros list*
%AMRoundRect*
0 Rectangle with rounded corners*
0 $1 Rounding radius*
0 $2 $3 $4 $5 $6 $7 $8 $9 X,Y pos of 4 corners*
0 Add a 4 corners polygon primitive as box body*
4,1,4,$2,$3,$4,$5,$6,$7,$8,$9,$2,$3,0*
0 Add four circle primitives for the rounded corners*
1,1,$1+$1,$2,$3*
1,1,$1+$1,$4,$5*
1,1,$1+$1,$6,$7*
1,1,$1+$1,$8,$9*
0 Add four rect primitives between the rounded corners*
20,1,$1+$1,$2,$3,$4,$5,0*
20,1,$1+$1,$4,$5,$6,$7,0*
20,1,$1+$1,$6,$7,$8,$9,0*
20,1,$1+$1,$8,$9,$2,$3,0*%
G04 Aperture macros list end*
%TA.AperFunction,SMDPad,CuDef*%
%ADD10RoundRect,0.237500X0.250000X0.237500X-0.250000X0.237500X-0.250000X-0.237500X0.250000X-0.237500X0*%
%TD*%
%TA.AperFunction,SMDPad,CuDef*%
%ADD11RoundRect,0.160000X0.197500X0.160000X-0.197500X0.160000X-0.197500X-0.160000X0.197500X-0.160000X0*%
%TD*%
%TA.AperFunction,SMDPad,CuDef*%
%ADD12RoundRect,0.160000X-0.197500X-0.160000X0.197500X-0.160000X0.197500X0.160000X-0.197500X0.160000X0*%
%TD*%
%TA.AperFunction,SMDPad,CuDef*%
%ADD13RoundRect,0.237500X-0.300000X-0.237500X0.300000X-0.237500X0.300000X0.237500X-0.300000X0.237500X0*%
%TD*%
%TA.AperFunction,SMDPad,CuDef*%
%ADD14RoundRect,0.237500X0.237500X-0.287500X0.237500X0.287500X-0.237500X0.287500X-0.237500X-0.287500X0*%
%TD*%
%TA.AperFunction,SMDPad,CuDef*%
%ADD15RoundRect,0.237500X-0.250000X-0.237500X0.250000X-0.237500X0.250000X0.237500X-0.250000X0.237500X0*%
%TD*%
%TA.AperFunction,SMDPad,CuDef*%
%ADD16R,0.730000X1.210000*%
%TD*%
%TA.AperFunction,SMDPad,CuDef*%
%ADD17RoundRect,0.160000X0.160000X-0.197500X0.160000X0.197500X-0.160000X0.197500X-0.160000X-0.197500X0*%
%TD*%
%TA.AperFunction,SMDPad,CuDef*%
%ADD18RoundRect,0.237500X0.237500X-0.300000X0.237500X0.300000X-0.237500X0.300000X-0.237500X-0.300000X0*%
%TD*%
%TA.AperFunction,SMDPad,CuDef*%
%ADD19RoundRect,0.200000X0.200000X-0.750000X0.200000X0.750000X-0.200000X0.750000X-0.200000X-0.750000X0*%
%TD*%
%TA.AperFunction,SMDPad,CuDef*%
%ADD20RoundRect,0.155000X0.155000X-0.212500X0.155000X0.212500X-0.155000X0.212500X-0.155000X-0.212500X0*%
%TD*%
%TA.AperFunction,SMDPad,CuDef*%
%ADD21RoundRect,0.160000X-0.160000X0.197500X-0.160000X-0.197500X0.160000X-0.197500X0.160000X0.197500X0*%
%TD*%
%TA.AperFunction,SMDPad,CuDef*%
%ADD22RoundRect,0.100000X-0.100000X0.217500X-0.100000X-0.217500X0.100000X-0.217500X0.100000X0.217500X0*%
%TD*%
%TA.AperFunction,SMDPad,CuDef*%
%ADD23RoundRect,0.237500X0.237500X-0.250000X0.237500X0.250000X-0.237500X0.250000X-0.237500X-0.250000X0*%
%TD*%
%TA.AperFunction,SMDPad,CuDef*%
%ADD24RoundRect,0.237500X-0.237500X0.300000X-0.237500X-0.300000X0.237500X-0.300000X0.237500X0.300000X0*%
%TD*%
%TA.AperFunction,SMDPad,CuDef*%
%ADD25RoundRect,0.200000X-0.750000X-0.200000X0.750000X-0.200000X0.750000X0.200000X-0.750000X0.200000X0*%
%TD*%
%TA.AperFunction,SMDPad,CuDef*%
%ADD26RoundRect,0.250000X-0.450000X0.350000X-0.450000X-0.350000X0.450000X-0.350000X0.450000X0.350000X0*%
%TD*%
%TA.AperFunction,SMDPad,CuDef*%
%ADD27R,1.210000X0.730000*%
%TD*%
%TA.AperFunction,SMDPad,CuDef*%
%ADD28RoundRect,0.155000X-0.212500X-0.155000X0.212500X-0.155000X0.212500X0.155000X-0.212500X0.155000X0*%
%TD*%
%TA.AperFunction,SMDPad,CuDef*%
%ADD29RoundRect,0.147500X0.457500X0.147500X-0.457500X0.147500X-0.457500X-0.147500X0.457500X-0.147500X0*%
%TD*%
%TA.AperFunction,SMDPad,CuDef*%
%ADD30RoundRect,0.100000X0.217500X0.100000X-0.217500X0.100000X-0.217500X-0.100000X0.217500X-0.100000X0*%
%TD*%
%TA.AperFunction,SMDPad,CuDef*%
%ADD31RoundRect,0.100000X0.100000X-0.217500X0.100000X0.217500X-0.100000X0.217500X-0.100000X-0.217500X0*%
%TD*%
%TA.AperFunction,SMDPad,CuDef*%
%ADD32R,1.727200X0.406400*%
%TD*%
%TA.AperFunction,SMDPad,CuDef*%
%ADD33R,3.149600X4.343400*%
%TD*%
%TA.AperFunction,ComponentPad*%
%ADD34C,1.524000*%
%TD*%
%TA.AperFunction,ComponentPad*%
%ADD35R,1.875000X1.875000*%
%TD*%
%TA.AperFunction,ComponentPad*%
%ADD36C,1.875000*%
%TD*%
%TA.AperFunction,ComponentPad*%
%ADD37R,2.775000X2.775000*%
%TD*%
%TA.AperFunction,ComponentPad*%
%ADD38C,2.775000*%
%TD*%
%TA.AperFunction,ComponentPad*%
%ADD39C,6.000000*%
%TD*%
%TA.AperFunction,ComponentPad*%
%ADD40R,6.000000X6.000000*%
%TD*%
%TA.AperFunction,ViaPad*%
%ADD41C,0.600000*%
%TD*%
%TA.AperFunction,ViaPad*%
%ADD42C,0.800000*%
%TD*%
%TA.AperFunction,Conductor*%
%ADD43C,0.200000*%
%TD*%
%TA.AperFunction,Conductor*%
%ADD44C,0.350000*%
%TD*%
G04 APERTURE END LIST*
D10*
%TO.P,R9,1*%
%TO.N,/FB*%
X134262500Y-83185000D03*
%TO.P,R9,2*%
%TO.N,GND*%
X132437500Y-83185000D03*
%TD*%
D11*
%TO.P,R3,1*%
%TO.N,/UVLO*%
X134582500Y-73660000D03*
%TO.P,R3,2*%
%TO.N,GND*%
X133387500Y-73660000D03*
%TD*%
D12*
%TO.P,R1,1*%
%TO.N,GNDPWR*%
X141642500Y-72390000D03*
%TO.P,R1,2*%
%TO.N,GND*%
X142837500Y-72390000D03*
%TD*%
D13*
%TO.P,C1,1*%
%TO.N,/VOUT*%
X151574999Y-76125001D03*
%TO.P,C1,2*%
%TO.N,GND*%
X153299999Y-76125001D03*
%TD*%
%TO.P,C6,1*%
%TO.N,/VIN*%
X138202500Y-72390000D03*
%TO.P,C6,2*%
%TO.N,GND*%
X139927500Y-72390000D03*
%TD*%
D14*
%TO.P,D4,1,K_1*%
%TO.N,GNDPWR*%
X170815000Y-112635000D03*
%TO.P,D4,2,A_2*%
%TO.N,Net-(D4-A)*%
X170815000Y-110885000D03*
%TD*%
D15*
%TO.P,R10,1*%
%TO.N,Net-(C19-Pad2)*%
X134342500Y-81280000D03*
%TO.P,R10,2*%
%TO.N,/COMP*%
X136167500Y-81280000D03*
%TD*%
D16*
%TO.P,D1,A*%
%TO.N,/SOURCE*%
X139065000Y-65630000D03*
%TO.P,D1,C*%
%TO.N,/VIN*%
X139065000Y-68990000D03*
%TD*%
D13*
%TO.P,C16,1*%
%TO.N,/VOUT*%
X138005000Y-113855000D03*
%TO.P,C16,2*%
%TO.N,GNDPWR*%
X139730000Y-113855000D03*
%TD*%
D12*
%TO.P,R20,1*%
%TO.N,Net-(U2-IN+)*%
X128307500Y-96520000D03*
%TO.P,R20,2*%
%TO.N,GND*%
X129502500Y-96520000D03*
%TD*%
D17*
%TO.P,R21,1*%
%TO.N,/VOUT*%
X127000000Y-92037500D03*
%TO.P,R21,2*%
%TO.N,Net-(Q5-G)*%
X127000000Y-90842500D03*
%TD*%
D11*
%TO.P,R7,1*%
%TO.N,/VOUT*%
X172682500Y-114300000D03*
%TO.P,R7,2*%
%TO.N,GNDPWR*%
X171487500Y-114300000D03*
%TD*%
D18*
%TO.P,C7,1*%
%TO.N,/UVLO*%
X135890000Y-73887500D03*
%TO.P,C7,2*%
%TO.N,GND*%
X135890000Y-72162500D03*
%TD*%
D19*
%TO.P,Q5,1,G_1*%
%TO.N,Net-(Q5-G)*%
X127320000Y-88495000D03*
%TO.P,Q5,2,S_2*%
%TO.N,GND*%
X129220000Y-88495000D03*
%TO.P,Q5,3,D_3*%
%TO.N,/UVLO*%
X128270000Y-85495000D03*
%TD*%
D13*
%TO.P,C10,1*%
%TO.N,/VCC*%
X147764999Y-76125001D03*
%TO.P,C10,2*%
%TO.N,GND*%
X149489999Y-76125001D03*
%TD*%
%TO.P,C15,1*%
%TO.N,/VOUT*%
X125532500Y-113855000D03*
%TO.P,C15,2*%
%TO.N,GNDPWR*%
X127257500Y-113855000D03*
%TD*%
D20*
%TO.P,C20,1*%
%TO.N,/FB*%
X135890000Y-83752500D03*
%TO.P,C20,2*%
%TO.N,/COMP*%
X135890000Y-82617500D03*
%TD*%
D12*
%TO.P,R19,1*%
%TO.N,/VOUT*%
X127037500Y-94615000D03*
%TO.P,R19,2*%
%TO.N,Net-(U2-IN+)*%
X128232500Y-94615000D03*
%TD*%
%TO.P,R2,1*%
%TO.N,/VIN*%
X133387500Y-72390000D03*
%TO.P,R2,2*%
%TO.N,/UVLO*%
X134582500Y-72390000D03*
%TD*%
D21*
%TO.P,R22,1*%
%TO.N,/VOUT*%
X132607500Y-95692500D03*
%TO.P,R22,2*%
%TO.N,/VREF*%
X132607500Y-96887500D03*
%TD*%
D18*
%TO.P,C9,1*%
%TO.N,/HB*%
X147357499Y-73812501D03*
%TO.P,C9,2*%
%TO.N,/SW*%
X147357499Y-72087501D03*
%TD*%
D22*
%TO.P,C3,1*%
%TO.N,Net-(U1-SS)*%
X135255000Y-77697500D03*
%TO.P,C3,2*%
%TO.N,GND*%
X135255000Y-78512500D03*
%TD*%
D23*
%TO.P,R6,1*%
%TO.N,/VOUT*%
X173990000Y-112672500D03*
%TO.P,R6,2*%
%TO.N,Net-(D4-A)*%
X173990000Y-110847500D03*
%TD*%
D24*
%TO.P,C2,1*%
%TO.N,Net-(U1-RAMP)*%
X133985000Y-77877500D03*
%TO.P,C2,2*%
%TO.N,GND*%
X133985000Y-79602500D03*
%TD*%
D16*
%TO.P,D3,A*%
%TO.N,/VCC*%
X149262499Y-73995001D03*
%TO.P,D3,C*%
%TO.N,/HB*%
X149262499Y-70635001D03*
%TD*%
D25*
%TO.P,U3,1,K_1*%
%TO.N,/VREF*%
X135255000Y-95250000D03*
%TO.P,U3,2,REF_2*%
X135255000Y-97150000D03*
%TO.P,U3,3,A_3*%
%TO.N,GND*%
X138255000Y-96200000D03*
%TD*%
D26*
%TO.P,R5,1*%
%TO.N,/RT_SYNC*%
X132080000Y-75835000D03*
%TO.P,R5,2*%
%TO.N,GND*%
X132080000Y-77835000D03*
%TD*%
D27*
%TO.P,D2,A*%
%TO.N,/UVLO*%
X135665000Y-69215000D03*
%TO.P,D2,C*%
%TO.N,/VIN*%
X132305000Y-69215000D03*
%TD*%
D28*
%TO.P,C18,1*%
%TO.N,/VOUT*%
X162560000Y-114300000D03*
%TO.P,C18,2*%
%TO.N,GNDPWR*%
X163695000Y-114300000D03*
%TD*%
D21*
%TO.P,R4,1*%
%TO.N,/VIN*%
X130175000Y-74332500D03*
%TO.P,R4,2*%
%TO.N,Net-(R4-Pad2)*%
X130175000Y-75527500D03*
%TD*%
D15*
%TO.P,R8,1*%
%TO.N,/VOUT*%
X132437500Y-85120000D03*
%TO.P,R8,2*%
%TO.N,/FB*%
X134262500Y-85120000D03*
%TD*%
D29*
%TO.P,U2,1,IN+_1*%
%TO.N,Net-(U2-IN+)*%
X132065000Y-93025000D03*
%TO.P,U2,2,V-_2*%
%TO.N,GNDPWR*%
X132065000Y-92075000D03*
%TO.P,U2,3,IN-_3*%
%TO.N,/VREF*%
X132065000Y-91125000D03*
%TO.P,U2,4,OUT_4*%
%TO.N,Net-(Q5-G)*%
X129555000Y-91125000D03*
%TO.P,U2,5,V+_5*%
%TO.N,/VOUT*%
X129555000Y-93025000D03*
%TD*%
D30*
%TO.P,C21,1*%
%TO.N,Net-(C21-Pad1)*%
X143690000Y-71120000D03*
%TO.P,C21,2*%
%TO.N,GND*%
X142875000Y-71120000D03*
%TD*%
D31*
%TO.P,C19,1*%
%TO.N,/FB*%
X132715000Y-81687500D03*
%TO.P,C19,2*%
%TO.N,Net-(C19-Pad2)*%
X132715000Y-80872500D03*
%TD*%
D11*
%TO.P,R13,1*%
%TO.N,/SW*%
X146049999Y-72950001D03*
%TO.P,R13,2*%
%TO.N,Net-(C21-Pad1)*%
X144854999Y-72950001D03*
%TD*%
D13*
%TO.P,C17,1*%
%TO.N,/VOUT*%
X152807500Y-113855000D03*
%TO.P,C17,2*%
%TO.N,GNDPWR*%
X154532500Y-113855000D03*
%TD*%
D22*
%TO.P,C8,1*%
%TO.N,/RT_SYNC*%
X135255000Y-75792500D03*
%TO.P,C8,2*%
%TO.N,GND*%
X135255000Y-76607500D03*
%TD*%
D32*
%TO.P,U1,1,VIN_1*%
%TO.N,/VIN*%
X138391299Y-74219999D03*
%TO.P,U1,2,ULVO_2*%
%TO.N,/UVLO*%
X138391299Y-74870000D03*
%TO.P,U1,3,RT/SYNC_3*%
%TO.N,/RT_SYNC*%
X138391299Y-75519998D03*
%TO.P,U1,4,EN_4*%
%TO.N,/EN*%
X138391299Y-76170000D03*
%TO.P,U1,5,RAMP_5*%
%TO.N,Net-(U1-RAMP)*%
X138391299Y-76819998D03*
%TO.P,U1,6,AGND_6*%
%TO.N,GND*%
X138391299Y-77469997D03*
%TO.P,U1,7,SS_7*%
%TO.N,Net-(U1-SS)*%
X138391299Y-78119998D03*
%TO.P,U1,8,FB_8*%
%TO.N,/FB*%
X138391299Y-78769997D03*
%TO.P,U1,9,COMP_9*%
%TO.N,/COMP*%
X138391299Y-79419998D03*
%TO.P,U1,10,VOUT_10*%
%TO.N,/VOUT*%
X138391299Y-80069997D03*
%TO.P,U1,11,DEMB_11*%
%TO.N,GNDPWR*%
X144182499Y-80069999D03*
%TO.P,U1,12,CS_12*%
%TO.N,/CS*%
X144182499Y-79420001D03*
%TO.P,U1,13,CSG_13*%
%TO.N,GNDPWR*%
X144182499Y-78770000D03*
%TO.P,U1,14,PGND_14*%
X144182499Y-78120001D03*
%TO.P,U1,15,LO_15*%
%TO.N,/LO*%
X144182499Y-77470000D03*
%TO.P,U1,16,VCC_16*%
%TO.N,/VCC*%
X144182499Y-76820001D03*
%TO.P,U1,17,VCCX_17*%
%TO.N,/VOUT*%
X144182499Y-76170000D03*
%TO.P,U1,18,HB_18*%
%TO.N,/HB*%
X144182499Y-75520001D03*
%TO.P,U1,19,HO_19*%
%TO.N,/HO*%
X144182499Y-74870000D03*
%TO.P,U1,20,SW_20*%
%TO.N,/SW*%
X144182499Y-74220001D03*
D33*
%TO.P,U1,21,EP_21*%
%TO.N,GNDPWR*%
X141286899Y-77144999D03*
%TD*%
D34*
%TO.P,J4,1,1_1*%
%TO.N,/3*%
X163830000Y-125730000D03*
%TD*%
%TO.P,J5,1,1_1*%
%TO.N,/4*%
X159385000Y-125730000D03*
%TD*%
D35*
%TO.P,J19,1,1_1*%
%TO.N,/6*%
X150495000Y-122152500D03*
D36*
%TO.P,J19,2,2_2*%
%TO.N,/VOUT*%
X150495000Y-119612500D03*
%TO.P,J19,3,3_3*%
%TO.N,GNDPWR*%
X150495000Y-117072500D03*
%TD*%
D37*
%TO.P,S1,1*%
%TO.N,/EN*%
X124847500Y-71755000D03*
D38*
%TO.P,S1,2*%
%TO.N,Net-(R4-Pad2)*%
X124847500Y-76455000D03*
%TO.P,S1,3*%
%TO.N,unconnected-(S1-Pad3)*%
X124847500Y-81155000D03*
%TD*%
D35*
%TO.P,J24,1,1_1*%
%TO.N,/8*%
X127635000Y-122152500D03*
D36*
%TO.P,J24,2,2_2*%
%TO.N,/VOUT*%
X127635000Y-119612500D03*
%TO.P,J24,3,3_3*%
%TO.N,GNDPWR*%
X127635000Y-117072500D03*
%TD*%
D35*
%TO.P,J14,1,1_1*%
%TO.N,/1*%
X172720000Y-122152500D03*
D36*
%TO.P,J14,2,2_2*%
%TO.N,/VOUT*%
X172720000Y-119612500D03*
%TO.P,J14,3,3_3*%
%TO.N,GNDPWR*%
X172720000Y-117072500D03*
%TD*%
D34*
%TO.P,J2,1,1_1*%
%TO.N,/1*%
X172694600Y-125730000D03*
%TD*%
D35*
%TO.P,J22,1,1_1*%
%TO.N,/10*%
X137160000Y-122152500D03*
D36*
%TO.P,J22,2,2_2*%
%TO.N,/VOUT*%
X137160000Y-119612500D03*
%TO.P,J22,3,3_3*%
%TO.N,GNDPWR*%
X137160000Y-117072500D03*
%TD*%
D34*
%TO.P,J7,1,1_1*%
%TO.N,/6*%
X150495000Y-125730000D03*
%TD*%
D35*
%TO.P,J25,1,1_1*%
%TO.N,/7*%
X123190000Y-121962500D03*
D36*
%TO.P,J25,2,2_2*%
%TO.N,/VOUT*%
X123190000Y-119422500D03*
%TO.P,J25,3,3_3*%
%TO.N,GNDPWR*%
X123190000Y-116882500D03*
%TD*%
D34*
%TO.P,J10,1,1_1*%
%TO.N,/9*%
X132715000Y-125730000D03*
%TD*%
D35*
%TO.P,J21,1,1_1*%
%TO.N,/11*%
X141605000Y-122152500D03*
D36*
%TO.P,J21,2,2_2*%
%TO.N,/VOUT*%
X141605000Y-119612500D03*
%TO.P,J21,3,3_3*%
%TO.N,GNDPWR*%
X141605000Y-117072500D03*
%TD*%
D34*
%TO.P,J11,1,1_1*%
%TO.N,/10*%
X137160000Y-125730000D03*
%TD*%
%TO.P,J9,1,1_1*%
%TO.N,/8*%
X127635000Y-125730000D03*
%TD*%
D35*
%TO.P,J17,1,1_1*%
%TO.N,/4*%
X159385000Y-122152500D03*
D36*
%TO.P,J17,2,2_2*%
%TO.N,/VOUT*%
X159385000Y-119612500D03*
%TO.P,J17,3,3_3*%
%TO.N,GNDPWR*%
X159385000Y-117072500D03*
%TD*%
D35*
%TO.P,J15,1,1_1*%
%TO.N,/2*%
X168275000Y-122152500D03*
D36*
%TO.P,J15,2,2_2*%
%TO.N,/VOUT*%
X168275000Y-119612500D03*
%TO.P,J15,3,3_3*%
%TO.N,GNDPWR*%
X168275000Y-117072500D03*
%TD*%
D34*
%TO.P,J3,1,1_1*%
%TO.N,/2*%
X168275000Y-125730000D03*
%TD*%
%TO.P,J13,1,1_1*%
%TO.N,/12*%
X146050000Y-125730000D03*
%TD*%
D35*
%TO.P,J20,1,1_1*%
%TO.N,/12*%
X146050000Y-122152500D03*
D36*
%TO.P,J20,2,2_2*%
%TO.N,/VOUT*%
X146050000Y-119612500D03*
%TO.P,J20,3,3_3*%
%TO.N,GNDPWR*%
X146050000Y-117072500D03*
%TD*%
D34*
%TO.P,J8,1,1_1*%
%TO.N,/7*%
X123190000Y-125730000D03*
%TD*%
%TO.P,J6,1,1_1*%
%TO.N,/5*%
X154940000Y-125730000D03*
%TD*%
D35*
%TO.P,J23,1,1_1*%
%TO.N,/9*%
X132715000Y-122152500D03*
D36*
%TO.P,J23,2,2_2*%
%TO.N,/VOUT*%
X132715000Y-119612500D03*
%TO.P,J23,3,3_3*%
%TO.N,GNDPWR*%
X132715000Y-117072500D03*
%TD*%
D34*
%TO.P,J12,1,1_1*%
%TO.N,/11*%
X141605000Y-125730000D03*
%TD*%
D39*
%TO.P,J1,N,NEG_N*%
%TO.N,Net-(J1-NEG)*%
X157905000Y-48895000D03*
D40*
%TO.P,J1,P,POS_P*%
%TO.N,Net-(J1-POS)*%
X150705000Y-48895000D03*
%TD*%
D35*
%TO.P,J18,1,1_1*%
%TO.N,/5*%
X154940000Y-122152500D03*
D36*
%TO.P,J18,2,2_2*%
%TO.N,/VOUT*%
X154940000Y-119612500D03*
%TO.P,J18,3,3_3*%
%TO.N,GNDPWR*%
X154940000Y-117072500D03*
%TD*%
D35*
%TO.P,J16,1,1_1*%
%TO.N,/3*%
X163830000Y-122152500D03*
D36*
%TO.P,J16,2,2_2*%
%TO.N,/VOUT*%
X163830000Y-119612500D03*
%TO.P,J16,3,3_3*%
%TO.N,GNDPWR*%
X163830000Y-117072500D03*
%TD*%
D41*
%TO.N,/FB*%
X135890000Y-79248000D03*
X134264400Y-82397600D03*
%TO.N,GND*%
X153833595Y-75287708D03*
X142799900Y-70358000D03*
X130505200Y-88290400D03*
X135927245Y-76260400D03*
X143713200Y-72644000D03*
X130505200Y-77978000D03*
X136906000Y-71882000D03*
X148802499Y-76043102D03*
X137189565Y-77519998D03*
X130048000Y-97485200D03*
X140258800Y-95808800D03*
X131368800Y-82550000D03*
X132486400Y-74269600D03*
X132130800Y-79705200D03*
X140208000Y-71272400D03*
%TO.N,/UVLO*%
X133807200Y-74879200D03*
X128930400Y-77825600D03*
%TO.N,GNDPWR*%
X141210699Y-74372401D03*
X141900000Y-84652400D03*
X164795200Y-113690400D03*
X168275000Y-115400000D03*
X128727200Y-113334800D03*
X162400000Y-61150000D03*
X141900000Y-84002400D03*
X163830000Y-115323800D03*
X140093099Y-74422000D03*
X164450000Y-61850000D03*
X163750000Y-61850000D03*
X150495000Y-115400000D03*
X142494000Y-74422000D03*
X167950000Y-61200000D03*
X139100000Y-83244000D03*
X167950000Y-59250000D03*
X172364400Y-115323800D03*
X141900000Y-83352400D03*
X139100000Y-85344000D03*
X141900000Y-85344000D03*
X141200000Y-85344000D03*
X166550000Y-61850000D03*
X136804400Y-115374600D03*
X140500000Y-85344000D03*
X139100000Y-83894000D03*
X172364400Y-112928400D03*
X162398000Y-61800000D03*
X133858000Y-92100400D03*
X165150000Y-61850000D03*
X139100000Y-84594000D03*
X141071600Y-113487200D03*
X167950000Y-61850000D03*
X141312299Y-79858801D03*
X139800000Y-85344000D03*
X140296299Y-79808001D03*
X167250000Y-61850000D03*
X154940000Y-115323800D03*
X162400000Y-60500000D03*
X132715000Y-115735000D03*
X162400000Y-59200000D03*
X162400000Y-59850000D03*
X167950000Y-59900000D03*
X155854400Y-113639600D03*
X167950000Y-60550000D03*
X139100000Y-82594000D03*
X127635000Y-115552400D03*
X146050000Y-115425400D03*
X141579600Y-71424800D03*
X141900000Y-82702400D03*
X165850000Y-61850000D03*
X163050000Y-61850000D03*
X141986000Y-80772000D03*
X159385000Y-115501600D03*
%TO.N,/VOUT*%
X132435600Y-88747600D03*
X146951099Y-75185201D03*
X148926564Y-75179466D03*
X130251200Y-93726000D03*
X174091600Y-114147600D03*
X138480800Y-80772000D03*
X131622800Y-94742000D03*
X133299200Y-84378800D03*
%TO.N,/VIN*%
X133654800Y-69189600D03*
X137261600Y-69900800D03*
D42*
%TO.N,/SOURCE*%
X139192000Y-64262000D03*
X140208000Y-64262000D03*
X138176000Y-64262000D03*
D41*
%TO.N,/SW*%
X150350000Y-85900000D03*
X151100000Y-85900000D03*
X152800000Y-83350000D03*
X157550000Y-78650000D03*
X148550000Y-68450000D03*
X154150000Y-87350000D03*
X149600000Y-85900000D03*
X152500000Y-85550000D03*
X151850000Y-85900000D03*
X154150000Y-85900000D03*
X157550000Y-76500000D03*
X155150000Y-79550000D03*
X156550000Y-79550000D03*
X147800000Y-69150000D03*
X151892000Y-70866000D03*
X157550000Y-75850000D03*
X152500000Y-71800000D03*
X154150000Y-83850000D03*
X154150000Y-85250000D03*
X154350000Y-72450000D03*
X154150000Y-86600000D03*
X152850000Y-84050000D03*
X157550000Y-77200000D03*
X151850000Y-71800000D03*
X151130000Y-70866000D03*
X157250000Y-79350000D03*
X153850000Y-71850000D03*
X152654000Y-70104000D03*
X153150000Y-71800000D03*
X155850000Y-79550000D03*
X147800000Y-68450000D03*
X151200000Y-71800000D03*
X154150000Y-84550000D03*
X154350000Y-73150000D03*
X152850000Y-84850000D03*
X154350000Y-73850000D03*
X148550000Y-69150000D03*
X152654000Y-70750000D03*
X157550000Y-77900000D03*
%TO.N,Net-(U1-RAMP)*%
X136599028Y-76864744D03*
X134467600Y-76860400D03*
%TO.N,/EN*%
X136956800Y-76149200D03*
%TO.N,/CS*%
X146597499Y-83110001D03*
D42*
%TO.N,/LO*%
X153646562Y-78650000D03*
D41*
X146087499Y-77014001D03*
%TO.N,/HO*%
X145546098Y-74324672D03*
%TO.N,Net-(Q6-GATE)*%
X161391600Y-58318400D03*
X168960800Y-58166000D03*
%TD*%
%TO.N,/FB*%
D43*
X134262500Y-83185000D02*
X134262500Y-82399500D01*
X134212500Y-83185000D02*
X134262500Y-83185000D01*
X134262500Y-85120000D02*
X134522500Y-85120000D01*
X134522500Y-85120000D02*
X135890000Y-83752500D01*
X135322500Y-83185000D02*
X135890000Y-83752500D01*
X135890000Y-79248000D02*
X136368003Y-78769997D01*
X132715000Y-81687500D02*
X134212500Y-83185000D01*
X134262500Y-82399500D02*
X134264400Y-82397600D01*
X134262500Y-83185000D02*
X135322500Y-83185000D01*
X136368003Y-78769997D02*
X138391299Y-78769997D01*
%TO.N,GND*%
X138255000Y-96200000D02*
X139867600Y-96200000D01*
X133387500Y-73660000D02*
X133096000Y-73660000D01*
X135255000Y-78512500D02*
X135075000Y-78512500D01*
X138391299Y-77469997D02*
X137239566Y-77469997D01*
X129502500Y-96939700D02*
X130048000Y-97485200D01*
X139927500Y-71552900D02*
X140208000Y-71272400D01*
X137239566Y-77469997D02*
X137189565Y-77519998D01*
X135075000Y-78512500D02*
X133985000Y-79602500D01*
X132080000Y-77835000D02*
X130648200Y-77835000D01*
X129220000Y-88495000D02*
X130300600Y-88495000D01*
X132003800Y-83185000D02*
X131368800Y-82550000D01*
X153833595Y-75287708D02*
X153299999Y-75821304D01*
X130300600Y-88495000D02*
X130505200Y-88290400D01*
X136906000Y-71882000D02*
X135991600Y-71882000D01*
X149408100Y-76043102D02*
X149489999Y-76125001D01*
X135890000Y-71983600D02*
X135890000Y-72162500D01*
X133096000Y-73660000D02*
X132486400Y-74269600D01*
X130648200Y-77835000D02*
X130505200Y-77978000D01*
X135255000Y-76607500D02*
X135580145Y-76607500D01*
X132437500Y-83185000D02*
X132003800Y-83185000D01*
X135991600Y-71882000D02*
X135890000Y-71983600D01*
X142799900Y-70968801D02*
X142799900Y-70358000D01*
X135580145Y-76607500D02*
X135927245Y-76260400D01*
X139927500Y-72390000D02*
X139927500Y-71552900D01*
X143459200Y-72390000D02*
X143713200Y-72644000D01*
X139867600Y-96200000D02*
X140258800Y-95808800D01*
X153299999Y-75821304D02*
X153299999Y-76125001D01*
X129502500Y-96520000D02*
X129502500Y-96939700D01*
X132233500Y-79602500D02*
X132130800Y-79705200D01*
X148802499Y-76043102D02*
X149408100Y-76043102D01*
X142837500Y-72390000D02*
X143459200Y-72390000D01*
X133985000Y-79602500D02*
X132233500Y-79602500D01*
%TO.N,/UVLO*%
X128270000Y-78486000D02*
X128930400Y-77825600D01*
X128270000Y-85495000D02*
X128270000Y-78486000D01*
X134582500Y-72390000D02*
X134582500Y-73660000D01*
X134582500Y-73660000D02*
X135662500Y-73660000D01*
X134582500Y-70297500D02*
X134582500Y-72390000D01*
X136427500Y-74870000D02*
X138391299Y-74870000D01*
X133807200Y-74879200D02*
X134061200Y-74879200D01*
X134070400Y-74870000D02*
X138391299Y-74870000D01*
X135890000Y-74332500D02*
X136427500Y-74870000D01*
X135890000Y-73887500D02*
X135890000Y-74332500D01*
X135662500Y-73660000D02*
X135890000Y-73887500D01*
X135665000Y-69215000D02*
X134582500Y-70297500D01*
X134061200Y-74879200D02*
X134070400Y-74870000D01*
%TO.N,GNDPWR*%
X144182499Y-80069999D02*
X143845725Y-80069999D01*
X141286899Y-75667801D02*
X141286899Y-77144999D01*
X141210699Y-74372401D02*
X141286899Y-74448601D01*
X140093099Y-74422000D02*
X140093099Y-74474001D01*
X141642500Y-71487700D02*
X141579600Y-71424800D01*
X140093099Y-74474001D02*
X141286899Y-75667801D01*
X171487500Y-114300000D02*
X171487500Y-113805300D01*
X172071000Y-112635000D02*
X172364400Y-112928400D01*
D44*
X163695000Y-114300000D02*
X164185600Y-114300000D01*
D43*
X142494000Y-74422000D02*
X142441999Y-74474001D01*
D44*
X127257500Y-113855000D02*
X128207000Y-113855000D01*
D43*
X141286899Y-75312201D02*
X141286899Y-77144999D01*
D44*
X154532500Y-113855000D02*
X155639000Y-113855000D01*
X164185600Y-114300000D02*
X164795200Y-113690400D01*
D43*
X141286899Y-74448601D02*
X141286899Y-77144999D01*
X170815000Y-112635000D02*
X172071000Y-112635000D01*
X132065000Y-92075000D02*
X133832600Y-92075000D01*
D44*
X140703800Y-113855000D02*
X141071600Y-113487200D01*
D43*
X141286899Y-77144999D02*
X141286899Y-78817401D01*
D44*
X143297601Y-80069999D02*
X144182499Y-80069999D01*
D43*
X141642500Y-72390000D02*
X141642500Y-71487700D01*
X142911900Y-78770000D02*
X141286899Y-77144999D01*
D44*
X128207000Y-113855000D02*
X128727200Y-113334800D01*
D43*
X141286899Y-78817401D02*
X140296299Y-79808001D01*
X141286899Y-77144999D02*
X141286899Y-79833401D01*
X133832600Y-92075000D02*
X133858000Y-92100400D01*
X141286899Y-79833401D02*
X141312299Y-79858801D01*
X142261901Y-78120001D02*
X141286899Y-77144999D01*
D44*
X142595600Y-80772000D02*
X143297601Y-80069999D01*
X139730000Y-113855000D02*
X140703800Y-113855000D01*
X155639000Y-113855000D02*
X155854400Y-113639600D01*
D43*
X142125099Y-74474001D02*
X141286899Y-75312201D01*
X144182499Y-78770000D02*
X142911900Y-78770000D01*
X142441999Y-74474001D02*
X142125099Y-74474001D01*
X144182499Y-78120001D02*
X144182499Y-78770000D01*
X171487500Y-113805300D02*
X172364400Y-112928400D01*
X144182499Y-78120001D02*
X142261901Y-78120001D01*
D44*
X141986000Y-80772000D02*
X142595600Y-80772000D01*
%TO.N,/VOUT*%
D43*
X172682500Y-113980000D02*
X173990000Y-112672500D01*
D44*
X138451500Y-119612500D02*
X137160000Y-119612500D01*
D43*
X130251200Y-93721200D02*
X129555000Y-93025000D01*
D44*
X162560000Y-114300000D02*
X162560000Y-115062000D01*
D43*
X172682500Y-114300000D02*
X172682500Y-113980000D01*
D44*
X138005000Y-114383000D02*
X139192000Y-115570000D01*
D43*
X174244000Y-118618000D02*
X173249500Y-119612500D01*
X132437500Y-85120000D02*
X132437500Y-88745700D01*
X173990000Y-114046000D02*
X174091600Y-114147600D01*
X145283613Y-76170000D02*
X144182499Y-76170000D01*
D44*
X153437500Y-119612500D02*
X154940000Y-119612500D01*
D43*
X132437500Y-85120000D02*
X132558000Y-85120000D01*
X146951099Y-75185201D02*
X146268413Y-75185201D01*
D44*
X125532500Y-117080000D02*
X123190000Y-119422500D01*
D43*
X173990000Y-112672500D02*
X173990000Y-114046000D01*
X130251200Y-93726000D02*
X130251200Y-93721200D01*
X130810000Y-91770000D02*
X130810000Y-89662000D01*
D44*
X125532500Y-113855000D02*
X125532500Y-117080000D01*
X162560000Y-115062000D02*
X161798000Y-115824000D01*
D43*
X132558000Y-85120000D02*
X133299200Y-84378800D01*
X174244000Y-115570000D02*
X174244000Y-118618000D01*
X127000000Y-92037500D02*
X128567500Y-92037500D01*
X151574999Y-76125001D02*
X150799999Y-75350001D01*
X132437500Y-88745700D02*
X132435600Y-88747600D01*
D44*
X139192000Y-118872000D02*
X138451500Y-119612500D01*
D43*
X130810000Y-89662000D02*
X131724400Y-88747600D01*
X146268413Y-75185201D02*
X145283613Y-76170000D01*
D44*
X161798000Y-115824000D02*
X161798000Y-118364000D01*
D43*
X131724400Y-88747600D02*
X132435600Y-88747600D01*
X172682500Y-114300000D02*
X172974000Y-114300000D01*
X149097099Y-75350001D02*
X148926564Y-75179466D01*
D44*
X161798000Y-118364000D02*
X163046500Y-119612500D01*
X152807500Y-113855000D02*
X152807500Y-119025500D01*
D43*
X138391299Y-80682499D02*
X138480800Y-80772000D01*
X173249500Y-119612500D02*
X172720000Y-119612500D01*
X128567500Y-92037500D02*
X129555000Y-93025000D01*
X132573300Y-95692500D02*
X131622800Y-94742000D01*
D44*
X163046500Y-119612500D02*
X163830000Y-119612500D01*
D43*
X132607500Y-95692500D02*
X132573300Y-95692500D01*
X128627500Y-93025000D02*
X129555000Y-93025000D01*
X138391299Y-80069997D02*
X138391299Y-80682499D01*
D44*
X138005000Y-113855000D02*
X138005000Y-114383000D01*
X139192000Y-115570000D02*
X139192000Y-118872000D01*
D43*
X172974000Y-114300000D02*
X174244000Y-115570000D01*
D44*
X153416000Y-119634000D02*
X153437500Y-119612500D01*
D43*
X129555000Y-93025000D02*
X130810000Y-91770000D01*
X150799999Y-75350001D02*
X149097099Y-75350001D01*
D44*
X152807500Y-119025500D02*
X153416000Y-119634000D01*
D43*
X127037500Y-94615000D02*
X128627500Y-93025000D01*
%TO.N,/VIN*%
X138172400Y-68990000D02*
X137261600Y-69900800D01*
X130175000Y-74332500D02*
X131826000Y-72681500D01*
X132305000Y-69215000D02*
X133629400Y-69215000D01*
X132080000Y-72390000D02*
X133387500Y-72390000D01*
X139065000Y-69977000D02*
X139065000Y-68990000D01*
X133387500Y-72390000D02*
X133387500Y-71665500D01*
X138202500Y-70839500D02*
X138202500Y-72390000D01*
X138202500Y-74031200D02*
X138391299Y-74219999D01*
X138202500Y-70839500D02*
X139065000Y-69977000D01*
X131826000Y-72644000D02*
X132080000Y-72390000D01*
X133629400Y-69215000D02*
X133654800Y-69189600D01*
X139065000Y-68990000D02*
X138172400Y-68990000D01*
X132305000Y-70583000D02*
X132305000Y-69215000D01*
X138202500Y-72390000D02*
X138202500Y-74031200D01*
X133387500Y-71665500D02*
X132305000Y-70583000D01*
X131826000Y-72681500D02*
X131826000Y-72644000D01*
%TO.N,Net-(D4-A)*%
X170815000Y-110885000D02*
X173952500Y-110885000D01*
X173952500Y-110885000D02*
X173990000Y-110847500D01*
%TO.N,Net-(C19-Pad2)*%
X133935000Y-80872500D02*
X132715000Y-80872500D01*
X134342500Y-81280000D02*
X133935000Y-80872500D01*
%TO.N,/COMP*%
X136167500Y-81280000D02*
X136167500Y-80748500D01*
X137496002Y-79419998D02*
X138391299Y-79419998D01*
X136167500Y-80748500D02*
X137496002Y-79419998D01*
X135890000Y-81557500D02*
X136167500Y-81280000D01*
X135890000Y-82617500D02*
X135890000Y-81557500D01*
%TO.N,/SOURCE*%
X139065000Y-64389000D02*
X139065000Y-65630000D01*
X138684000Y-64770000D02*
X138176000Y-64262000D01*
X139700000Y-64770000D02*
X138684000Y-64770000D01*
X139192000Y-64262000D02*
X139065000Y-64389000D01*
X140208000Y-64262000D02*
X139700000Y-64770000D01*
%TO.N,Net-(U2-IN+)*%
X128307500Y-94690000D02*
X128232500Y-94615000D01*
X128307500Y-96520000D02*
X128307500Y-94690000D01*
X128232500Y-94615000D02*
X130475000Y-94615000D01*
X130475000Y-94615000D02*
X132065000Y-93025000D01*
%TO.N,Net-(Q5-G)*%
X127164500Y-90842500D02*
X127447000Y-91125000D01*
X127000000Y-90842500D02*
X127000000Y-88815000D01*
X127447000Y-91125000D02*
X129555000Y-91125000D01*
X127000000Y-88815000D02*
X127320000Y-88495000D01*
X127000000Y-90842500D02*
X127164500Y-90842500D01*
%TO.N,/VCC*%
X145199298Y-76820001D02*
X144182499Y-76820001D01*
X145894298Y-76125001D02*
X145199298Y-76820001D01*
X147764999Y-76125001D02*
X145894298Y-76125001D01*
X147764999Y-75492501D02*
X147764999Y-76125001D01*
X149262499Y-73995001D02*
X147764999Y-75492501D01*
%TO.N,/VREF*%
X134992500Y-96887500D02*
X135255000Y-97150000D01*
X135255000Y-92648871D02*
X135255000Y-95250000D01*
X132065000Y-91125000D02*
X133731129Y-91125000D01*
X133731129Y-91125000D02*
X135255000Y-92648871D01*
X132607500Y-96887500D02*
X134992500Y-96887500D01*
X135255000Y-97150000D02*
X135255000Y-95250000D01*
%TO.N,/HB*%
X146906798Y-73812501D02*
X145199298Y-75520001D01*
X149262499Y-70635001D02*
X149262499Y-71907501D01*
X149262499Y-71907501D02*
X147357499Y-73812501D01*
X145199298Y-75520001D02*
X144182499Y-75520001D01*
%TO.N,/SW*%
X146049999Y-72950001D02*
X144779999Y-74220001D01*
X146049999Y-72950001D02*
X146049999Y-70866000D01*
X147305498Y-70866000D02*
X147357499Y-70918001D01*
X147357499Y-70918001D02*
X147357499Y-72087501D01*
X146849499Y-70866000D02*
X147305498Y-70866000D01*
X144779999Y-74220001D02*
X144182499Y-74220001D01*
%TO.N,Net-(U1-SS)*%
X135877497Y-78119998D02*
X138391299Y-78119998D01*
X135454999Y-77697500D02*
X135877497Y-78119998D01*
X135255000Y-77697500D02*
X135454999Y-77697500D01*
%TO.N,Net-(U1-RAMP)*%
X133985000Y-77877500D02*
X133985000Y-77343000D01*
X138346553Y-76864744D02*
X138391299Y-76819998D01*
X136599028Y-76864744D02*
X138346553Y-76864744D01*
X133985000Y-77343000D02*
X134467600Y-76860400D01*
%TO.N,/RT_SYNC*%
X135527502Y-75519998D02*
X138391299Y-75519998D01*
X135212500Y-75835000D02*
X132080000Y-75835000D01*
X135255000Y-75792500D02*
X135527502Y-75519998D01*
X135255000Y-75792500D02*
X135212500Y-75835000D01*
%TO.N,Net-(R4-Pad2)*%
X129247500Y-76455000D02*
X130175000Y-75527500D01*
X124847500Y-76455000D02*
X129247500Y-76455000D01*
%TO.N,Net-(C21-Pad1)*%
X144854999Y-72284999D02*
X144854999Y-72950001D01*
X144589999Y-72950001D02*
X144854999Y-72950001D01*
X143690000Y-71120000D02*
X144854999Y-72284999D01*
%TO.N,/EN*%
X136977600Y-76170000D02*
X136956800Y-76149200D01*
X138391299Y-76170000D02*
X136977600Y-76170000D01*
%TO.N,/CS*%
X144182499Y-79420001D02*
X145199301Y-79420001D01*
X146597499Y-80818199D02*
X146597499Y-83110001D01*
X145199301Y-79420001D02*
X146597499Y-80818199D01*
%TO.N,/LO*%
X153646562Y-78650000D02*
X153646562Y-77954562D01*
X145833499Y-77014001D02*
X145377500Y-77470000D01*
X153162000Y-77470000D02*
X145377500Y-77470000D01*
X146087499Y-77014001D02*
X145833499Y-77014001D01*
X153646562Y-77954562D02*
X153162000Y-77470000D01*
X145377500Y-77470000D02*
X144182499Y-77470000D01*
%TO.N,/HO*%
X145283613Y-74870000D02*
X144182499Y-74870000D01*
X145546098Y-74324672D02*
X145546098Y-74607515D01*
X145546098Y-74607515D02*
X145283613Y-74870000D01*
%TO.N,/7*%
X123380000Y-122152500D02*
X123190000Y-121962500D01*
%TO.N,Net-(Q6-GATE)*%
D44*
X168808400Y-58318400D02*
X168960800Y-58166000D01*
X161391600Y-58318400D02*
X168808400Y-58318400D01*
%TD*%
%TA.AperFunction,Conductor*%
%TO.N,/SW*%
G36*
X152760435Y-78169685D02*
G01*
X152806190Y-78222489D01*
X152816134Y-78291647D01*
X152807957Y-78321452D01*
X152780668Y-78387332D01*
X152780665Y-78387341D01*
X152746062Y-78561304D01*
X152746062Y-78738695D01*
X152780665Y-78912658D01*
X152780668Y-78912667D01*
X152848545Y-79076540D01*
X152848552Y-79076553D01*
X152947097Y-79224034D01*
X152947100Y-79224038D01*
X153072523Y-79349461D01*
X153072527Y-79349464D01*
X153220008Y-79448009D01*
X153220021Y-79448016D01*
X153342925Y-79498923D01*
X153383896Y-79515894D01*
X153383898Y-79515894D01*
X153383903Y-79515896D01*
X153557866Y-79550499D01*
X153557869Y-79550500D01*
X153557871Y-79550500D01*
X153735255Y-79550500D01*
X153735256Y-79550499D01*
X153793244Y-79538964D01*
X153909220Y-79515896D01*
X153909223Y-79515894D01*
X153909228Y-79515894D01*
X154073109Y-79448013D01*
X154220597Y-79349464D01*
X154346026Y-79224035D01*
X154444575Y-79076547D01*
X154512456Y-78912666D01*
X154547062Y-78738691D01*
X154547062Y-78561309D01*
X154547062Y-78561306D01*
X154547061Y-78561304D01*
X154512458Y-78387341D01*
X154512456Y-78387336D01*
X154512456Y-78387334D01*
X154462066Y-78265681D01*
X154453093Y-78207502D01*
X154458088Y-78150000D01*
X154469499Y-78150000D01*
X161240432Y-78150000D01*
X161240432Y-78307971D01*
X161240432Y-91026000D01*
X161220747Y-91093039D01*
X161167943Y-91138794D01*
X161116432Y-91150000D01*
X148364432Y-91150000D01*
X148297393Y-91130315D01*
X148251638Y-91077511D01*
X148240432Y-91026000D01*
X148240432Y-78274000D01*
X148260117Y-78206961D01*
X148312921Y-78161206D01*
X148364432Y-78150000D01*
X152693396Y-78150000D01*
X152760435Y-78169685D01*
G37*
%TD.AperFunction*%
%TD*%
%TA.AperFunction,Conductor*%
%TO.N,/SW*%
G36*
X154450554Y-65219685D02*
G01*
X154462033Y-65228026D01*
X161204522Y-70744607D01*
X161243942Y-70802292D01*
X161250000Y-70840576D01*
X161250000Y-78275387D01*
X161249837Y-78281749D01*
X161247020Y-78336562D01*
X161240432Y-78336514D01*
X154471093Y-78287475D01*
X154469499Y-78283625D01*
X154469499Y-75814487D01*
X154489184Y-75747448D01*
X154490351Y-75745664D01*
X154542989Y-75666887D01*
X154603332Y-75521205D01*
X154634095Y-75366550D01*
X154634095Y-75208866D01*
X154634095Y-75208863D01*
X154634094Y-75208861D01*
X154622286Y-75149501D01*
X154603332Y-75054211D01*
X154573126Y-74981287D01*
X154542992Y-74908535D01*
X154542985Y-74908522D01*
X154455384Y-74777419D01*
X154455381Y-74777415D01*
X154343887Y-74665921D01*
X154343883Y-74665918D01*
X154212780Y-74578317D01*
X154212767Y-74578310D01*
X154067096Y-74517972D01*
X154067084Y-74517969D01*
X153912440Y-74487208D01*
X153912437Y-74487208D01*
X153754753Y-74487208D01*
X153754750Y-74487208D01*
X153600105Y-74517969D01*
X153600093Y-74517972D01*
X153454422Y-74578310D01*
X153454409Y-74578317D01*
X153323306Y-74665918D01*
X153323302Y-74665921D01*
X153267662Y-74721562D01*
X153206339Y-74755047D01*
X153136647Y-74750063D01*
X153120608Y-74742742D01*
X153072499Y-74716501D01*
X153072498Y-74716501D01*
X151606577Y-74716501D01*
X151539538Y-74696816D01*
X151511318Y-74671884D01*
X151506346Y-74665918D01*
X150942240Y-73988990D01*
X150914444Y-73924887D01*
X150913499Y-73909607D01*
X150913499Y-71362500D01*
X150251999Y-71362500D01*
X150184960Y-71342815D01*
X150139205Y-71290011D01*
X150127999Y-71238500D01*
X150127998Y-69982130D01*
X150127997Y-69982124D01*
X150121590Y-69922517D01*
X150071296Y-69787672D01*
X150071292Y-69787665D01*
X149985046Y-69672456D01*
X149985043Y-69672453D01*
X149869834Y-69586207D01*
X149869827Y-69586203D01*
X149734981Y-69535909D01*
X149734982Y-69535909D01*
X149675382Y-69529502D01*
X149675380Y-69529501D01*
X149675372Y-69529501D01*
X149675363Y-69529501D01*
X148849628Y-69529501D01*
X148849622Y-69529502D01*
X148790015Y-69535909D01*
X148655170Y-69586203D01*
X148655163Y-69586207D01*
X148539954Y-69672453D01*
X148539951Y-69672456D01*
X148452848Y-69788811D01*
X148396915Y-69830682D01*
X148353582Y-69838500D01*
X148177224Y-69838500D01*
X147520621Y-70932799D01*
X147469249Y-70980157D01*
X147414293Y-70993000D01*
X145703499Y-70993000D01*
X145636460Y-70973315D01*
X145590705Y-70920511D01*
X145579499Y-70869000D01*
X145579499Y-65324000D01*
X145599184Y-65256961D01*
X145651988Y-65211206D01*
X145703499Y-65200000D01*
X154383515Y-65200000D01*
X154450554Y-65219685D01*
G37*
%TD.AperFunction*%
%TD*%
M02*
