M48
; DRILL file KiCad 10.0.0 date 2026-06-27T14:34:07
; FORMAT={-:-/ absolute / metric / decimal}
; #@! TF.CreationDate,2026-06-27T14:34:07-07:00
; #@! TF.GenerationSoftware,Kicad,Pcbnew,10.0.0
; #@! TF.FileFunction,Plated,1,4,PTH
FMAT,2
METRIC
; #@! TA.AperFunction,Plated,PTH,ViaDrill
T1C0.300
; #@! TA.AperFunction,Plated,PTH,ViaDrill
T2C0.500
; #@! TA.AperFunction,Plated,PTH,ComponentDrill
T3C1.016
; #@! TA.AperFunction,Plated,PTH,ComponentDrill
T4C1.250
; #@! TA.AperFunction,Plated,PTH,ComponentDrill
T5C1.850
; #@! TA.AperFunction,Plated,PTH,ComponentDrill
T6C4.550
%
G90
G05
T1
X121.107Y-116.899
X127.635Y-115.552
X128.727Y-113.335
X128.93Y-77.826
X130.048Y-97.485
X130.251Y-93.726
X130.505Y-77.978
X130.505Y-88.29
X131.369Y-82.55
X131.623Y-94.742
X132.131Y-79.705
X132.436Y-88.748
X132.486Y-74.27
X132.715Y-115.735
X133.299Y-84.379
X133.655Y-69.19
X133.807Y-74.879
X133.858Y-92.1
X134.264Y-82.398
X134.468Y-76.86
X135.89Y-79.248
X135.927Y-76.26
X136.599Y-76.865
X136.804Y-115.375
X136.906Y-71.882
X136.957Y-76.149
X137.19Y-77.52
X137.262Y-69.901
X138.481Y-80.772
X139.1Y-82.594
X139.1Y-83.244
X139.1Y-83.894
X139.1Y-84.594
X139.1Y-85.344
X139.8Y-85.344
X140.093Y-74.422
X140.208Y-71.272
X140.259Y-95.809
X140.296Y-79.808
X140.5Y-85.344
X141.021Y-69.444
X141.072Y-113.487
X141.2Y-85.344
X141.211Y-74.372
X141.312Y-79.859
X141.58Y-71.425
X141.605Y-115.603
X141.9Y-82.702
X141.9Y-83.352
X141.9Y-84.002
X141.9Y-84.652
X141.9Y-85.344
X141.986Y-80.772
X142.494Y-74.422
X142.8Y-70.358
X143.713Y-72.644
X145.546Y-74.325
X146.05Y-115.425
X146.087Y-77.014
X146.597Y-83.11
X146.951Y-75.185
X147.8Y-68.45
X147.8Y-69.15
X148.55Y-68.45
X148.55Y-69.15
X148.802Y-76.043
X148.927Y-75.179
X149.6Y-85.9
X150.35Y-85.9
X150.495Y-115.4
X151.1Y-85.9
X151.13Y-70.866
X151.2Y-71.8
X151.85Y-71.8
X151.85Y-85.9
X151.892Y-70.866
X152.5Y-71.8
X152.5Y-85.55
X152.654Y-70.104
X152.654Y-70.75
X152.8Y-83.35
X152.85Y-84.05
X152.85Y-84.85
X153.15Y-71.8
X153.834Y-75.288
X153.85Y-71.85
X154.15Y-83.85
X154.15Y-84.55
X154.15Y-85.25
X154.15Y-85.9
X154.15Y-86.6
X154.15Y-87.35
X154.35Y-72.45
X154.35Y-73.15
X154.35Y-73.85
X154.94Y-115.324
X155.15Y-79.55
X155.85Y-79.55
X155.854Y-113.64
X156.55Y-79.55
X157.25Y-79.35
X157.55Y-75.85
X157.55Y-76.5
X157.55Y-77.2
X157.55Y-77.9
X157.55Y-78.65
X159.385Y-115.502
X161.392Y-58.318
X162.398Y-61.8
X162.4Y-59.2
X162.4Y-59.85
X162.4Y-60.5
X162.4Y-61.15
X163.05Y-61.85
X163.75Y-61.85
X163.83Y-115.324
X164.45Y-61.85
X164.795Y-113.69
X165.15Y-61.85
X165.85Y-61.85
X166.55Y-61.85
X167.25Y-61.85
X167.95Y-59.25
X167.95Y-59.9
X167.95Y-60.55
X167.95Y-61.2
X167.95Y-61.85
X168.275Y-115.4
X168.961Y-58.166
X172.364Y-112.928
X172.364Y-115.324
X174.092Y-114.148
T2
X125.3Y-98.9
X125.3Y-99.7
X129.9Y-98.95
X129.9Y-99.7
X137.52Y-100.61
X137.52Y-101.46
X138.176Y-64.262
X139.192Y-64.262
X140.208Y-64.262
X141.97Y-100.61
X141.97Y-101.46
X149.235Y-100.22
X149.235Y-101.07
X153.647Y-78.65
X154.035Y-100.22
X154.035Y-101.07
X154.83Y-91.945
X154.83Y-97.445
X155.78Y-91.945
X155.83Y-97.445
T3
X123.19Y-125.73
X127.635Y-125.73
X132.715Y-125.73
X137.16Y-125.73
X141.605Y-125.73
X146.05Y-125.73
X150.495Y-125.73
X154.94Y-125.73
X159.385Y-125.73
X163.83Y-125.73
X168.275Y-125.73
X172.695Y-125.73
T4
X123.19Y-116.882
X123.19Y-119.422
X123.19Y-121.962
X127.635Y-117.072
X127.635Y-119.612
X127.635Y-122.152
X132.715Y-117.072
X132.715Y-119.612
X132.715Y-122.152
X137.16Y-117.072
X137.16Y-119.612
X137.16Y-122.152
X141.605Y-117.072
X141.605Y-119.612
X141.605Y-122.152
X146.05Y-117.072
X146.05Y-119.612
X146.05Y-122.152
X150.495Y-117.072
X150.495Y-119.612
X150.495Y-122.152
X154.94Y-117.072
X154.94Y-119.612
X154.94Y-122.152
X159.385Y-117.072
X159.385Y-119.612
X159.385Y-122.152
X163.83Y-117.072
X163.83Y-119.612
X163.83Y-122.152
X168.275Y-117.072
X168.275Y-119.612
X168.275Y-122.152
X172.72Y-117.072
X172.72Y-119.612
X172.72Y-122.152
T5
X124.847Y-71.755
X124.847Y-76.455
X124.847Y-81.155
T6
X150.705Y-48.895
X157.905Y-48.895
M30
