%TF.GenerationSoftware,KiCad,Pcbnew,10.0.0*%
%TF.CreationDate,2026-06-27T14:34:16-07:00*%
%TF.ProjectId,LM5116,4c4d3531-3136-42e6-9b69-6361645f7063,rev?*%
%TF.SameCoordinates,Original*%
%TF.FileFunction,Legend,Top*%
%TF.FilePolarity,Positive*%
%FSLAX46Y46*%
G04 Gerber Fmt 4.6, Leading zero omitted, Abs format (unit mm)*
G04 Created by KiCad (PCBNEW 10.0.0) date 2026-06-27 14:34:16*
%MOMM*%
%LPD*%
G01*
G04 APERTURE LIST*
%ADD10C,0.150000*%
%ADD11C,0.120000*%
%ADD12C,0.152400*%
%ADD13C,0.127000*%
%ADD14C,0.200000*%
%ADD15C,0.508000*%
G04 APERTURE END LIST*
D10*
X130233333Y-83789819D02*
X129900000Y-83313628D01*
X129661905Y-83789819D02*
X129661905Y-82789819D01*
X129661905Y-82789819D02*
X130042857Y-82789819D01*
X130042857Y-82789819D02*
X130138095Y-82837438D01*
X130138095Y-82837438D02*
X130185714Y-82885057D01*
X130185714Y-82885057D02*
X130233333Y-82980295D01*
X130233333Y-82980295D02*
X130233333Y-83123152D01*
X130233333Y-83123152D02*
X130185714Y-83218390D01*
X130185714Y-83218390D02*
X130138095Y-83266009D01*
X130138095Y-83266009D02*
X130042857Y-83313628D01*
X130042857Y-83313628D02*
X129661905Y-83313628D01*
X130709524Y-83789819D02*
X130900000Y-83789819D01*
X130900000Y-83789819D02*
X130995238Y-83742200D01*
X130995238Y-83742200D02*
X131042857Y-83694580D01*
X131042857Y-83694580D02*
X131138095Y-83551723D01*
X131138095Y-83551723D02*
X131185714Y-83361247D01*
X131185714Y-83361247D02*
X131185714Y-82980295D01*
X131185714Y-82980295D02*
X131138095Y-82885057D01*
X131138095Y-82885057D02*
X131090476Y-82837438D01*
X131090476Y-82837438D02*
X130995238Y-82789819D01*
X130995238Y-82789819D02*
X130804762Y-82789819D01*
X130804762Y-82789819D02*
X130709524Y-82837438D01*
X130709524Y-82837438D02*
X130661905Y-82885057D01*
X130661905Y-82885057D02*
X130614286Y-82980295D01*
X130614286Y-82980295D02*
X130614286Y-83218390D01*
X130614286Y-83218390D02*
X130661905Y-83313628D01*
X130661905Y-83313628D02*
X130709524Y-83361247D01*
X130709524Y-83361247D02*
X130804762Y-83408866D01*
X130804762Y-83408866D02*
X130995238Y-83408866D01*
X130995238Y-83408866D02*
X131090476Y-83361247D01*
X131090476Y-83361247D02*
X131138095Y-83313628D01*
X131138095Y-83313628D02*
X131185714Y-83218390D01*
X131698333Y-73854819D02*
X131365000Y-73378628D01*
X131126905Y-73854819D02*
X131126905Y-72854819D01*
X131126905Y-72854819D02*
X131507857Y-72854819D01*
X131507857Y-72854819D02*
X131603095Y-72902438D01*
X131603095Y-72902438D02*
X131650714Y-72950057D01*
X131650714Y-72950057D02*
X131698333Y-73045295D01*
X131698333Y-73045295D02*
X131698333Y-73188152D01*
X131698333Y-73188152D02*
X131650714Y-73283390D01*
X131650714Y-73283390D02*
X131603095Y-73331009D01*
X131603095Y-73331009D02*
X131507857Y-73378628D01*
X131507857Y-73378628D02*
X131126905Y-73378628D01*
X132031667Y-72854819D02*
X132650714Y-72854819D01*
X132650714Y-72854819D02*
X132317381Y-73235771D01*
X132317381Y-73235771D02*
X132460238Y-73235771D01*
X132460238Y-73235771D02*
X132555476Y-73283390D01*
X132555476Y-73283390D02*
X132603095Y-73331009D01*
X132603095Y-73331009D02*
X132650714Y-73426247D01*
X132650714Y-73426247D02*
X132650714Y-73664342D01*
X132650714Y-73664342D02*
X132603095Y-73759580D01*
X132603095Y-73759580D02*
X132555476Y-73807200D01*
X132555476Y-73807200D02*
X132460238Y-73854819D01*
X132460238Y-73854819D02*
X132174524Y-73854819D01*
X132174524Y-73854819D02*
X132079286Y-73807200D01*
X132079286Y-73807200D02*
X132031667Y-73759580D01*
X141433333Y-71674819D02*
X141100000Y-71198628D01*
X140861905Y-71674819D02*
X140861905Y-70674819D01*
X140861905Y-70674819D02*
X141242857Y-70674819D01*
X141242857Y-70674819D02*
X141338095Y-70722438D01*
X141338095Y-70722438D02*
X141385714Y-70770057D01*
X141385714Y-70770057D02*
X141433333Y-70865295D01*
X141433333Y-70865295D02*
X141433333Y-71008152D01*
X141433333Y-71008152D02*
X141385714Y-71103390D01*
X141385714Y-71103390D02*
X141338095Y-71151009D01*
X141338095Y-71151009D02*
X141242857Y-71198628D01*
X141242857Y-71198628D02*
X140861905Y-71198628D01*
X142385714Y-71674819D02*
X141814286Y-71674819D01*
X142100000Y-71674819D02*
X142100000Y-70674819D01*
X142100000Y-70674819D02*
X142004762Y-70817676D01*
X142004762Y-70817676D02*
X141909524Y-70912914D01*
X141909524Y-70912914D02*
X141814286Y-70960533D01*
X152270832Y-75054581D02*
X152223213Y-75102201D01*
X152223213Y-75102201D02*
X152080356Y-75149820D01*
X152080356Y-75149820D02*
X151985118Y-75149820D01*
X151985118Y-75149820D02*
X151842261Y-75102201D01*
X151842261Y-75102201D02*
X151747023Y-75006962D01*
X151747023Y-75006962D02*
X151699404Y-74911724D01*
X151699404Y-74911724D02*
X151651785Y-74721248D01*
X151651785Y-74721248D02*
X151651785Y-74578391D01*
X151651785Y-74578391D02*
X151699404Y-74387915D01*
X151699404Y-74387915D02*
X151747023Y-74292677D01*
X151747023Y-74292677D02*
X151842261Y-74197439D01*
X151842261Y-74197439D02*
X151985118Y-74149820D01*
X151985118Y-74149820D02*
X152080356Y-74149820D01*
X152080356Y-74149820D02*
X152223213Y-74197439D01*
X152223213Y-74197439D02*
X152270832Y-74245058D01*
X153223213Y-75149820D02*
X152651785Y-75149820D01*
X152937499Y-75149820D02*
X152937499Y-74149820D01*
X152937499Y-74149820D02*
X152842261Y-74292677D01*
X152842261Y-74292677D02*
X152747023Y-74387915D01*
X152747023Y-74387915D02*
X152651785Y-74435534D01*
X138866667Y-71386104D02*
X138828571Y-71424200D01*
X138828571Y-71424200D02*
X138714286Y-71462295D01*
X138714286Y-71462295D02*
X138638095Y-71462295D01*
X138638095Y-71462295D02*
X138523809Y-71424200D01*
X138523809Y-71424200D02*
X138447619Y-71348009D01*
X138447619Y-71348009D02*
X138409524Y-71271819D01*
X138409524Y-71271819D02*
X138371428Y-71119438D01*
X138371428Y-71119438D02*
X138371428Y-71005152D01*
X138371428Y-71005152D02*
X138409524Y-70852771D01*
X138409524Y-70852771D02*
X138447619Y-70776580D01*
X138447619Y-70776580D02*
X138523809Y-70700390D01*
X138523809Y-70700390D02*
X138638095Y-70662295D01*
X138638095Y-70662295D02*
X138714286Y-70662295D01*
X138714286Y-70662295D02*
X138828571Y-70700390D01*
X138828571Y-70700390D02*
X138866667Y-70738485D01*
X139552381Y-70662295D02*
X139400000Y-70662295D01*
X139400000Y-70662295D02*
X139323809Y-70700390D01*
X139323809Y-70700390D02*
X139285714Y-70738485D01*
X139285714Y-70738485D02*
X139209524Y-70852771D01*
X139209524Y-70852771D02*
X139171428Y-71005152D01*
X139171428Y-71005152D02*
X139171428Y-71309914D01*
X139171428Y-71309914D02*
X139209524Y-71386104D01*
X139209524Y-71386104D02*
X139247619Y-71424200D01*
X139247619Y-71424200D02*
X139323809Y-71462295D01*
X139323809Y-71462295D02*
X139476190Y-71462295D01*
X139476190Y-71462295D02*
X139552381Y-71424200D01*
X139552381Y-71424200D02*
X139590476Y-71386104D01*
X139590476Y-71386104D02*
X139628571Y-71309914D01*
X139628571Y-71309914D02*
X139628571Y-71119438D01*
X139628571Y-71119438D02*
X139590476Y-71043247D01*
X139590476Y-71043247D02*
X139552381Y-71005152D01*
X139552381Y-71005152D02*
X139476190Y-70967057D01*
X139476190Y-70967057D02*
X139323809Y-70967057D01*
X139323809Y-70967057D02*
X139247619Y-71005152D01*
X139247619Y-71005152D02*
X139209524Y-71043247D01*
X139209524Y-71043247D02*
X139171428Y-71119438D01*
X169839819Y-112498094D02*
X168839819Y-112498094D01*
X168839819Y-112498094D02*
X168839819Y-112259999D01*
X168839819Y-112259999D02*
X168887438Y-112117142D01*
X168887438Y-112117142D02*
X168982676Y-112021904D01*
X168982676Y-112021904D02*
X169077914Y-111974285D01*
X169077914Y-111974285D02*
X169268390Y-111926666D01*
X169268390Y-111926666D02*
X169411247Y-111926666D01*
X169411247Y-111926666D02*
X169601723Y-111974285D01*
X169601723Y-111974285D02*
X169696961Y-112021904D01*
X169696961Y-112021904D02*
X169792200Y-112117142D01*
X169792200Y-112117142D02*
X169839819Y-112259999D01*
X169839819Y-112259999D02*
X169839819Y-112498094D01*
X169173152Y-111069523D02*
X169839819Y-111069523D01*
X168792200Y-111307618D02*
X169506485Y-111545713D01*
X169506485Y-111545713D02*
X169506485Y-110926666D01*
X137585714Y-82062295D02*
X137319047Y-81681342D01*
X137128571Y-82062295D02*
X137128571Y-81262295D01*
X137128571Y-81262295D02*
X137433333Y-81262295D01*
X137433333Y-81262295D02*
X137509523Y-81300390D01*
X137509523Y-81300390D02*
X137547618Y-81338485D01*
X137547618Y-81338485D02*
X137585714Y-81414676D01*
X137585714Y-81414676D02*
X137585714Y-81528961D01*
X137585714Y-81528961D02*
X137547618Y-81605152D01*
X137547618Y-81605152D02*
X137509523Y-81643247D01*
X137509523Y-81643247D02*
X137433333Y-81681342D01*
X137433333Y-81681342D02*
X137128571Y-81681342D01*
X138347618Y-82062295D02*
X137890475Y-82062295D01*
X138119047Y-82062295D02*
X138119047Y-81262295D01*
X138119047Y-81262295D02*
X138042856Y-81376580D01*
X138042856Y-81376580D02*
X137966666Y-81452771D01*
X137966666Y-81452771D02*
X137890475Y-81490866D01*
X138842857Y-81262295D02*
X138919047Y-81262295D01*
X138919047Y-81262295D02*
X138995238Y-81300390D01*
X138995238Y-81300390D02*
X139033333Y-81338485D01*
X139033333Y-81338485D02*
X139071428Y-81414676D01*
X139071428Y-81414676D02*
X139109523Y-81567057D01*
X139109523Y-81567057D02*
X139109523Y-81757533D01*
X139109523Y-81757533D02*
X139071428Y-81909914D01*
X139071428Y-81909914D02*
X139033333Y-81986104D01*
X139033333Y-81986104D02*
X138995238Y-82024200D01*
X138995238Y-82024200D02*
X138919047Y-82062295D01*
X138919047Y-82062295D02*
X138842857Y-82062295D01*
X138842857Y-82062295D02*
X138766666Y-82024200D01*
X138766666Y-82024200D02*
X138728571Y-81986104D01*
X138728571Y-81986104D02*
X138690476Y-81909914D01*
X138690476Y-81909914D02*
X138652380Y-81757533D01*
X138652380Y-81757533D02*
X138652380Y-81567057D01*
X138652380Y-81567057D02*
X138690476Y-81414676D01*
X138690476Y-81414676D02*
X138728571Y-81338485D01*
X138728571Y-81338485D02*
X138766666Y-81300390D01*
X138766666Y-81300390D02*
X138842857Y-81262295D01*
X137754819Y-67788094D02*
X136754819Y-67788094D01*
X136754819Y-67788094D02*
X136754819Y-67549999D01*
X136754819Y-67549999D02*
X136802438Y-67407142D01*
X136802438Y-67407142D02*
X136897676Y-67311904D01*
X136897676Y-67311904D02*
X136992914Y-67264285D01*
X136992914Y-67264285D02*
X137183390Y-67216666D01*
X137183390Y-67216666D02*
X137326247Y-67216666D01*
X137326247Y-67216666D02*
X137516723Y-67264285D01*
X137516723Y-67264285D02*
X137611961Y-67311904D01*
X137611961Y-67311904D02*
X137707200Y-67407142D01*
X137707200Y-67407142D02*
X137754819Y-67549999D01*
X137754819Y-67549999D02*
X137754819Y-67788094D01*
X137754819Y-66264285D02*
X137754819Y-66835713D01*
X137754819Y-66549999D02*
X136754819Y-66549999D01*
X136754819Y-66549999D02*
X136897676Y-66645237D01*
X136897676Y-66645237D02*
X136992914Y-66740475D01*
X136992914Y-66740475D02*
X137040533Y-66835713D01*
X138224642Y-112784580D02*
X138177023Y-112832200D01*
X138177023Y-112832200D02*
X138034166Y-112879819D01*
X138034166Y-112879819D02*
X137938928Y-112879819D01*
X137938928Y-112879819D02*
X137796071Y-112832200D01*
X137796071Y-112832200D02*
X137700833Y-112736961D01*
X137700833Y-112736961D02*
X137653214Y-112641723D01*
X137653214Y-112641723D02*
X137605595Y-112451247D01*
X137605595Y-112451247D02*
X137605595Y-112308390D01*
X137605595Y-112308390D02*
X137653214Y-112117914D01*
X137653214Y-112117914D02*
X137700833Y-112022676D01*
X137700833Y-112022676D02*
X137796071Y-111927438D01*
X137796071Y-111927438D02*
X137938928Y-111879819D01*
X137938928Y-111879819D02*
X138034166Y-111879819D01*
X138034166Y-111879819D02*
X138177023Y-111927438D01*
X138177023Y-111927438D02*
X138224642Y-111975057D01*
X139177023Y-112879819D02*
X138605595Y-112879819D01*
X138891309Y-112879819D02*
X138891309Y-111879819D01*
X138891309Y-111879819D02*
X138796071Y-112022676D01*
X138796071Y-112022676D02*
X138700833Y-112117914D01*
X138700833Y-112117914D02*
X138605595Y-112165533D01*
X140034166Y-111879819D02*
X139843690Y-111879819D01*
X139843690Y-111879819D02*
X139748452Y-111927438D01*
X139748452Y-111927438D02*
X139700833Y-111975057D01*
X139700833Y-111975057D02*
X139605595Y-112117914D01*
X139605595Y-112117914D02*
X139557976Y-112308390D01*
X139557976Y-112308390D02*
X139557976Y-112689342D01*
X139557976Y-112689342D02*
X139605595Y-112784580D01*
X139605595Y-112784580D02*
X139653214Y-112832200D01*
X139653214Y-112832200D02*
X139748452Y-112879819D01*
X139748452Y-112879819D02*
X139938928Y-112879819D01*
X139938928Y-112879819D02*
X140034166Y-112832200D01*
X140034166Y-112832200D02*
X140081785Y-112784580D01*
X140081785Y-112784580D02*
X140129404Y-112689342D01*
X140129404Y-112689342D02*
X140129404Y-112451247D01*
X140129404Y-112451247D02*
X140081785Y-112356009D01*
X140081785Y-112356009D02*
X140034166Y-112308390D01*
X140034166Y-112308390D02*
X139938928Y-112260771D01*
X139938928Y-112260771D02*
X139748452Y-112260771D01*
X139748452Y-112260771D02*
X139653214Y-112308390D01*
X139653214Y-112308390D02*
X139605595Y-112356009D01*
X139605595Y-112356009D02*
X139557976Y-112451247D01*
X125557142Y-96854819D02*
X125223809Y-96378628D01*
X124985714Y-96854819D02*
X124985714Y-95854819D01*
X124985714Y-95854819D02*
X125366666Y-95854819D01*
X125366666Y-95854819D02*
X125461904Y-95902438D01*
X125461904Y-95902438D02*
X125509523Y-95950057D01*
X125509523Y-95950057D02*
X125557142Y-96045295D01*
X125557142Y-96045295D02*
X125557142Y-96188152D01*
X125557142Y-96188152D02*
X125509523Y-96283390D01*
X125509523Y-96283390D02*
X125461904Y-96331009D01*
X125461904Y-96331009D02*
X125366666Y-96378628D01*
X125366666Y-96378628D02*
X124985714Y-96378628D01*
X125938095Y-95950057D02*
X125985714Y-95902438D01*
X125985714Y-95902438D02*
X126080952Y-95854819D01*
X126080952Y-95854819D02*
X126319047Y-95854819D01*
X126319047Y-95854819D02*
X126414285Y-95902438D01*
X126414285Y-95902438D02*
X126461904Y-95950057D01*
X126461904Y-95950057D02*
X126509523Y-96045295D01*
X126509523Y-96045295D02*
X126509523Y-96140533D01*
X126509523Y-96140533D02*
X126461904Y-96283390D01*
X126461904Y-96283390D02*
X125890476Y-96854819D01*
X125890476Y-96854819D02*
X126509523Y-96854819D01*
X127128571Y-95854819D02*
X127223809Y-95854819D01*
X127223809Y-95854819D02*
X127319047Y-95902438D01*
X127319047Y-95902438D02*
X127366666Y-95950057D01*
X127366666Y-95950057D02*
X127414285Y-96045295D01*
X127414285Y-96045295D02*
X127461904Y-96235771D01*
X127461904Y-96235771D02*
X127461904Y-96473866D01*
X127461904Y-96473866D02*
X127414285Y-96664342D01*
X127414285Y-96664342D02*
X127366666Y-96759580D01*
X127366666Y-96759580D02*
X127319047Y-96807200D01*
X127319047Y-96807200D02*
X127223809Y-96854819D01*
X127223809Y-96854819D02*
X127128571Y-96854819D01*
X127128571Y-96854819D02*
X127033333Y-96807200D01*
X127033333Y-96807200D02*
X126985714Y-96759580D01*
X126985714Y-96759580D02*
X126938095Y-96664342D01*
X126938095Y-96664342D02*
X126890476Y-96473866D01*
X126890476Y-96473866D02*
X126890476Y-96235771D01*
X126890476Y-96235771D02*
X126938095Y-96045295D01*
X126938095Y-96045295D02*
X126985714Y-95950057D01*
X126985714Y-95950057D02*
X127033333Y-95902438D01*
X127033333Y-95902438D02*
X127128571Y-95854819D01*
X126284819Y-92082857D02*
X125808628Y-92416190D01*
X126284819Y-92654285D02*
X125284819Y-92654285D01*
X125284819Y-92654285D02*
X125284819Y-92273333D01*
X125284819Y-92273333D02*
X125332438Y-92178095D01*
X125332438Y-92178095D02*
X125380057Y-92130476D01*
X125380057Y-92130476D02*
X125475295Y-92082857D01*
X125475295Y-92082857D02*
X125618152Y-92082857D01*
X125618152Y-92082857D02*
X125713390Y-92130476D01*
X125713390Y-92130476D02*
X125761009Y-92178095D01*
X125761009Y-92178095D02*
X125808628Y-92273333D01*
X125808628Y-92273333D02*
X125808628Y-92654285D01*
X125380057Y-91701904D02*
X125332438Y-91654285D01*
X125332438Y-91654285D02*
X125284819Y-91559047D01*
X125284819Y-91559047D02*
X125284819Y-91320952D01*
X125284819Y-91320952D02*
X125332438Y-91225714D01*
X125332438Y-91225714D02*
X125380057Y-91178095D01*
X125380057Y-91178095D02*
X125475295Y-91130476D01*
X125475295Y-91130476D02*
X125570533Y-91130476D01*
X125570533Y-91130476D02*
X125713390Y-91178095D01*
X125713390Y-91178095D02*
X126284819Y-91749523D01*
X126284819Y-91749523D02*
X126284819Y-91130476D01*
X126284819Y-90178095D02*
X126284819Y-90749523D01*
X126284819Y-90463809D02*
X125284819Y-90463809D01*
X125284819Y-90463809D02*
X125427676Y-90559047D01*
X125427676Y-90559047D02*
X125522914Y-90654285D01*
X125522914Y-90654285D02*
X125570533Y-90749523D01*
X169833333Y-115354819D02*
X169500000Y-114878628D01*
X169261905Y-115354819D02*
X169261905Y-114354819D01*
X169261905Y-114354819D02*
X169642857Y-114354819D01*
X169642857Y-114354819D02*
X169738095Y-114402438D01*
X169738095Y-114402438D02*
X169785714Y-114450057D01*
X169785714Y-114450057D02*
X169833333Y-114545295D01*
X169833333Y-114545295D02*
X169833333Y-114688152D01*
X169833333Y-114688152D02*
X169785714Y-114783390D01*
X169785714Y-114783390D02*
X169738095Y-114831009D01*
X169738095Y-114831009D02*
X169642857Y-114878628D01*
X169642857Y-114878628D02*
X169261905Y-114878628D01*
X170166667Y-114354819D02*
X170833333Y-114354819D01*
X170833333Y-114354819D02*
X170404762Y-115354819D01*
X136866667Y-71186104D02*
X136828571Y-71224200D01*
X136828571Y-71224200D02*
X136714286Y-71262295D01*
X136714286Y-71262295D02*
X136638095Y-71262295D01*
X136638095Y-71262295D02*
X136523809Y-71224200D01*
X136523809Y-71224200D02*
X136447619Y-71148009D01*
X136447619Y-71148009D02*
X136409524Y-71071819D01*
X136409524Y-71071819D02*
X136371428Y-70919438D01*
X136371428Y-70919438D02*
X136371428Y-70805152D01*
X136371428Y-70805152D02*
X136409524Y-70652771D01*
X136409524Y-70652771D02*
X136447619Y-70576580D01*
X136447619Y-70576580D02*
X136523809Y-70500390D01*
X136523809Y-70500390D02*
X136638095Y-70462295D01*
X136638095Y-70462295D02*
X136714286Y-70462295D01*
X136714286Y-70462295D02*
X136828571Y-70500390D01*
X136828571Y-70500390D02*
X136866667Y-70538485D01*
X137133333Y-70462295D02*
X137666667Y-70462295D01*
X137666667Y-70462295D02*
X137323809Y-71262295D01*
X126070057Y-87090238D02*
X126022438Y-87185476D01*
X126022438Y-87185476D02*
X125927200Y-87280714D01*
X125927200Y-87280714D02*
X125784342Y-87423571D01*
X125784342Y-87423571D02*
X125736723Y-87518809D01*
X125736723Y-87518809D02*
X125736723Y-87614047D01*
X125974819Y-87566428D02*
X125927200Y-87661666D01*
X125927200Y-87661666D02*
X125831961Y-87756904D01*
X125831961Y-87756904D02*
X125641485Y-87804523D01*
X125641485Y-87804523D02*
X125308152Y-87804523D01*
X125308152Y-87804523D02*
X125117676Y-87756904D01*
X125117676Y-87756904D02*
X125022438Y-87661666D01*
X125022438Y-87661666D02*
X124974819Y-87566428D01*
X124974819Y-87566428D02*
X124974819Y-87375952D01*
X124974819Y-87375952D02*
X125022438Y-87280714D01*
X125022438Y-87280714D02*
X125117676Y-87185476D01*
X125117676Y-87185476D02*
X125308152Y-87137857D01*
X125308152Y-87137857D02*
X125641485Y-87137857D01*
X125641485Y-87137857D02*
X125831961Y-87185476D01*
X125831961Y-87185476D02*
X125927200Y-87280714D01*
X125927200Y-87280714D02*
X125974819Y-87375952D01*
X125974819Y-87375952D02*
X125974819Y-87566428D01*
X124974819Y-86233095D02*
X124974819Y-86709285D01*
X124974819Y-86709285D02*
X125451009Y-86756904D01*
X125451009Y-86756904D02*
X125403390Y-86709285D01*
X125403390Y-86709285D02*
X125355771Y-86614047D01*
X125355771Y-86614047D02*
X125355771Y-86375952D01*
X125355771Y-86375952D02*
X125403390Y-86280714D01*
X125403390Y-86280714D02*
X125451009Y-86233095D01*
X125451009Y-86233095D02*
X125546247Y-86185476D01*
X125546247Y-86185476D02*
X125784342Y-86185476D01*
X125784342Y-86185476D02*
X125879580Y-86233095D01*
X125879580Y-86233095D02*
X125927200Y-86280714D01*
X125927200Y-86280714D02*
X125974819Y-86375952D01*
X125974819Y-86375952D02*
X125974819Y-86614047D01*
X125974819Y-86614047D02*
X125927200Y-86709285D01*
X125927200Y-86709285D02*
X125879580Y-86756904D01*
X147924641Y-77929581D02*
X147877022Y-77977201D01*
X147877022Y-77977201D02*
X147734165Y-78024820D01*
X147734165Y-78024820D02*
X147638927Y-78024820D01*
X147638927Y-78024820D02*
X147496070Y-77977201D01*
X147496070Y-77977201D02*
X147400832Y-77881962D01*
X147400832Y-77881962D02*
X147353213Y-77786724D01*
X147353213Y-77786724D02*
X147305594Y-77596248D01*
X147305594Y-77596248D02*
X147305594Y-77453391D01*
X147305594Y-77453391D02*
X147353213Y-77262915D01*
X147353213Y-77262915D02*
X147400832Y-77167677D01*
X147400832Y-77167677D02*
X147496070Y-77072439D01*
X147496070Y-77072439D02*
X147638927Y-77024820D01*
X147638927Y-77024820D02*
X147734165Y-77024820D01*
X147734165Y-77024820D02*
X147877022Y-77072439D01*
X147877022Y-77072439D02*
X147924641Y-77120058D01*
X148877022Y-78024820D02*
X148305594Y-78024820D01*
X148591308Y-78024820D02*
X148591308Y-77024820D01*
X148591308Y-77024820D02*
X148496070Y-77167677D01*
X148496070Y-77167677D02*
X148400832Y-77262915D01*
X148400832Y-77262915D02*
X148305594Y-77310534D01*
X149496070Y-77024820D02*
X149591308Y-77024820D01*
X149591308Y-77024820D02*
X149686546Y-77072439D01*
X149686546Y-77072439D02*
X149734165Y-77120058D01*
X149734165Y-77120058D02*
X149781784Y-77215296D01*
X149781784Y-77215296D02*
X149829403Y-77405772D01*
X149829403Y-77405772D02*
X149829403Y-77643867D01*
X149829403Y-77643867D02*
X149781784Y-77834343D01*
X149781784Y-77834343D02*
X149734165Y-77929581D01*
X149734165Y-77929581D02*
X149686546Y-77977201D01*
X149686546Y-77977201D02*
X149591308Y-78024820D01*
X149591308Y-78024820D02*
X149496070Y-78024820D01*
X149496070Y-78024820D02*
X149400832Y-77977201D01*
X149400832Y-77977201D02*
X149353213Y-77929581D01*
X149353213Y-77929581D02*
X149305594Y-77834343D01*
X149305594Y-77834343D02*
X149257975Y-77643867D01*
X149257975Y-77643867D02*
X149257975Y-77405772D01*
X149257975Y-77405772D02*
X149305594Y-77215296D01*
X149305594Y-77215296D02*
X149353213Y-77120058D01*
X149353213Y-77120058D02*
X149400832Y-77072439D01*
X149400832Y-77072439D02*
X149496070Y-77024820D01*
X125752142Y-112784580D02*
X125704523Y-112832200D01*
X125704523Y-112832200D02*
X125561666Y-112879819D01*
X125561666Y-112879819D02*
X125466428Y-112879819D01*
X125466428Y-112879819D02*
X125323571Y-112832200D01*
X125323571Y-112832200D02*
X125228333Y-112736961D01*
X125228333Y-112736961D02*
X125180714Y-112641723D01*
X125180714Y-112641723D02*
X125133095Y-112451247D01*
X125133095Y-112451247D02*
X125133095Y-112308390D01*
X125133095Y-112308390D02*
X125180714Y-112117914D01*
X125180714Y-112117914D02*
X125228333Y-112022676D01*
X125228333Y-112022676D02*
X125323571Y-111927438D01*
X125323571Y-111927438D02*
X125466428Y-111879819D01*
X125466428Y-111879819D02*
X125561666Y-111879819D01*
X125561666Y-111879819D02*
X125704523Y-111927438D01*
X125704523Y-111927438D02*
X125752142Y-111975057D01*
X126704523Y-112879819D02*
X126133095Y-112879819D01*
X126418809Y-112879819D02*
X126418809Y-111879819D01*
X126418809Y-111879819D02*
X126323571Y-112022676D01*
X126323571Y-112022676D02*
X126228333Y-112117914D01*
X126228333Y-112117914D02*
X126133095Y-112165533D01*
X127609285Y-111879819D02*
X127133095Y-111879819D01*
X127133095Y-111879819D02*
X127085476Y-112356009D01*
X127085476Y-112356009D02*
X127133095Y-112308390D01*
X127133095Y-112308390D02*
X127228333Y-112260771D01*
X127228333Y-112260771D02*
X127466428Y-112260771D01*
X127466428Y-112260771D02*
X127561666Y-112308390D01*
X127561666Y-112308390D02*
X127609285Y-112356009D01*
X127609285Y-112356009D02*
X127656904Y-112451247D01*
X127656904Y-112451247D02*
X127656904Y-112689342D01*
X127656904Y-112689342D02*
X127609285Y-112784580D01*
X127609285Y-112784580D02*
X127561666Y-112832200D01*
X127561666Y-112832200D02*
X127466428Y-112879819D01*
X127466428Y-112879819D02*
X127228333Y-112879819D01*
X127228333Y-112879819D02*
X127133095Y-112832200D01*
X127133095Y-112832200D02*
X127085476Y-112784580D01*
X137257142Y-83559580D02*
X137209523Y-83607200D01*
X137209523Y-83607200D02*
X137066666Y-83654819D01*
X137066666Y-83654819D02*
X136971428Y-83654819D01*
X136971428Y-83654819D02*
X136828571Y-83607200D01*
X136828571Y-83607200D02*
X136733333Y-83511961D01*
X136733333Y-83511961D02*
X136685714Y-83416723D01*
X136685714Y-83416723D02*
X136638095Y-83226247D01*
X136638095Y-83226247D02*
X136638095Y-83083390D01*
X136638095Y-83083390D02*
X136685714Y-82892914D01*
X136685714Y-82892914D02*
X136733333Y-82797676D01*
X136733333Y-82797676D02*
X136828571Y-82702438D01*
X136828571Y-82702438D02*
X136971428Y-82654819D01*
X136971428Y-82654819D02*
X137066666Y-82654819D01*
X137066666Y-82654819D02*
X137209523Y-82702438D01*
X137209523Y-82702438D02*
X137257142Y-82750057D01*
X137638095Y-82750057D02*
X137685714Y-82702438D01*
X137685714Y-82702438D02*
X137780952Y-82654819D01*
X137780952Y-82654819D02*
X138019047Y-82654819D01*
X138019047Y-82654819D02*
X138114285Y-82702438D01*
X138114285Y-82702438D02*
X138161904Y-82750057D01*
X138161904Y-82750057D02*
X138209523Y-82845295D01*
X138209523Y-82845295D02*
X138209523Y-82940533D01*
X138209523Y-82940533D02*
X138161904Y-83083390D01*
X138161904Y-83083390D02*
X137590476Y-83654819D01*
X137590476Y-83654819D02*
X138209523Y-83654819D01*
X138828571Y-82654819D02*
X138923809Y-82654819D01*
X138923809Y-82654819D02*
X139019047Y-82702438D01*
X139019047Y-82702438D02*
X139066666Y-82750057D01*
X139066666Y-82750057D02*
X139114285Y-82845295D01*
X139114285Y-82845295D02*
X139161904Y-83035771D01*
X139161904Y-83035771D02*
X139161904Y-83273866D01*
X139161904Y-83273866D02*
X139114285Y-83464342D01*
X139114285Y-83464342D02*
X139066666Y-83559580D01*
X139066666Y-83559580D02*
X139019047Y-83607200D01*
X139019047Y-83607200D02*
X138923809Y-83654819D01*
X138923809Y-83654819D02*
X138828571Y-83654819D01*
X138828571Y-83654819D02*
X138733333Y-83607200D01*
X138733333Y-83607200D02*
X138685714Y-83559580D01*
X138685714Y-83559580D02*
X138638095Y-83464342D01*
X138638095Y-83464342D02*
X138590476Y-83273866D01*
X138590476Y-83273866D02*
X138590476Y-83035771D01*
X138590476Y-83035771D02*
X138638095Y-82845295D01*
X138638095Y-82845295D02*
X138685714Y-82750057D01*
X138685714Y-82750057D02*
X138733333Y-82702438D01*
X138733333Y-82702438D02*
X138828571Y-82654819D01*
X124357142Y-94954819D02*
X124023809Y-94478628D01*
X123785714Y-94954819D02*
X123785714Y-93954819D01*
X123785714Y-93954819D02*
X124166666Y-93954819D01*
X124166666Y-93954819D02*
X124261904Y-94002438D01*
X124261904Y-94002438D02*
X124309523Y-94050057D01*
X124309523Y-94050057D02*
X124357142Y-94145295D01*
X124357142Y-94145295D02*
X124357142Y-94288152D01*
X124357142Y-94288152D02*
X124309523Y-94383390D01*
X124309523Y-94383390D02*
X124261904Y-94431009D01*
X124261904Y-94431009D02*
X124166666Y-94478628D01*
X124166666Y-94478628D02*
X123785714Y-94478628D01*
X125309523Y-94954819D02*
X124738095Y-94954819D01*
X125023809Y-94954819D02*
X125023809Y-93954819D01*
X125023809Y-93954819D02*
X124928571Y-94097676D01*
X124928571Y-94097676D02*
X124833333Y-94192914D01*
X124833333Y-94192914D02*
X124738095Y-94240533D01*
X125785714Y-94954819D02*
X125976190Y-94954819D01*
X125976190Y-94954819D02*
X126071428Y-94907200D01*
X126071428Y-94907200D02*
X126119047Y-94859580D01*
X126119047Y-94859580D02*
X126214285Y-94716723D01*
X126214285Y-94716723D02*
X126261904Y-94526247D01*
X126261904Y-94526247D02*
X126261904Y-94145295D01*
X126261904Y-94145295D02*
X126214285Y-94050057D01*
X126214285Y-94050057D02*
X126166666Y-94002438D01*
X126166666Y-94002438D02*
X126071428Y-93954819D01*
X126071428Y-93954819D02*
X125880952Y-93954819D01*
X125880952Y-93954819D02*
X125785714Y-94002438D01*
X125785714Y-94002438D02*
X125738095Y-94050057D01*
X125738095Y-94050057D02*
X125690476Y-94145295D01*
X125690476Y-94145295D02*
X125690476Y-94383390D01*
X125690476Y-94383390D02*
X125738095Y-94478628D01*
X125738095Y-94478628D02*
X125785714Y-94526247D01*
X125785714Y-94526247D02*
X125880952Y-94573866D01*
X125880952Y-94573866D02*
X126071428Y-94573866D01*
X126071428Y-94573866D02*
X126166666Y-94526247D01*
X126166666Y-94526247D02*
X126214285Y-94478628D01*
X126214285Y-94478628D02*
X126261904Y-94383390D01*
X133898333Y-71654819D02*
X133565000Y-71178628D01*
X133326905Y-71654819D02*
X133326905Y-70654819D01*
X133326905Y-70654819D02*
X133707857Y-70654819D01*
X133707857Y-70654819D02*
X133803095Y-70702438D01*
X133803095Y-70702438D02*
X133850714Y-70750057D01*
X133850714Y-70750057D02*
X133898333Y-70845295D01*
X133898333Y-70845295D02*
X133898333Y-70988152D01*
X133898333Y-70988152D02*
X133850714Y-71083390D01*
X133850714Y-71083390D02*
X133803095Y-71131009D01*
X133803095Y-71131009D02*
X133707857Y-71178628D01*
X133707857Y-71178628D02*
X133326905Y-71178628D01*
X134279286Y-70750057D02*
X134326905Y-70702438D01*
X134326905Y-70702438D02*
X134422143Y-70654819D01*
X134422143Y-70654819D02*
X134660238Y-70654819D01*
X134660238Y-70654819D02*
X134755476Y-70702438D01*
X134755476Y-70702438D02*
X134803095Y-70750057D01*
X134803095Y-70750057D02*
X134850714Y-70845295D01*
X134850714Y-70845295D02*
X134850714Y-70940533D01*
X134850714Y-70940533D02*
X134803095Y-71083390D01*
X134803095Y-71083390D02*
X134231667Y-71654819D01*
X134231667Y-71654819D02*
X134850714Y-71654819D01*
X131854819Y-97042857D02*
X131378628Y-97376190D01*
X131854819Y-97614285D02*
X130854819Y-97614285D01*
X130854819Y-97614285D02*
X130854819Y-97233333D01*
X130854819Y-97233333D02*
X130902438Y-97138095D01*
X130902438Y-97138095D02*
X130950057Y-97090476D01*
X130950057Y-97090476D02*
X131045295Y-97042857D01*
X131045295Y-97042857D02*
X131188152Y-97042857D01*
X131188152Y-97042857D02*
X131283390Y-97090476D01*
X131283390Y-97090476D02*
X131331009Y-97138095D01*
X131331009Y-97138095D02*
X131378628Y-97233333D01*
X131378628Y-97233333D02*
X131378628Y-97614285D01*
X130950057Y-96661904D02*
X130902438Y-96614285D01*
X130902438Y-96614285D02*
X130854819Y-96519047D01*
X130854819Y-96519047D02*
X130854819Y-96280952D01*
X130854819Y-96280952D02*
X130902438Y-96185714D01*
X130902438Y-96185714D02*
X130950057Y-96138095D01*
X130950057Y-96138095D02*
X131045295Y-96090476D01*
X131045295Y-96090476D02*
X131140533Y-96090476D01*
X131140533Y-96090476D02*
X131283390Y-96138095D01*
X131283390Y-96138095D02*
X131854819Y-96709523D01*
X131854819Y-96709523D02*
X131854819Y-96090476D01*
X130950057Y-95709523D02*
X130902438Y-95661904D01*
X130902438Y-95661904D02*
X130854819Y-95566666D01*
X130854819Y-95566666D02*
X130854819Y-95328571D01*
X130854819Y-95328571D02*
X130902438Y-95233333D01*
X130902438Y-95233333D02*
X130950057Y-95185714D01*
X130950057Y-95185714D02*
X131045295Y-95138095D01*
X131045295Y-95138095D02*
X131140533Y-95138095D01*
X131140533Y-95138095D02*
X131283390Y-95185714D01*
X131283390Y-95185714D02*
X131854819Y-95757142D01*
X131854819Y-95757142D02*
X131854819Y-95138095D01*
X147200832Y-71029581D02*
X147153213Y-71077201D01*
X147153213Y-71077201D02*
X147010356Y-71124820D01*
X147010356Y-71124820D02*
X146915118Y-71124820D01*
X146915118Y-71124820D02*
X146772261Y-71077201D01*
X146772261Y-71077201D02*
X146677023Y-70981962D01*
X146677023Y-70981962D02*
X146629404Y-70886724D01*
X146629404Y-70886724D02*
X146581785Y-70696248D01*
X146581785Y-70696248D02*
X146581785Y-70553391D01*
X146581785Y-70553391D02*
X146629404Y-70362915D01*
X146629404Y-70362915D02*
X146677023Y-70267677D01*
X146677023Y-70267677D02*
X146772261Y-70172439D01*
X146772261Y-70172439D02*
X146915118Y-70124820D01*
X146915118Y-70124820D02*
X147010356Y-70124820D01*
X147010356Y-70124820D02*
X147153213Y-70172439D01*
X147153213Y-70172439D02*
X147200832Y-70220058D01*
X147677023Y-71124820D02*
X147867499Y-71124820D01*
X147867499Y-71124820D02*
X147962737Y-71077201D01*
X147962737Y-71077201D02*
X148010356Y-71029581D01*
X148010356Y-71029581D02*
X148105594Y-70886724D01*
X148105594Y-70886724D02*
X148153213Y-70696248D01*
X148153213Y-70696248D02*
X148153213Y-70315296D01*
X148153213Y-70315296D02*
X148105594Y-70220058D01*
X148105594Y-70220058D02*
X148057975Y-70172439D01*
X148057975Y-70172439D02*
X147962737Y-70124820D01*
X147962737Y-70124820D02*
X147772261Y-70124820D01*
X147772261Y-70124820D02*
X147677023Y-70172439D01*
X147677023Y-70172439D02*
X147629404Y-70220058D01*
X147629404Y-70220058D02*
X147581785Y-70315296D01*
X147581785Y-70315296D02*
X147581785Y-70553391D01*
X147581785Y-70553391D02*
X147629404Y-70648629D01*
X147629404Y-70648629D02*
X147677023Y-70696248D01*
X147677023Y-70696248D02*
X147772261Y-70743867D01*
X147772261Y-70743867D02*
X147962737Y-70743867D01*
X147962737Y-70743867D02*
X148057975Y-70696248D01*
X148057975Y-70696248D02*
X148105594Y-70648629D01*
X148105594Y-70648629D02*
X148153213Y-70553391D01*
X135533333Y-80059580D02*
X135485714Y-80107200D01*
X135485714Y-80107200D02*
X135342857Y-80154819D01*
X135342857Y-80154819D02*
X135247619Y-80154819D01*
X135247619Y-80154819D02*
X135104762Y-80107200D01*
X135104762Y-80107200D02*
X135009524Y-80011961D01*
X135009524Y-80011961D02*
X134961905Y-79916723D01*
X134961905Y-79916723D02*
X134914286Y-79726247D01*
X134914286Y-79726247D02*
X134914286Y-79583390D01*
X134914286Y-79583390D02*
X134961905Y-79392914D01*
X134961905Y-79392914D02*
X135009524Y-79297676D01*
X135009524Y-79297676D02*
X135104762Y-79202438D01*
X135104762Y-79202438D02*
X135247619Y-79154819D01*
X135247619Y-79154819D02*
X135342857Y-79154819D01*
X135342857Y-79154819D02*
X135485714Y-79202438D01*
X135485714Y-79202438D02*
X135533333Y-79250057D01*
X135866667Y-79154819D02*
X136485714Y-79154819D01*
X136485714Y-79154819D02*
X136152381Y-79535771D01*
X136152381Y-79535771D02*
X136295238Y-79535771D01*
X136295238Y-79535771D02*
X136390476Y-79583390D01*
X136390476Y-79583390D02*
X136438095Y-79631009D01*
X136438095Y-79631009D02*
X136485714Y-79726247D01*
X136485714Y-79726247D02*
X136485714Y-79964342D01*
X136485714Y-79964342D02*
X136438095Y-80059580D01*
X136438095Y-80059580D02*
X136390476Y-80107200D01*
X136390476Y-80107200D02*
X136295238Y-80154819D01*
X136295238Y-80154819D02*
X136009524Y-80154819D01*
X136009524Y-80154819D02*
X135914286Y-80107200D01*
X135914286Y-80107200D02*
X135866667Y-80059580D01*
X173014819Y-111926666D02*
X172538628Y-112259999D01*
X173014819Y-112498094D02*
X172014819Y-112498094D01*
X172014819Y-112498094D02*
X172014819Y-112117142D01*
X172014819Y-112117142D02*
X172062438Y-112021904D01*
X172062438Y-112021904D02*
X172110057Y-111974285D01*
X172110057Y-111974285D02*
X172205295Y-111926666D01*
X172205295Y-111926666D02*
X172348152Y-111926666D01*
X172348152Y-111926666D02*
X172443390Y-111974285D01*
X172443390Y-111974285D02*
X172491009Y-112021904D01*
X172491009Y-112021904D02*
X172538628Y-112117142D01*
X172538628Y-112117142D02*
X172538628Y-112498094D01*
X172014819Y-111069523D02*
X172014819Y-111259999D01*
X172014819Y-111259999D02*
X172062438Y-111355237D01*
X172062438Y-111355237D02*
X172110057Y-111402856D01*
X172110057Y-111402856D02*
X172252914Y-111498094D01*
X172252914Y-111498094D02*
X172443390Y-111545713D01*
X172443390Y-111545713D02*
X172824342Y-111545713D01*
X172824342Y-111545713D02*
X172919580Y-111498094D01*
X172919580Y-111498094D02*
X172967200Y-111450475D01*
X172967200Y-111450475D02*
X173014819Y-111355237D01*
X173014819Y-111355237D02*
X173014819Y-111164761D01*
X173014819Y-111164761D02*
X172967200Y-111069523D01*
X172967200Y-111069523D02*
X172919580Y-111021904D01*
X172919580Y-111021904D02*
X172824342Y-110974285D01*
X172824342Y-110974285D02*
X172586247Y-110974285D01*
X172586247Y-110974285D02*
X172491009Y-111021904D01*
X172491009Y-111021904D02*
X172443390Y-111069523D01*
X172443390Y-111069523D02*
X172395771Y-111164761D01*
X172395771Y-111164761D02*
X172395771Y-111355237D01*
X172395771Y-111355237D02*
X172443390Y-111450475D01*
X172443390Y-111450475D02*
X172491009Y-111498094D01*
X172491009Y-111498094D02*
X172586247Y-111545713D01*
X133766667Y-76786104D02*
X133728571Y-76824200D01*
X133728571Y-76824200D02*
X133614286Y-76862295D01*
X133614286Y-76862295D02*
X133538095Y-76862295D01*
X133538095Y-76862295D02*
X133423809Y-76824200D01*
X133423809Y-76824200D02*
X133347619Y-76748009D01*
X133347619Y-76748009D02*
X133309524Y-76671819D01*
X133309524Y-76671819D02*
X133271428Y-76519438D01*
X133271428Y-76519438D02*
X133271428Y-76405152D01*
X133271428Y-76405152D02*
X133309524Y-76252771D01*
X133309524Y-76252771D02*
X133347619Y-76176580D01*
X133347619Y-76176580D02*
X133423809Y-76100390D01*
X133423809Y-76100390D02*
X133538095Y-76062295D01*
X133538095Y-76062295D02*
X133614286Y-76062295D01*
X133614286Y-76062295D02*
X133728571Y-76100390D01*
X133728571Y-76100390D02*
X133766667Y-76138485D01*
X134071428Y-76138485D02*
X134109524Y-76100390D01*
X134109524Y-76100390D02*
X134185714Y-76062295D01*
X134185714Y-76062295D02*
X134376190Y-76062295D01*
X134376190Y-76062295D02*
X134452381Y-76100390D01*
X134452381Y-76100390D02*
X134490476Y-76138485D01*
X134490476Y-76138485D02*
X134528571Y-76214676D01*
X134528571Y-76214676D02*
X134528571Y-76290866D01*
X134528571Y-76290866D02*
X134490476Y-76405152D01*
X134490476Y-76405152D02*
X134033333Y-76862295D01*
X134033333Y-76862295D02*
X134528571Y-76862295D01*
X151654819Y-73538094D02*
X150654819Y-73538094D01*
X150654819Y-73538094D02*
X150654819Y-73299999D01*
X150654819Y-73299999D02*
X150702438Y-73157142D01*
X150702438Y-73157142D02*
X150797676Y-73061904D01*
X150797676Y-73061904D02*
X150892914Y-73014285D01*
X150892914Y-73014285D02*
X151083390Y-72966666D01*
X151083390Y-72966666D02*
X151226247Y-72966666D01*
X151226247Y-72966666D02*
X151416723Y-73014285D01*
X151416723Y-73014285D02*
X151511961Y-73061904D01*
X151511961Y-73061904D02*
X151607200Y-73157142D01*
X151607200Y-73157142D02*
X151654819Y-73299999D01*
X151654819Y-73299999D02*
X151654819Y-73538094D01*
X150654819Y-72633332D02*
X150654819Y-72014285D01*
X150654819Y-72014285D02*
X151035771Y-72347618D01*
X151035771Y-72347618D02*
X151035771Y-72204761D01*
X151035771Y-72204761D02*
X151083390Y-72109523D01*
X151083390Y-72109523D02*
X151131009Y-72061904D01*
X151131009Y-72061904D02*
X151226247Y-72014285D01*
X151226247Y-72014285D02*
X151464342Y-72014285D01*
X151464342Y-72014285D02*
X151559580Y-72061904D01*
X151559580Y-72061904D02*
X151607200Y-72109523D01*
X151607200Y-72109523D02*
X151654819Y-72204761D01*
X151654819Y-72204761D02*
X151654819Y-72490475D01*
X151654819Y-72490475D02*
X151607200Y-72585713D01*
X151607200Y-72585713D02*
X151559580Y-72633332D01*
X135993095Y-92904819D02*
X135993095Y-93714342D01*
X135993095Y-93714342D02*
X136040714Y-93809580D01*
X136040714Y-93809580D02*
X136088333Y-93857200D01*
X136088333Y-93857200D02*
X136183571Y-93904819D01*
X136183571Y-93904819D02*
X136374047Y-93904819D01*
X136374047Y-93904819D02*
X136469285Y-93857200D01*
X136469285Y-93857200D02*
X136516904Y-93809580D01*
X136516904Y-93809580D02*
X136564523Y-93714342D01*
X136564523Y-93714342D02*
X136564523Y-92904819D01*
X136945476Y-92904819D02*
X137564523Y-92904819D01*
X137564523Y-92904819D02*
X137231190Y-93285771D01*
X137231190Y-93285771D02*
X137374047Y-93285771D01*
X137374047Y-93285771D02*
X137469285Y-93333390D01*
X137469285Y-93333390D02*
X137516904Y-93381009D01*
X137516904Y-93381009D02*
X137564523Y-93476247D01*
X137564523Y-93476247D02*
X137564523Y-93714342D01*
X137564523Y-93714342D02*
X137516904Y-93809580D01*
X137516904Y-93809580D02*
X137469285Y-93857200D01*
X137469285Y-93857200D02*
X137374047Y-93904819D01*
X137374047Y-93904819D02*
X137088333Y-93904819D01*
X137088333Y-93904819D02*
X136993095Y-93857200D01*
X136993095Y-93857200D02*
X136945476Y-93809580D01*
X130884819Y-77266666D02*
X130408628Y-77599999D01*
X130884819Y-77838094D02*
X129884819Y-77838094D01*
X129884819Y-77838094D02*
X129884819Y-77457142D01*
X129884819Y-77457142D02*
X129932438Y-77361904D01*
X129932438Y-77361904D02*
X129980057Y-77314285D01*
X129980057Y-77314285D02*
X130075295Y-77266666D01*
X130075295Y-77266666D02*
X130218152Y-77266666D01*
X130218152Y-77266666D02*
X130313390Y-77314285D01*
X130313390Y-77314285D02*
X130361009Y-77361904D01*
X130361009Y-77361904D02*
X130408628Y-77457142D01*
X130408628Y-77457142D02*
X130408628Y-77838094D01*
X129884819Y-76361904D02*
X129884819Y-76838094D01*
X129884819Y-76838094D02*
X130361009Y-76885713D01*
X130361009Y-76885713D02*
X130313390Y-76838094D01*
X130313390Y-76838094D02*
X130265771Y-76742856D01*
X130265771Y-76742856D02*
X130265771Y-76504761D01*
X130265771Y-76504761D02*
X130313390Y-76409523D01*
X130313390Y-76409523D02*
X130361009Y-76361904D01*
X130361009Y-76361904D02*
X130456247Y-76314285D01*
X130456247Y-76314285D02*
X130694342Y-76314285D01*
X130694342Y-76314285D02*
X130789580Y-76361904D01*
X130789580Y-76361904D02*
X130837200Y-76409523D01*
X130837200Y-76409523D02*
X130884819Y-76504761D01*
X130884819Y-76504761D02*
X130884819Y-76742856D01*
X130884819Y-76742856D02*
X130837200Y-76838094D01*
X130837200Y-76838094D02*
X130789580Y-76885713D01*
X132961905Y-67754819D02*
X132961905Y-66754819D01*
X132961905Y-66754819D02*
X133200000Y-66754819D01*
X133200000Y-66754819D02*
X133342857Y-66802438D01*
X133342857Y-66802438D02*
X133438095Y-66897676D01*
X133438095Y-66897676D02*
X133485714Y-66992914D01*
X133485714Y-66992914D02*
X133533333Y-67183390D01*
X133533333Y-67183390D02*
X133533333Y-67326247D01*
X133533333Y-67326247D02*
X133485714Y-67516723D01*
X133485714Y-67516723D02*
X133438095Y-67611961D01*
X133438095Y-67611961D02*
X133342857Y-67707200D01*
X133342857Y-67707200D02*
X133200000Y-67754819D01*
X133200000Y-67754819D02*
X132961905Y-67754819D01*
X133914286Y-66850057D02*
X133961905Y-66802438D01*
X133961905Y-66802438D02*
X134057143Y-66754819D01*
X134057143Y-66754819D02*
X134295238Y-66754819D01*
X134295238Y-66754819D02*
X134390476Y-66802438D01*
X134390476Y-66802438D02*
X134438095Y-66850057D01*
X134438095Y-66850057D02*
X134485714Y-66945295D01*
X134485714Y-66945295D02*
X134485714Y-67040533D01*
X134485714Y-67040533D02*
X134438095Y-67183390D01*
X134438095Y-67183390D02*
X133866667Y-67754819D01*
X133866667Y-67754819D02*
X134485714Y-67754819D01*
X162484642Y-113499580D02*
X162437023Y-113547200D01*
X162437023Y-113547200D02*
X162294166Y-113594819D01*
X162294166Y-113594819D02*
X162198928Y-113594819D01*
X162198928Y-113594819D02*
X162056071Y-113547200D01*
X162056071Y-113547200D02*
X161960833Y-113451961D01*
X161960833Y-113451961D02*
X161913214Y-113356723D01*
X161913214Y-113356723D02*
X161865595Y-113166247D01*
X161865595Y-113166247D02*
X161865595Y-113023390D01*
X161865595Y-113023390D02*
X161913214Y-112832914D01*
X161913214Y-112832914D02*
X161960833Y-112737676D01*
X161960833Y-112737676D02*
X162056071Y-112642438D01*
X162056071Y-112642438D02*
X162198928Y-112594819D01*
X162198928Y-112594819D02*
X162294166Y-112594819D01*
X162294166Y-112594819D02*
X162437023Y-112642438D01*
X162437023Y-112642438D02*
X162484642Y-112690057D01*
X163437023Y-113594819D02*
X162865595Y-113594819D01*
X163151309Y-113594819D02*
X163151309Y-112594819D01*
X163151309Y-112594819D02*
X163056071Y-112737676D01*
X163056071Y-112737676D02*
X162960833Y-112832914D01*
X162960833Y-112832914D02*
X162865595Y-112880533D01*
X164008452Y-113023390D02*
X163913214Y-112975771D01*
X163913214Y-112975771D02*
X163865595Y-112928152D01*
X163865595Y-112928152D02*
X163817976Y-112832914D01*
X163817976Y-112832914D02*
X163817976Y-112785295D01*
X163817976Y-112785295D02*
X163865595Y-112690057D01*
X163865595Y-112690057D02*
X163913214Y-112642438D01*
X163913214Y-112642438D02*
X164008452Y-112594819D01*
X164008452Y-112594819D02*
X164198928Y-112594819D01*
X164198928Y-112594819D02*
X164294166Y-112642438D01*
X164294166Y-112642438D02*
X164341785Y-112690057D01*
X164341785Y-112690057D02*
X164389404Y-112785295D01*
X164389404Y-112785295D02*
X164389404Y-112832914D01*
X164389404Y-112832914D02*
X164341785Y-112928152D01*
X164341785Y-112928152D02*
X164294166Y-112975771D01*
X164294166Y-112975771D02*
X164198928Y-113023390D01*
X164198928Y-113023390D02*
X164008452Y-113023390D01*
X164008452Y-113023390D02*
X163913214Y-113071009D01*
X163913214Y-113071009D02*
X163865595Y-113118628D01*
X163865595Y-113118628D02*
X163817976Y-113213866D01*
X163817976Y-113213866D02*
X163817976Y-113404342D01*
X163817976Y-113404342D02*
X163865595Y-113499580D01*
X163865595Y-113499580D02*
X163913214Y-113547200D01*
X163913214Y-113547200D02*
X164008452Y-113594819D01*
X164008452Y-113594819D02*
X164198928Y-113594819D01*
X164198928Y-113594819D02*
X164294166Y-113547200D01*
X164294166Y-113547200D02*
X164341785Y-113499580D01*
X164341785Y-113499580D02*
X164389404Y-113404342D01*
X164389404Y-113404342D02*
X164389404Y-113213866D01*
X164389404Y-113213866D02*
X164341785Y-113118628D01*
X164341785Y-113118628D02*
X164294166Y-113071009D01*
X164294166Y-113071009D02*
X164198928Y-113023390D01*
X129562295Y-74933332D02*
X129181342Y-75199999D01*
X129562295Y-75390475D02*
X128762295Y-75390475D01*
X128762295Y-75390475D02*
X128762295Y-75085713D01*
X128762295Y-75085713D02*
X128800390Y-75009523D01*
X128800390Y-75009523D02*
X128838485Y-74971428D01*
X128838485Y-74971428D02*
X128914676Y-74933332D01*
X128914676Y-74933332D02*
X129028961Y-74933332D01*
X129028961Y-74933332D02*
X129105152Y-74971428D01*
X129105152Y-74971428D02*
X129143247Y-75009523D01*
X129143247Y-75009523D02*
X129181342Y-75085713D01*
X129181342Y-75085713D02*
X129181342Y-75390475D01*
X129028961Y-74247618D02*
X129562295Y-74247618D01*
X128724200Y-74438094D02*
X129295628Y-74628571D01*
X129295628Y-74628571D02*
X129295628Y-74133332D01*
X133183333Y-87054819D02*
X132850000Y-86578628D01*
X132611905Y-87054819D02*
X132611905Y-86054819D01*
X132611905Y-86054819D02*
X132992857Y-86054819D01*
X132992857Y-86054819D02*
X133088095Y-86102438D01*
X133088095Y-86102438D02*
X133135714Y-86150057D01*
X133135714Y-86150057D02*
X133183333Y-86245295D01*
X133183333Y-86245295D02*
X133183333Y-86388152D01*
X133183333Y-86388152D02*
X133135714Y-86483390D01*
X133135714Y-86483390D02*
X133088095Y-86531009D01*
X133088095Y-86531009D02*
X132992857Y-86578628D01*
X132992857Y-86578628D02*
X132611905Y-86578628D01*
X133754762Y-86483390D02*
X133659524Y-86435771D01*
X133659524Y-86435771D02*
X133611905Y-86388152D01*
X133611905Y-86388152D02*
X133564286Y-86292914D01*
X133564286Y-86292914D02*
X133564286Y-86245295D01*
X133564286Y-86245295D02*
X133611905Y-86150057D01*
X133611905Y-86150057D02*
X133659524Y-86102438D01*
X133659524Y-86102438D02*
X133754762Y-86054819D01*
X133754762Y-86054819D02*
X133945238Y-86054819D01*
X133945238Y-86054819D02*
X134040476Y-86102438D01*
X134040476Y-86102438D02*
X134088095Y-86150057D01*
X134088095Y-86150057D02*
X134135714Y-86245295D01*
X134135714Y-86245295D02*
X134135714Y-86292914D01*
X134135714Y-86292914D02*
X134088095Y-86388152D01*
X134088095Y-86388152D02*
X134040476Y-86435771D01*
X134040476Y-86435771D02*
X133945238Y-86483390D01*
X133945238Y-86483390D02*
X133754762Y-86483390D01*
X133754762Y-86483390D02*
X133659524Y-86531009D01*
X133659524Y-86531009D02*
X133611905Y-86578628D01*
X133611905Y-86578628D02*
X133564286Y-86673866D01*
X133564286Y-86673866D02*
X133564286Y-86864342D01*
X133564286Y-86864342D02*
X133611905Y-86959580D01*
X133611905Y-86959580D02*
X133659524Y-87007200D01*
X133659524Y-87007200D02*
X133754762Y-87054819D01*
X133754762Y-87054819D02*
X133945238Y-87054819D01*
X133945238Y-87054819D02*
X134040476Y-87007200D01*
X134040476Y-87007200D02*
X134088095Y-86959580D01*
X134088095Y-86959580D02*
X134135714Y-86864342D01*
X134135714Y-86864342D02*
X134135714Y-86673866D01*
X134135714Y-86673866D02*
X134088095Y-86578628D01*
X134088095Y-86578628D02*
X134040476Y-86531009D01*
X134040476Y-86531009D02*
X133945238Y-86483390D01*
X130260476Y-94145295D02*
X130260476Y-94792914D01*
X130260476Y-94792914D02*
X130298571Y-94869104D01*
X130298571Y-94869104D02*
X130336666Y-94907200D01*
X130336666Y-94907200D02*
X130412857Y-94945295D01*
X130412857Y-94945295D02*
X130565238Y-94945295D01*
X130565238Y-94945295D02*
X130641428Y-94907200D01*
X130641428Y-94907200D02*
X130679523Y-94869104D01*
X130679523Y-94869104D02*
X130717619Y-94792914D01*
X130717619Y-94792914D02*
X130717619Y-94145295D01*
X131060475Y-94221485D02*
X131098571Y-94183390D01*
X131098571Y-94183390D02*
X131174761Y-94145295D01*
X131174761Y-94145295D02*
X131365237Y-94145295D01*
X131365237Y-94145295D02*
X131441428Y-94183390D01*
X131441428Y-94183390D02*
X131479523Y-94221485D01*
X131479523Y-94221485D02*
X131517618Y-94297676D01*
X131517618Y-94297676D02*
X131517618Y-94373866D01*
X131517618Y-94373866D02*
X131479523Y-94488152D01*
X131479523Y-94488152D02*
X131022380Y-94945295D01*
X131022380Y-94945295D02*
X131517618Y-94945295D01*
X142857142Y-70459580D02*
X142809523Y-70507200D01*
X142809523Y-70507200D02*
X142666666Y-70554819D01*
X142666666Y-70554819D02*
X142571428Y-70554819D01*
X142571428Y-70554819D02*
X142428571Y-70507200D01*
X142428571Y-70507200D02*
X142333333Y-70411961D01*
X142333333Y-70411961D02*
X142285714Y-70316723D01*
X142285714Y-70316723D02*
X142238095Y-70126247D01*
X142238095Y-70126247D02*
X142238095Y-69983390D01*
X142238095Y-69983390D02*
X142285714Y-69792914D01*
X142285714Y-69792914D02*
X142333333Y-69697676D01*
X142333333Y-69697676D02*
X142428571Y-69602438D01*
X142428571Y-69602438D02*
X142571428Y-69554819D01*
X142571428Y-69554819D02*
X142666666Y-69554819D01*
X142666666Y-69554819D02*
X142809523Y-69602438D01*
X142809523Y-69602438D02*
X142857142Y-69650057D01*
X143238095Y-69650057D02*
X143285714Y-69602438D01*
X143285714Y-69602438D02*
X143380952Y-69554819D01*
X143380952Y-69554819D02*
X143619047Y-69554819D01*
X143619047Y-69554819D02*
X143714285Y-69602438D01*
X143714285Y-69602438D02*
X143761904Y-69650057D01*
X143761904Y-69650057D02*
X143809523Y-69745295D01*
X143809523Y-69745295D02*
X143809523Y-69840533D01*
X143809523Y-69840533D02*
X143761904Y-69983390D01*
X143761904Y-69983390D02*
X143190476Y-70554819D01*
X143190476Y-70554819D02*
X143809523Y-70554819D01*
X144761904Y-70554819D02*
X144190476Y-70554819D01*
X144476190Y-70554819D02*
X144476190Y-69554819D01*
X144476190Y-69554819D02*
X144380952Y-69697676D01*
X144380952Y-69697676D02*
X144285714Y-69792914D01*
X144285714Y-69792914D02*
X144190476Y-69840533D01*
X131859580Y-81442857D02*
X131907200Y-81490476D01*
X131907200Y-81490476D02*
X131954819Y-81633333D01*
X131954819Y-81633333D02*
X131954819Y-81728571D01*
X131954819Y-81728571D02*
X131907200Y-81871428D01*
X131907200Y-81871428D02*
X131811961Y-81966666D01*
X131811961Y-81966666D02*
X131716723Y-82014285D01*
X131716723Y-82014285D02*
X131526247Y-82061904D01*
X131526247Y-82061904D02*
X131383390Y-82061904D01*
X131383390Y-82061904D02*
X131192914Y-82014285D01*
X131192914Y-82014285D02*
X131097676Y-81966666D01*
X131097676Y-81966666D02*
X131002438Y-81871428D01*
X131002438Y-81871428D02*
X130954819Y-81728571D01*
X130954819Y-81728571D02*
X130954819Y-81633333D01*
X130954819Y-81633333D02*
X131002438Y-81490476D01*
X131002438Y-81490476D02*
X131050057Y-81442857D01*
X131954819Y-80490476D02*
X131954819Y-81061904D01*
X131954819Y-80776190D02*
X130954819Y-80776190D01*
X130954819Y-80776190D02*
X131097676Y-80871428D01*
X131097676Y-80871428D02*
X131192914Y-80966666D01*
X131192914Y-80966666D02*
X131240533Y-81061904D01*
X131954819Y-80014285D02*
X131954819Y-79823809D01*
X131954819Y-79823809D02*
X131907200Y-79728571D01*
X131907200Y-79728571D02*
X131859580Y-79680952D01*
X131859580Y-79680952D02*
X131716723Y-79585714D01*
X131716723Y-79585714D02*
X131526247Y-79538095D01*
X131526247Y-79538095D02*
X131145295Y-79538095D01*
X131145295Y-79538095D02*
X131050057Y-79585714D01*
X131050057Y-79585714D02*
X131002438Y-79633333D01*
X131002438Y-79633333D02*
X130954819Y-79728571D01*
X130954819Y-79728571D02*
X130954819Y-79919047D01*
X130954819Y-79919047D02*
X131002438Y-80014285D01*
X131002438Y-80014285D02*
X131050057Y-80061904D01*
X131050057Y-80061904D02*
X131145295Y-80109523D01*
X131145295Y-80109523D02*
X131383390Y-80109523D01*
X131383390Y-80109523D02*
X131478628Y-80061904D01*
X131478628Y-80061904D02*
X131526247Y-80014285D01*
X131526247Y-80014285D02*
X131573866Y-79919047D01*
X131573866Y-79919047D02*
X131573866Y-79728571D01*
X131573866Y-79728571D02*
X131526247Y-79633333D01*
X131526247Y-79633333D02*
X131478628Y-79585714D01*
X131478628Y-79585714D02*
X131383390Y-79538095D01*
X146034318Y-71635857D02*
X145558127Y-71969190D01*
X146034318Y-72207285D02*
X145034318Y-72207285D01*
X145034318Y-72207285D02*
X145034318Y-71826333D01*
X145034318Y-71826333D02*
X145081937Y-71731095D01*
X145081937Y-71731095D02*
X145129556Y-71683476D01*
X145129556Y-71683476D02*
X145224794Y-71635857D01*
X145224794Y-71635857D02*
X145367651Y-71635857D01*
X145367651Y-71635857D02*
X145462889Y-71683476D01*
X145462889Y-71683476D02*
X145510508Y-71731095D01*
X145510508Y-71731095D02*
X145558127Y-71826333D01*
X145558127Y-71826333D02*
X145558127Y-72207285D01*
X146034318Y-70683476D02*
X146034318Y-71254904D01*
X146034318Y-70969190D02*
X145034318Y-70969190D01*
X145034318Y-70969190D02*
X145177175Y-71064428D01*
X145177175Y-71064428D02*
X145272413Y-71159666D01*
X145272413Y-71159666D02*
X145320032Y-71254904D01*
X145034318Y-70350142D02*
X145034318Y-69731095D01*
X145034318Y-69731095D02*
X145415270Y-70064428D01*
X145415270Y-70064428D02*
X145415270Y-69921571D01*
X145415270Y-69921571D02*
X145462889Y-69826333D01*
X145462889Y-69826333D02*
X145510508Y-69778714D01*
X145510508Y-69778714D02*
X145605746Y-69731095D01*
X145605746Y-69731095D02*
X145843841Y-69731095D01*
X145843841Y-69731095D02*
X145939079Y-69778714D01*
X145939079Y-69778714D02*
X145986699Y-69826333D01*
X145986699Y-69826333D02*
X146034318Y-69921571D01*
X146034318Y-69921571D02*
X146034318Y-70207285D01*
X146034318Y-70207285D02*
X145986699Y-70302523D01*
X145986699Y-70302523D02*
X145939079Y-70350142D01*
X153027142Y-112784580D02*
X152979523Y-112832200D01*
X152979523Y-112832200D02*
X152836666Y-112879819D01*
X152836666Y-112879819D02*
X152741428Y-112879819D01*
X152741428Y-112879819D02*
X152598571Y-112832200D01*
X152598571Y-112832200D02*
X152503333Y-112736961D01*
X152503333Y-112736961D02*
X152455714Y-112641723D01*
X152455714Y-112641723D02*
X152408095Y-112451247D01*
X152408095Y-112451247D02*
X152408095Y-112308390D01*
X152408095Y-112308390D02*
X152455714Y-112117914D01*
X152455714Y-112117914D02*
X152503333Y-112022676D01*
X152503333Y-112022676D02*
X152598571Y-111927438D01*
X152598571Y-111927438D02*
X152741428Y-111879819D01*
X152741428Y-111879819D02*
X152836666Y-111879819D01*
X152836666Y-111879819D02*
X152979523Y-111927438D01*
X152979523Y-111927438D02*
X153027142Y-111975057D01*
X153979523Y-112879819D02*
X153408095Y-112879819D01*
X153693809Y-112879819D02*
X153693809Y-111879819D01*
X153693809Y-111879819D02*
X153598571Y-112022676D01*
X153598571Y-112022676D02*
X153503333Y-112117914D01*
X153503333Y-112117914D02*
X153408095Y-112165533D01*
X154312857Y-111879819D02*
X154979523Y-111879819D01*
X154979523Y-111879819D02*
X154550952Y-112879819D01*
X136664580Y-76366666D02*
X136712200Y-76414285D01*
X136712200Y-76414285D02*
X136759819Y-76557142D01*
X136759819Y-76557142D02*
X136759819Y-76652380D01*
X136759819Y-76652380D02*
X136712200Y-76795237D01*
X136712200Y-76795237D02*
X136616961Y-76890475D01*
X136616961Y-76890475D02*
X136521723Y-76938094D01*
X136521723Y-76938094D02*
X136331247Y-76985713D01*
X136331247Y-76985713D02*
X136188390Y-76985713D01*
X136188390Y-76985713D02*
X135997914Y-76938094D01*
X135997914Y-76938094D02*
X135902676Y-76890475D01*
X135902676Y-76890475D02*
X135807438Y-76795237D01*
X135807438Y-76795237D02*
X135759819Y-76652380D01*
X135759819Y-76652380D02*
X135759819Y-76557142D01*
X135759819Y-76557142D02*
X135807438Y-76414285D01*
X135807438Y-76414285D02*
X135855057Y-76366666D01*
X136188390Y-75795237D02*
X136140771Y-75890475D01*
X136140771Y-75890475D02*
X136093152Y-75938094D01*
X136093152Y-75938094D02*
X135997914Y-75985713D01*
X135997914Y-75985713D02*
X135950295Y-75985713D01*
X135950295Y-75985713D02*
X135855057Y-75938094D01*
X135855057Y-75938094D02*
X135807438Y-75890475D01*
X135807438Y-75890475D02*
X135759819Y-75795237D01*
X135759819Y-75795237D02*
X135759819Y-75604761D01*
X135759819Y-75604761D02*
X135807438Y-75509523D01*
X135807438Y-75509523D02*
X135855057Y-75461904D01*
X135855057Y-75461904D02*
X135950295Y-75414285D01*
X135950295Y-75414285D02*
X135997914Y-75414285D01*
X135997914Y-75414285D02*
X136093152Y-75461904D01*
X136093152Y-75461904D02*
X136140771Y-75509523D01*
X136140771Y-75509523D02*
X136188390Y-75604761D01*
X136188390Y-75604761D02*
X136188390Y-75795237D01*
X136188390Y-75795237D02*
X136236009Y-75890475D01*
X136236009Y-75890475D02*
X136283628Y-75938094D01*
X136283628Y-75938094D02*
X136378866Y-75985713D01*
X136378866Y-75985713D02*
X136569342Y-75985713D01*
X136569342Y-75985713D02*
X136664580Y-75938094D01*
X136664580Y-75938094D02*
X136712200Y-75890475D01*
X136712200Y-75890475D02*
X136759819Y-75795237D01*
X136759819Y-75795237D02*
X136759819Y-75604761D01*
X136759819Y-75604761D02*
X136712200Y-75509523D01*
X136712200Y-75509523D02*
X136664580Y-75461904D01*
X136664580Y-75461904D02*
X136569342Y-75414285D01*
X136569342Y-75414285D02*
X136378866Y-75414285D01*
X136378866Y-75414285D02*
X136283628Y-75461904D01*
X136283628Y-75461904D02*
X136236009Y-75509523D01*
X136236009Y-75509523D02*
X136188390Y-75604761D01*
X146138095Y-78854819D02*
X146138095Y-79664342D01*
X146138095Y-79664342D02*
X146185714Y-79759580D01*
X146185714Y-79759580D02*
X146233333Y-79807200D01*
X146233333Y-79807200D02*
X146328571Y-79854819D01*
X146328571Y-79854819D02*
X146519047Y-79854819D01*
X146519047Y-79854819D02*
X146614285Y-79807200D01*
X146614285Y-79807200D02*
X146661904Y-79759580D01*
X146661904Y-79759580D02*
X146709523Y-79664342D01*
X146709523Y-79664342D02*
X146709523Y-78854819D01*
X147709523Y-79854819D02*
X147138095Y-79854819D01*
X147423809Y-79854819D02*
X147423809Y-78854819D01*
X147423809Y-78854819D02*
X147328571Y-78997676D01*
X147328571Y-78997676D02*
X147233333Y-79092914D01*
X147233333Y-79092914D02*
X147138095Y-79140533D01*
%TO.C,R9*%
D11*
X133604724Y-82662500D02*
X133095276Y-82662500D01*
X133604724Y-83707500D02*
X133095276Y-83707500D01*
%TO.C,R3*%
X134152621Y-73280000D02*
X133817379Y-73280000D01*
X134152621Y-74040000D02*
X133817379Y-74040000D01*
%TO.C,R1*%
X142072379Y-72010000D02*
X142407621Y-72010000D01*
X142072379Y-72770000D02*
X142407621Y-72770000D01*
%TO.C,C1*%
X152291232Y-75615001D02*
X152583766Y-75615001D01*
X152291232Y-76635001D02*
X152583766Y-76635001D01*
%TO.C,C6*%
X138918733Y-71880000D02*
X139211267Y-71880000D01*
X138918733Y-72900000D02*
X139211267Y-72900000D01*
%TO.C,D4*%
X170080000Y-110960000D02*
X170080000Y-113420000D01*
X170080000Y-113420000D02*
X171550000Y-113420000D01*
X171550000Y-113420000D02*
X171550000Y-110960000D01*
D12*
X170391200Y-113960000D02*
G75*
G02*
X170238800Y-113960000I-76200J0D01*
G01*
X170238800Y-113960000D02*
G75*
G02*
X170391200Y-113960000I76200J0D01*
G01*
%TO.C,R10*%
D11*
X135000276Y-80757500D02*
X135509724Y-80757500D01*
X135000276Y-81802500D02*
X135509724Y-81802500D01*
%TO.C,D1*%
D13*
X138215000Y-68735000D02*
X138215000Y-65885000D01*
X139915000Y-65885000D02*
X139915000Y-68735000D01*
D14*
X139165000Y-70310000D02*
G75*
G02*
X138965000Y-70310000I-100000J0D01*
G01*
X138965000Y-70310000D02*
G75*
G02*
X139165000Y-70310000I100000J0D01*
G01*
%TO.C,C16*%
D11*
X138721233Y-113345000D02*
X139013767Y-113345000D01*
X138721233Y-114365000D02*
X139013767Y-114365000D01*
%TO.C,R20*%
X128737379Y-96140000D02*
X129072621Y-96140000D01*
X128737379Y-96900000D02*
X129072621Y-96900000D01*
%TO.C,R21*%
X126620000Y-91607621D02*
X126620000Y-91272379D01*
X127380000Y-91607621D02*
X127380000Y-91272379D01*
%TO.C,R7*%
X172252621Y-113920000D02*
X171917379Y-113920000D01*
X172252621Y-114680000D02*
X171917379Y-114680000D01*
%TO.C,C7*%
X135380000Y-73171267D02*
X135380000Y-72878733D01*
X136400000Y-73171267D02*
X136400000Y-72878733D01*
%TO.C,Q5*%
X126690000Y-86235000D02*
X127620000Y-86235000D01*
X126690000Y-87035000D02*
X126690000Y-86235000D01*
X126690000Y-87035000D02*
X126690000Y-87835000D01*
X129850000Y-86235000D02*
X128920000Y-86235000D01*
X129850000Y-86235000D02*
X129850000Y-87695000D01*
X126660000Y-88335000D02*
X126330000Y-88575000D01*
X126330000Y-88095000D01*
X126660000Y-88335000D01*
G36*
X126660000Y-88335000D02*
G01*
X126330000Y-88575000D01*
X126330000Y-88095000D01*
X126660000Y-88335000D01*
G37*
%TO.C,C10*%
X148481232Y-75615001D02*
X148773766Y-75615001D01*
X148481232Y-76635001D02*
X148773766Y-76635001D01*
%TO.C,C15*%
X126248733Y-113345000D02*
X126541267Y-113345000D01*
X126248733Y-114365000D02*
X126541267Y-114365000D01*
%TO.C,C20*%
X135530000Y-83300835D02*
X135530000Y-83069165D01*
X136250000Y-83300835D02*
X136250000Y-83069165D01*
%TO.C,R19*%
X127467379Y-94235000D02*
X127802621Y-94235000D01*
X127467379Y-94995000D02*
X127802621Y-94995000D01*
%TO.C,R2*%
X133817379Y-72010000D02*
X134152621Y-72010000D01*
X133817379Y-72770000D02*
X134152621Y-72770000D01*
%TO.C,R22*%
X132227500Y-96122379D02*
X132227500Y-96457621D01*
X132987500Y-96122379D02*
X132987500Y-96457621D01*
%TO.C,C9*%
X146847499Y-73096268D02*
X146847499Y-72803734D01*
X147867499Y-73096268D02*
X147867499Y-72803734D01*
%TO.C,R6*%
X173467500Y-112014724D02*
X173467500Y-111505276D01*
X174512500Y-112014724D02*
X174512500Y-111505276D01*
%TO.C,C2*%
X133475000Y-78593733D02*
X133475000Y-78886267D01*
X134495000Y-78593733D02*
X134495000Y-78886267D01*
%TO.C,D3*%
D13*
X148412499Y-73740001D02*
X148412499Y-70890001D01*
X150112499Y-70890001D02*
X150112499Y-73740001D01*
D14*
X149362499Y-69315001D02*
G75*
G02*
X149162499Y-69315001I-100000J0D01*
G01*
X149162499Y-69315001D02*
G75*
G02*
X149362499Y-69315001I100000J0D01*
G01*
%TO.C,U3*%
D11*
X136715000Y-94620000D02*
X135915000Y-94620000D01*
X136715000Y-94620000D02*
X137515000Y-94620000D01*
X137515000Y-94620000D02*
X137515000Y-95550000D01*
X137515000Y-97780000D02*
X136055000Y-97780000D01*
X137515000Y-97780000D02*
X137515000Y-96850000D01*
X135415000Y-94590000D02*
X135175000Y-94260000D01*
X135655000Y-94260000D01*
X135415000Y-94590000D01*
G36*
X135415000Y-94590000D02*
G01*
X135175000Y-94260000D01*
X135655000Y-94260000D01*
X135415000Y-94590000D01*
G37*
%TO.C,R5*%
X131345000Y-76607936D02*
X131345000Y-77062064D01*
X132815000Y-76607936D02*
X132815000Y-77062064D01*
%TO.C,D2*%
D13*
X132560000Y-68365000D02*
X135410000Y-68365000D01*
X135410000Y-70065000D02*
X132560000Y-70065000D01*
D14*
X131085000Y-69215000D02*
G75*
G02*
X130885000Y-69215000I-100000J0D01*
G01*
X130885000Y-69215000D02*
G75*
G02*
X131085000Y-69215000I100000J0D01*
G01*
%TO.C,C18*%
D11*
X163011665Y-113940000D02*
X163243335Y-113940000D01*
X163011665Y-114660000D02*
X163243335Y-114660000D01*
%TO.C,R4*%
X129795000Y-74762379D02*
X129795000Y-75097621D01*
X130555000Y-74762379D02*
X130555000Y-75097621D01*
%TO.C,R8*%
X133095276Y-84597500D02*
X133604724Y-84597500D01*
X133095276Y-85642500D02*
X133604724Y-85642500D01*
%TO.C,U2*%
D13*
X130010000Y-92410000D02*
X130010000Y-91740000D01*
X130480000Y-90625000D02*
X131140000Y-90625000D01*
X131140000Y-93525000D02*
X130480000Y-93525000D01*
D14*
X133320000Y-93125000D02*
G75*
G02*
X133120000Y-93125000I-100000J0D01*
G01*
X133120000Y-93125000D02*
G75*
G02*
X133320000Y-93125000I100000J0D01*
G01*
%TO.C,R13*%
D11*
X145620120Y-72570001D02*
X145284878Y-72570001D01*
X145620120Y-73330001D02*
X145284878Y-73330001D01*
%TO.C,C17*%
X153523733Y-113345000D02*
X153816267Y-113345000D01*
X153523733Y-114365000D02*
X153816267Y-114365000D01*
%TO.C,U1*%
D12*
X139397145Y-80573999D02*
X143176647Y-80573999D01*
X143176653Y-73715999D02*
X139397151Y-73715999D01*
X137177299Y-74219998D02*
G75*
G02*
X137024899Y-74219998I-76200J0D01*
G01*
X137024899Y-74219998D02*
G75*
G02*
X137177299Y-74219998I76200J0D01*
G01*
%TO.C,J4*%
D15*
X161925000Y-125730000D02*
G75*
G02*
X161163000Y-125730000I-381000J0D01*
G01*
X161163000Y-125730000D02*
G75*
G02*
X161925000Y-125730000I381000J0D01*
G01*
%TO.C,J5*%
X157480000Y-125730000D02*
G75*
G02*
X156718000Y-125730000I-381000J0D01*
G01*
X156718000Y-125730000D02*
G75*
G02*
X157480000Y-125730000I381000J0D01*
G01*
%TO.C,J2*%
X170789600Y-125730000D02*
G75*
G02*
X170027600Y-125730000I-381000J0D01*
G01*
X170027600Y-125730000D02*
G75*
G02*
X170789600Y-125730000I381000J0D01*
G01*
%TO.C,J7*%
X148590000Y-125730000D02*
G75*
G02*
X147828000Y-125730000I-381000J0D01*
G01*
X147828000Y-125730000D02*
G75*
G02*
X148590000Y-125730000I381000J0D01*
G01*
%TO.C,J10*%
X130810000Y-125730000D02*
G75*
G02*
X130048000Y-125730000I-381000J0D01*
G01*
X130048000Y-125730000D02*
G75*
G02*
X130810000Y-125730000I381000J0D01*
G01*
%TO.C,J11*%
X135255000Y-125730000D02*
G75*
G02*
X134493000Y-125730000I-381000J0D01*
G01*
X134493000Y-125730000D02*
G75*
G02*
X135255000Y-125730000I381000J0D01*
G01*
%TO.C,J9*%
X125730000Y-125730000D02*
G75*
G02*
X124968000Y-125730000I-381000J0D01*
G01*
X124968000Y-125730000D02*
G75*
G02*
X125730000Y-125730000I381000J0D01*
G01*
%TO.C,J3*%
X166370000Y-125730000D02*
G75*
G02*
X165608000Y-125730000I-381000J0D01*
G01*
X165608000Y-125730000D02*
G75*
G02*
X166370000Y-125730000I381000J0D01*
G01*
%TO.C,J13*%
X144145000Y-125730000D02*
G75*
G02*
X143383000Y-125730000I-381000J0D01*
G01*
X143383000Y-125730000D02*
G75*
G02*
X144145000Y-125730000I381000J0D01*
G01*
%TO.C,J8*%
X121285000Y-125730000D02*
G75*
G02*
X120523000Y-125730000I-381000J0D01*
G01*
X120523000Y-125730000D02*
G75*
G02*
X121285000Y-125730000I381000J0D01*
G01*
%TO.C,J6*%
X153035000Y-125730000D02*
G75*
G02*
X152273000Y-125730000I-381000J0D01*
G01*
X152273000Y-125730000D02*
G75*
G02*
X153035000Y-125730000I381000J0D01*
G01*
%TO.C,J12*%
X139700000Y-125730000D02*
G75*
G02*
X138938000Y-125730000I-381000J0D01*
G01*
X138938000Y-125730000D02*
G75*
G02*
X139700000Y-125730000I381000J0D01*
G01*
%TD*%
M02*
